M48
; DRILL file {KiCad 5.1.5} date Fr 08 Mai 2020 14:03:01 CEST
; FORMAT={-:-/ absolute / metric / decimal}
; #@! TF.CreationDate,2020-05-08T14:03:01+02:00
; #@! TF.GenerationSoftware,Kicad,Pcbnew,5.1.5
; #@! TF.FileFunction,Plated,1,2,PTH
FMAT,2
METRIC
T1C0.300
T2C0.600
T3C1.000
%
G90
G05
T1
X88.95Y-101.25
X89.0Y-103.8
X89.05Y-106.3
X89.05Y-119.0
X89.1Y-93.7
X89.1Y-96.2
X89.2Y-86.0
X89.2Y-98.7
X89.26Y-83.59
X89.3Y-88.5
X89.3Y-91.1
X89.3Y-116.35
X89.3Y-121.65
X90.016Y-86.038
X90.8Y-106.0
X91.1Y-103.8
X91.2Y-90.7
X91.5Y-82.4
X91.5Y-83.5
X91.6Y-100.3
X91.978Y-85.84
X91.981Y-86.789
X92.1Y-108.0
X92.1Y-113.8
X92.2Y-91.72
X92.3Y-98.12
X92.8Y-103.9
X92.9Y-108.1
X93.067Y-85.803
X93.2Y-113.7
X93.42Y-115.06
X93.5Y-102.182
X93.7Y-93.1
X93.76Y-114.49
X93.8Y-90.1
X94.0Y-119.6
X94.2Y-102.382
X94.6Y-87.9
X94.6Y-106.3
X94.675Y-105.482
X94.72Y-83.26
X94.76Y-82.59
X94.87Y-83.91
X95.0Y-108.1
X95.17Y-84.5
X95.2Y-88.5
X95.44Y-94.99
X95.556Y-109.98
X95.62Y-85.01
X95.974Y-86.333
X96.001Y-94.443
X96.03Y-104.998
X96.14Y-82.7
X96.2Y-85.41
X96.2Y-95.9
X96.2Y-113.6
X96.226Y-110.504
X96.25Y-83.35
X96.59Y-105.522
X96.6Y-100.2
X96.61Y-83.91
X96.8Y-82.4
X96.803Y-95.247
X96.86Y-85.65
X97.0Y-90.0
X97.19Y-84.21
X97.333Y-95.775
X97.333Y-95.775
X97.4Y-104.7
X97.4Y-105.7
X97.55Y-85.74
X97.6Y-115.5
X97.6Y-116.4
X97.62Y-114.63
X97.75Y-94.19
X97.84Y-84.29
X97.949Y-97.833
X98.0Y-98.7
X98.1Y-110.8
X98.46Y-84.52
X98.6Y-104.7
X98.6Y-105.7
X99.02Y-84.88
X99.34Y-82.4
X99.4Y-110.8
X99.539Y-115.429
X99.753Y-116.46
X100.0Y-87.0
X100.0Y-90.0
X100.0Y-93.0
X100.111Y-99.979
X100.6Y-105.3
X100.85Y-104.502
X100.893Y-110.205
X100.913Y-109.3
X101.352Y-100.526
X101.363Y-99.807
X101.75Y-95.0
X101.88Y-82.4
X101.9Y-109.6
X102.0Y-84.2
X102.4Y-114.63
X102.4Y-115.5
X102.4Y-116.4
X102.644Y-94.471
X103.0Y-90.0
X103.1Y-86.5
X103.1Y-110.1
X103.251Y-100.383
X103.3Y-84.411
X103.393Y-94.517
X103.4Y-96.65
X103.747Y-84.867
X104.0Y-111.6
X104.0Y-119.6
X104.068Y-87.778
X104.17Y-94.647
X104.2Y-95.9
X104.303Y-112.693
X104.42Y-82.4
X104.75Y-84.8
X104.8Y-95.2
X104.8Y-109.5
X104.9Y-104.8
X104.965Y-88.692
X105.136Y-114.736
X105.222Y-88.012
X105.3Y-85.43
X105.3Y-90.6
X105.7Y-91.8
X105.799Y-103.409
X105.923Y-88.303
X105.95Y-99.2
X106.0Y-97.8
X106.215Y-89.94
X106.51Y-85.14
X106.6Y-97.1
X106.76Y-87.47
X106.85Y-106.745
X106.96Y-82.4
X107.1Y-84.6
X107.239Y-109.765
X107.316Y-88.596
X107.428Y-97.125
X107.586Y-86.666
X107.7Y-103.5
X107.7Y-112.6
X107.7Y-117.3
X107.792Y-109.281
X107.9Y-90.3
X107.9Y-92.4
X107.97Y-85.98
X108.06Y-87.91
X108.179Y-97.313
X108.283Y-106.425
X108.283Y-109.991
X108.345Y-107.209
X108.49Y-83.23
X108.492Y-84.742
X108.5Y-118.1
X108.55Y-104.3
X108.6Y-99.2
X108.6Y-100.4
X108.6Y-101.85
X108.7Y-90.0
X108.8Y-87.83
X108.8Y-91.5
X108.98Y-97.346
X109.09Y-86.16
X109.39Y-82.45
X109.54Y-83.98
X109.628Y-88.55
X109.639Y-85.458
X109.7Y-119.35
X110.0Y-94.6
X110.1Y-97.7
X110.2Y-89.2
X110.3Y-88.0
X110.3Y-91.1
X110.35Y-123.6
X110.4Y-96.4
X110.6Y-101.3
X110.65Y-83.45
X110.76Y-86.05
X110.85Y-119.0
X110.9Y-106.3
X110.9Y-116.45
X110.9Y-121.55
X111.0Y-108.9
X111.0Y-111.4
X111.1Y-113.95
X93.35Y-82.35
T3
X111.43Y-77.14
X111.43Y-79.68
X111.43Y-82.22
X111.43Y-84.76
X111.43Y-87.3
X111.43Y-89.84
X111.43Y-92.38
X111.43Y-94.92
X111.43Y-97.46
X111.43Y-100.0
X111.43Y-102.54
X111.43Y-105.08
X111.43Y-107.62
X111.43Y-110.16
X111.43Y-112.7
X111.43Y-115.24
X111.43Y-117.78
X111.43Y-120.32
X111.43Y-122.86
X88.57Y-77.14
X88.57Y-79.68
X88.57Y-82.22
X88.57Y-84.76
X88.57Y-87.3
X88.57Y-89.84
X88.57Y-92.38
X88.57Y-94.92
X88.57Y-97.46
X88.57Y-100.0
X88.57Y-102.54
X88.57Y-105.08
X88.57Y-107.62
X88.57Y-110.16
X88.57Y-112.7
X88.57Y-115.24
X88.57Y-117.78
X88.57Y-120.32
X88.57Y-122.86
T2
G00X95.68Y-118.42
M15
G01X95.68Y-117.32
M16
G05
G00X95.68Y-122.44
M15
G01X95.68Y-121.64
M16
G05
G00X104.32Y-118.42
M15
G01X104.32Y-117.32
M16
G05
G00X104.32Y-122.44
M15
G01X104.32Y-121.64
M16
G05
T0
M30
