G04 #@! TF.GenerationSoftware,KiCad,Pcbnew,5.1.6*
G04 #@! TF.CreationDate,2020-05-20T03:48:40+02:00*
G04 #@! TF.ProjectId,ESP32_Devkit_TypeC,45535033-325f-4446-9576-6b69745f5479,rev?*
G04 #@! TF.SameCoordinates,Original*
G04 #@! TF.FileFunction,Soldermask,Top*
G04 #@! TF.FilePolarity,Negative*
%FSLAX46Y46*%
G04 Gerber Fmt 4.6, Leading zero omitted, Abs format (unit mm)*
G04 Created by KiCad (PCBNEW 5.1.6) date 2020-05-20 03:48:40*
%MOMM*%
%LPD*%
G01*
G04 APERTURE LIST*
%ADD10R,0.920000X1.220000*%
%ADD11C,0.100000*%
%ADD12C,1.172000*%
%ADD13R,1.220000X1.420000*%
%ADD14R,1.080000X0.670000*%
%ADD15R,0.820000X0.920000*%
%ADD16R,0.620000X1.180000*%
%ADD17C,0.620000*%
%ADD18R,0.320000X1.180000*%
%ADD19O,0.920000X1.720000*%
%ADD20O,0.920000X2.020000*%
%ADD21O,1.720000X1.720000*%
%ADD22R,1.720000X1.720000*%
G04 APERTURE END LIST*
G36*
G01*
X106180000Y-102527500D02*
X106180000Y-102172500D01*
G75*
G02*
X106332500Y-102020000I152500J0D01*
G01*
X106637500Y-102020000D01*
G75*
G02*
X106790000Y-102172500I0J-152500D01*
G01*
X106790000Y-102527500D01*
G75*
G02*
X106637500Y-102680000I-152500J0D01*
G01*
X106332500Y-102680000D01*
G75*
G02*
X106180000Y-102527500I0J152500D01*
G01*
G37*
G36*
G01*
X105210000Y-102527500D02*
X105210000Y-102172500D01*
G75*
G02*
X105362500Y-102020000I152500J0D01*
G01*
X105667500Y-102020000D01*
G75*
G02*
X105820000Y-102172500I0J-152500D01*
G01*
X105820000Y-102527500D01*
G75*
G02*
X105667500Y-102680000I-152500J0D01*
G01*
X105362500Y-102680000D01*
G75*
G02*
X105210000Y-102527500I0J152500D01*
G01*
G37*
G36*
G01*
X99062500Y-99760000D02*
X99417500Y-99760000D01*
G75*
G02*
X99570000Y-99912500I0J-152500D01*
G01*
X99570000Y-100217500D01*
G75*
G02*
X99417500Y-100370000I-152500J0D01*
G01*
X99062500Y-100370000D01*
G75*
G02*
X98910000Y-100217500I0J152500D01*
G01*
X98910000Y-99912500D01*
G75*
G02*
X99062500Y-99760000I152500J0D01*
G01*
G37*
G36*
G01*
X99062500Y-98790000D02*
X99417500Y-98790000D01*
G75*
G02*
X99570000Y-98942500I0J-152500D01*
G01*
X99570000Y-99247500D01*
G75*
G02*
X99417500Y-99400000I-152500J0D01*
G01*
X99062500Y-99400000D01*
G75*
G02*
X98910000Y-99247500I0J152500D01*
G01*
X98910000Y-98942500D01*
G75*
G02*
X99062500Y-98790000I152500J0D01*
G01*
G37*
G36*
G01*
X108030000Y-115637500D02*
X108030000Y-115282500D01*
G75*
G02*
X108182500Y-115130000I152500J0D01*
G01*
X108487500Y-115130000D01*
G75*
G02*
X108640000Y-115282500I0J-152500D01*
G01*
X108640000Y-115637500D01*
G75*
G02*
X108487500Y-115790000I-152500J0D01*
G01*
X108182500Y-115790000D01*
G75*
G02*
X108030000Y-115637500I0J152500D01*
G01*
G37*
G36*
G01*
X107060000Y-115637500D02*
X107060000Y-115282500D01*
G75*
G02*
X107212500Y-115130000I152500J0D01*
G01*
X107517500Y-115130000D01*
G75*
G02*
X107670000Y-115282500I0J-152500D01*
G01*
X107670000Y-115637500D01*
G75*
G02*
X107517500Y-115790000I-152500J0D01*
G01*
X107212500Y-115790000D01*
G75*
G02*
X107060000Y-115637500I0J152500D01*
G01*
G37*
D10*
X95900000Y-114750000D03*
X92600000Y-114750000D03*
G36*
G01*
X104046419Y-90319552D02*
X104141878Y-90224093D01*
G75*
G02*
X104237338Y-90224093I47730J-47730D01*
G01*
X104438863Y-90425618D01*
G75*
G02*
X104438863Y-90521078I-47730J-47730D01*
G01*
X104343404Y-90616537D01*
G75*
G02*
X104247944Y-90616537I-47730J47730D01*
G01*
X104046419Y-90415012D01*
G75*
G02*
X104046419Y-90319552I47730J47730D01*
G01*
G37*
G36*
G01*
X103692865Y-90673106D02*
X103788324Y-90577647D01*
G75*
G02*
X103883784Y-90577647I47730J-47730D01*
G01*
X104085309Y-90779172D01*
G75*
G02*
X104085309Y-90874632I-47730J-47730D01*
G01*
X103989850Y-90970091D01*
G75*
G02*
X103894390Y-90970091I-47730J47730D01*
G01*
X103692865Y-90768566D01*
G75*
G02*
X103692865Y-90673106I47730J47730D01*
G01*
G37*
G36*
G01*
X103339312Y-91026659D02*
X103434771Y-90931200D01*
G75*
G02*
X103530231Y-90931200I47730J-47730D01*
G01*
X103731756Y-91132725D01*
G75*
G02*
X103731756Y-91228185I-47730J-47730D01*
G01*
X103636297Y-91323644D01*
G75*
G02*
X103540837Y-91323644I-47730J47730D01*
G01*
X103339312Y-91122119D01*
G75*
G02*
X103339312Y-91026659I47730J47730D01*
G01*
G37*
G36*
G01*
X102985759Y-91380213D02*
X103081218Y-91284754D01*
G75*
G02*
X103176678Y-91284754I47730J-47730D01*
G01*
X103378203Y-91486279D01*
G75*
G02*
X103378203Y-91581739I-47730J-47730D01*
G01*
X103282744Y-91677198D01*
G75*
G02*
X103187284Y-91677198I-47730J47730D01*
G01*
X102985759Y-91475673D01*
G75*
G02*
X102985759Y-91380213I47730J47730D01*
G01*
G37*
G36*
G01*
X102632205Y-91733766D02*
X102727664Y-91638307D01*
G75*
G02*
X102823124Y-91638307I47730J-47730D01*
G01*
X103024649Y-91839832D01*
G75*
G02*
X103024649Y-91935292I-47730J-47730D01*
G01*
X102929190Y-92030751D01*
G75*
G02*
X102833730Y-92030751I-47730J47730D01*
G01*
X102632205Y-91829226D01*
G75*
G02*
X102632205Y-91733766I47730J47730D01*
G01*
G37*
G36*
G01*
X102278652Y-92087319D02*
X102374111Y-91991860D01*
G75*
G02*
X102469571Y-91991860I47730J-47730D01*
G01*
X102671096Y-92193385D01*
G75*
G02*
X102671096Y-92288845I-47730J-47730D01*
G01*
X102575637Y-92384304D01*
G75*
G02*
X102480177Y-92384304I-47730J47730D01*
G01*
X102278652Y-92182779D01*
G75*
G02*
X102278652Y-92087319I47730J47730D01*
G01*
G37*
G36*
G01*
X101925098Y-92440873D02*
X102020557Y-92345414D01*
G75*
G02*
X102116017Y-92345414I47730J-47730D01*
G01*
X102317542Y-92546939D01*
G75*
G02*
X102317542Y-92642399I-47730J-47730D01*
G01*
X102222083Y-92737858D01*
G75*
G02*
X102126623Y-92737858I-47730J47730D01*
G01*
X101925098Y-92536333D01*
G75*
G02*
X101925098Y-92440873I47730J47730D01*
G01*
G37*
G36*
G01*
X101571545Y-92794426D02*
X101667004Y-92698967D01*
G75*
G02*
X101762464Y-92698967I47730J-47730D01*
G01*
X101963989Y-92900492D01*
G75*
G02*
X101963989Y-92995952I-47730J-47730D01*
G01*
X101868530Y-93091411D01*
G75*
G02*
X101773070Y-93091411I-47730J47730D01*
G01*
X101571545Y-92889886D01*
G75*
G02*
X101571545Y-92794426I47730J47730D01*
G01*
G37*
G36*
G01*
X101217992Y-93147980D02*
X101313451Y-93052521D01*
G75*
G02*
X101408911Y-93052521I47730J-47730D01*
G01*
X101610436Y-93254046D01*
G75*
G02*
X101610436Y-93349506I-47730J-47730D01*
G01*
X101514977Y-93444965D01*
G75*
G02*
X101419517Y-93444965I-47730J47730D01*
G01*
X101217992Y-93243440D01*
G75*
G02*
X101217992Y-93147980I47730J47730D01*
G01*
G37*
G36*
G01*
X100864438Y-93501533D02*
X100959897Y-93406074D01*
G75*
G02*
X101055357Y-93406074I47730J-47730D01*
G01*
X101256882Y-93607599D01*
G75*
G02*
X101256882Y-93703059I-47730J-47730D01*
G01*
X101161423Y-93798518D01*
G75*
G02*
X101065963Y-93798518I-47730J47730D01*
G01*
X100864438Y-93596993D01*
G75*
G02*
X100864438Y-93501533I47730J47730D01*
G01*
G37*
G36*
G01*
X100510885Y-93855086D02*
X100606344Y-93759627D01*
G75*
G02*
X100701804Y-93759627I47730J-47730D01*
G01*
X100903329Y-93961152D01*
G75*
G02*
X100903329Y-94056612I-47730J-47730D01*
G01*
X100807870Y-94152071D01*
G75*
G02*
X100712410Y-94152071I-47730J47730D01*
G01*
X100510885Y-93950546D01*
G75*
G02*
X100510885Y-93855086I47730J47730D01*
G01*
G37*
G36*
G01*
X100157331Y-85829424D02*
X100358856Y-85627899D01*
G75*
G02*
X100454316Y-85627899I47730J-47730D01*
G01*
X100549775Y-85723358D01*
G75*
G02*
X100549775Y-85818818I-47730J-47730D01*
G01*
X100348250Y-86020343D01*
G75*
G02*
X100252790Y-86020343I-47730J47730D01*
G01*
X100157331Y-85924884D01*
G75*
G02*
X100157331Y-85829424I47730J47730D01*
G01*
G37*
G36*
G01*
X100510885Y-86182978D02*
X100712410Y-85981453D01*
G75*
G02*
X100807870Y-85981453I47730J-47730D01*
G01*
X100903329Y-86076912D01*
G75*
G02*
X100903329Y-86172372I-47730J-47730D01*
G01*
X100701804Y-86373897D01*
G75*
G02*
X100606344Y-86373897I-47730J47730D01*
G01*
X100510885Y-86278438D01*
G75*
G02*
X100510885Y-86182978I47730J47730D01*
G01*
G37*
G36*
G01*
X100864438Y-86536531D02*
X101065963Y-86335006D01*
G75*
G02*
X101161423Y-86335006I47730J-47730D01*
G01*
X101256882Y-86430465D01*
G75*
G02*
X101256882Y-86525925I-47730J-47730D01*
G01*
X101055357Y-86727450D01*
G75*
G02*
X100959897Y-86727450I-47730J47730D01*
G01*
X100864438Y-86631991D01*
G75*
G02*
X100864438Y-86536531I47730J47730D01*
G01*
G37*
G36*
G01*
X101217992Y-86890084D02*
X101419517Y-86688559D01*
G75*
G02*
X101514977Y-86688559I47730J-47730D01*
G01*
X101610436Y-86784018D01*
G75*
G02*
X101610436Y-86879478I-47730J-47730D01*
G01*
X101408911Y-87081003D01*
G75*
G02*
X101313451Y-87081003I-47730J47730D01*
G01*
X101217992Y-86985544D01*
G75*
G02*
X101217992Y-86890084I47730J47730D01*
G01*
G37*
G36*
G01*
X101571545Y-87243638D02*
X101773070Y-87042113D01*
G75*
G02*
X101868530Y-87042113I47730J-47730D01*
G01*
X101963989Y-87137572D01*
G75*
G02*
X101963989Y-87233032I-47730J-47730D01*
G01*
X101762464Y-87434557D01*
G75*
G02*
X101667004Y-87434557I-47730J47730D01*
G01*
X101571545Y-87339098D01*
G75*
G02*
X101571545Y-87243638I47730J47730D01*
G01*
G37*
G36*
G01*
X101925098Y-87597191D02*
X102126623Y-87395666D01*
G75*
G02*
X102222083Y-87395666I47730J-47730D01*
G01*
X102317542Y-87491125D01*
G75*
G02*
X102317542Y-87586585I-47730J-47730D01*
G01*
X102116017Y-87788110D01*
G75*
G02*
X102020557Y-87788110I-47730J47730D01*
G01*
X101925098Y-87692651D01*
G75*
G02*
X101925098Y-87597191I47730J47730D01*
G01*
G37*
G36*
G01*
X102278652Y-87950745D02*
X102480177Y-87749220D01*
G75*
G02*
X102575637Y-87749220I47730J-47730D01*
G01*
X102671096Y-87844679D01*
G75*
G02*
X102671096Y-87940139I-47730J-47730D01*
G01*
X102469571Y-88141664D01*
G75*
G02*
X102374111Y-88141664I-47730J47730D01*
G01*
X102278652Y-88046205D01*
G75*
G02*
X102278652Y-87950745I47730J47730D01*
G01*
G37*
G36*
G01*
X102632205Y-88304298D02*
X102833730Y-88102773D01*
G75*
G02*
X102929190Y-88102773I47730J-47730D01*
G01*
X103024649Y-88198232D01*
G75*
G02*
X103024649Y-88293692I-47730J-47730D01*
G01*
X102823124Y-88495217D01*
G75*
G02*
X102727664Y-88495217I-47730J47730D01*
G01*
X102632205Y-88399758D01*
G75*
G02*
X102632205Y-88304298I47730J47730D01*
G01*
G37*
G36*
G01*
X102985759Y-88657851D02*
X103187284Y-88456326D01*
G75*
G02*
X103282744Y-88456326I47730J-47730D01*
G01*
X103378203Y-88551785D01*
G75*
G02*
X103378203Y-88647245I-47730J-47730D01*
G01*
X103176678Y-88848770D01*
G75*
G02*
X103081218Y-88848770I-47730J47730D01*
G01*
X102985759Y-88753311D01*
G75*
G02*
X102985759Y-88657851I47730J47730D01*
G01*
G37*
G36*
G01*
X103339312Y-89011405D02*
X103540837Y-88809880D01*
G75*
G02*
X103636297Y-88809880I47730J-47730D01*
G01*
X103731756Y-88905339D01*
G75*
G02*
X103731756Y-89000799I-47730J-47730D01*
G01*
X103530231Y-89202324D01*
G75*
G02*
X103434771Y-89202324I-47730J47730D01*
G01*
X103339312Y-89106865D01*
G75*
G02*
X103339312Y-89011405I47730J47730D01*
G01*
G37*
G36*
G01*
X103692865Y-89364958D02*
X103894390Y-89163433D01*
G75*
G02*
X103989850Y-89163433I47730J-47730D01*
G01*
X104085309Y-89258892D01*
G75*
G02*
X104085309Y-89354352I-47730J-47730D01*
G01*
X103883784Y-89555877D01*
G75*
G02*
X103788324Y-89555877I-47730J47730D01*
G01*
X103692865Y-89460418D01*
G75*
G02*
X103692865Y-89364958I47730J47730D01*
G01*
G37*
G36*
G01*
X99450225Y-94314706D02*
X99651750Y-94113181D01*
G75*
G02*
X99747210Y-94113181I47730J-47730D01*
G01*
X99842669Y-94208640D01*
G75*
G02*
X99842669Y-94304100I-47730J-47730D01*
G01*
X99641144Y-94505625D01*
G75*
G02*
X99545684Y-94505625I-47730J47730D01*
G01*
X99450225Y-94410166D01*
G75*
G02*
X99450225Y-94314706I47730J47730D01*
G01*
G37*
G36*
G01*
X99096671Y-93961152D02*
X99298196Y-93759627D01*
G75*
G02*
X99393656Y-93759627I47730J-47730D01*
G01*
X99489115Y-93855086D01*
G75*
G02*
X99489115Y-93950546I-47730J-47730D01*
G01*
X99287590Y-94152071D01*
G75*
G02*
X99192130Y-94152071I-47730J47730D01*
G01*
X99096671Y-94056612D01*
G75*
G02*
X99096671Y-93961152I47730J47730D01*
G01*
G37*
G36*
G01*
X98743118Y-93607599D02*
X98944643Y-93406074D01*
G75*
G02*
X99040103Y-93406074I47730J-47730D01*
G01*
X99135562Y-93501533D01*
G75*
G02*
X99135562Y-93596993I-47730J-47730D01*
G01*
X98934037Y-93798518D01*
G75*
G02*
X98838577Y-93798518I-47730J47730D01*
G01*
X98743118Y-93703059D01*
G75*
G02*
X98743118Y-93607599I47730J47730D01*
G01*
G37*
G36*
G01*
X98389564Y-93254046D02*
X98591089Y-93052521D01*
G75*
G02*
X98686549Y-93052521I47730J-47730D01*
G01*
X98782008Y-93147980D01*
G75*
G02*
X98782008Y-93243440I-47730J-47730D01*
G01*
X98580483Y-93444965D01*
G75*
G02*
X98485023Y-93444965I-47730J47730D01*
G01*
X98389564Y-93349506D01*
G75*
G02*
X98389564Y-93254046I47730J47730D01*
G01*
G37*
G36*
G01*
X98036011Y-92900492D02*
X98237536Y-92698967D01*
G75*
G02*
X98332996Y-92698967I47730J-47730D01*
G01*
X98428455Y-92794426D01*
G75*
G02*
X98428455Y-92889886I-47730J-47730D01*
G01*
X98226930Y-93091411D01*
G75*
G02*
X98131470Y-93091411I-47730J47730D01*
G01*
X98036011Y-92995952D01*
G75*
G02*
X98036011Y-92900492I47730J47730D01*
G01*
G37*
G36*
G01*
X97682458Y-92546939D02*
X97883983Y-92345414D01*
G75*
G02*
X97979443Y-92345414I47730J-47730D01*
G01*
X98074902Y-92440873D01*
G75*
G02*
X98074902Y-92536333I-47730J-47730D01*
G01*
X97873377Y-92737858D01*
G75*
G02*
X97777917Y-92737858I-47730J47730D01*
G01*
X97682458Y-92642399D01*
G75*
G02*
X97682458Y-92546939I47730J47730D01*
G01*
G37*
G36*
G01*
X97328904Y-92193385D02*
X97530429Y-91991860D01*
G75*
G02*
X97625889Y-91991860I47730J-47730D01*
G01*
X97721348Y-92087319D01*
G75*
G02*
X97721348Y-92182779I-47730J-47730D01*
G01*
X97519823Y-92384304D01*
G75*
G02*
X97424363Y-92384304I-47730J47730D01*
G01*
X97328904Y-92288845D01*
G75*
G02*
X97328904Y-92193385I47730J47730D01*
G01*
G37*
G36*
G01*
X96975351Y-91839832D02*
X97176876Y-91638307D01*
G75*
G02*
X97272336Y-91638307I47730J-47730D01*
G01*
X97367795Y-91733766D01*
G75*
G02*
X97367795Y-91829226I-47730J-47730D01*
G01*
X97166270Y-92030751D01*
G75*
G02*
X97070810Y-92030751I-47730J47730D01*
G01*
X96975351Y-91935292D01*
G75*
G02*
X96975351Y-91839832I47730J47730D01*
G01*
G37*
G36*
G01*
X96621797Y-91486279D02*
X96823322Y-91284754D01*
G75*
G02*
X96918782Y-91284754I47730J-47730D01*
G01*
X97014241Y-91380213D01*
G75*
G02*
X97014241Y-91475673I-47730J-47730D01*
G01*
X96812716Y-91677198D01*
G75*
G02*
X96717256Y-91677198I-47730J47730D01*
G01*
X96621797Y-91581739D01*
G75*
G02*
X96621797Y-91486279I47730J47730D01*
G01*
G37*
G36*
G01*
X96268244Y-91132725D02*
X96469769Y-90931200D01*
G75*
G02*
X96565229Y-90931200I47730J-47730D01*
G01*
X96660688Y-91026659D01*
G75*
G02*
X96660688Y-91122119I-47730J-47730D01*
G01*
X96459163Y-91323644D01*
G75*
G02*
X96363703Y-91323644I-47730J47730D01*
G01*
X96268244Y-91228185D01*
G75*
G02*
X96268244Y-91132725I47730J47730D01*
G01*
G37*
G36*
G01*
X95914691Y-90779172D02*
X96116216Y-90577647D01*
G75*
G02*
X96211676Y-90577647I47730J-47730D01*
G01*
X96307135Y-90673106D01*
G75*
G02*
X96307135Y-90768566I-47730J-47730D01*
G01*
X96105610Y-90970091D01*
G75*
G02*
X96010150Y-90970091I-47730J47730D01*
G01*
X95914691Y-90874632D01*
G75*
G02*
X95914691Y-90779172I47730J47730D01*
G01*
G37*
G36*
G01*
X95561137Y-89612446D02*
X95656596Y-89516987D01*
G75*
G02*
X95752056Y-89516987I47730J-47730D01*
G01*
X95953581Y-89718512D01*
G75*
G02*
X95953581Y-89813972I-47730J-47730D01*
G01*
X95858122Y-89909431D01*
G75*
G02*
X95762662Y-89909431I-47730J47730D01*
G01*
X95561137Y-89707906D01*
G75*
G02*
X95561137Y-89612446I47730J47730D01*
G01*
G37*
G36*
G01*
X95914691Y-89258892D02*
X96010150Y-89163433D01*
G75*
G02*
X96105610Y-89163433I47730J-47730D01*
G01*
X96307135Y-89364958D01*
G75*
G02*
X96307135Y-89460418I-47730J-47730D01*
G01*
X96211676Y-89555877D01*
G75*
G02*
X96116216Y-89555877I-47730J47730D01*
G01*
X95914691Y-89354352D01*
G75*
G02*
X95914691Y-89258892I47730J47730D01*
G01*
G37*
G36*
G01*
X96268244Y-88905339D02*
X96363703Y-88809880D01*
G75*
G02*
X96459163Y-88809880I47730J-47730D01*
G01*
X96660688Y-89011405D01*
G75*
G02*
X96660688Y-89106865I-47730J-47730D01*
G01*
X96565229Y-89202324D01*
G75*
G02*
X96469769Y-89202324I-47730J47730D01*
G01*
X96268244Y-89000799D01*
G75*
G02*
X96268244Y-88905339I47730J47730D01*
G01*
G37*
G36*
G01*
X96621797Y-88551785D02*
X96717256Y-88456326D01*
G75*
G02*
X96812716Y-88456326I47730J-47730D01*
G01*
X97014241Y-88657851D01*
G75*
G02*
X97014241Y-88753311I-47730J-47730D01*
G01*
X96918782Y-88848770D01*
G75*
G02*
X96823322Y-88848770I-47730J47730D01*
G01*
X96621797Y-88647245D01*
G75*
G02*
X96621797Y-88551785I47730J47730D01*
G01*
G37*
G36*
G01*
X96975351Y-88198232D02*
X97070810Y-88102773D01*
G75*
G02*
X97166270Y-88102773I47730J-47730D01*
G01*
X97367795Y-88304298D01*
G75*
G02*
X97367795Y-88399758I-47730J-47730D01*
G01*
X97272336Y-88495217D01*
G75*
G02*
X97176876Y-88495217I-47730J47730D01*
G01*
X96975351Y-88293692D01*
G75*
G02*
X96975351Y-88198232I47730J47730D01*
G01*
G37*
G36*
G01*
X97328904Y-87844679D02*
X97424363Y-87749220D01*
G75*
G02*
X97519823Y-87749220I47730J-47730D01*
G01*
X97721348Y-87950745D01*
G75*
G02*
X97721348Y-88046205I-47730J-47730D01*
G01*
X97625889Y-88141664D01*
G75*
G02*
X97530429Y-88141664I-47730J47730D01*
G01*
X97328904Y-87940139D01*
G75*
G02*
X97328904Y-87844679I47730J47730D01*
G01*
G37*
G36*
G01*
X97682458Y-87491125D02*
X97777917Y-87395666D01*
G75*
G02*
X97873377Y-87395666I47730J-47730D01*
G01*
X98074902Y-87597191D01*
G75*
G02*
X98074902Y-87692651I-47730J-47730D01*
G01*
X97979443Y-87788110D01*
G75*
G02*
X97883983Y-87788110I-47730J47730D01*
G01*
X97682458Y-87586585D01*
G75*
G02*
X97682458Y-87491125I47730J47730D01*
G01*
G37*
G36*
G01*
X98036011Y-87137572D02*
X98131470Y-87042113D01*
G75*
G02*
X98226930Y-87042113I47730J-47730D01*
G01*
X98428455Y-87243638D01*
G75*
G02*
X98428455Y-87339098I-47730J-47730D01*
G01*
X98332996Y-87434557D01*
G75*
G02*
X98237536Y-87434557I-47730J47730D01*
G01*
X98036011Y-87233032D01*
G75*
G02*
X98036011Y-87137572I47730J47730D01*
G01*
G37*
G36*
G01*
X98389564Y-86784018D02*
X98485023Y-86688559D01*
G75*
G02*
X98580483Y-86688559I47730J-47730D01*
G01*
X98782008Y-86890084D01*
G75*
G02*
X98782008Y-86985544I-47730J-47730D01*
G01*
X98686549Y-87081003D01*
G75*
G02*
X98591089Y-87081003I-47730J47730D01*
G01*
X98389564Y-86879478D01*
G75*
G02*
X98389564Y-86784018I47730J47730D01*
G01*
G37*
G36*
G01*
X98743118Y-86430465D02*
X98838577Y-86335006D01*
G75*
G02*
X98934037Y-86335006I47730J-47730D01*
G01*
X99135562Y-86536531D01*
G75*
G02*
X99135562Y-86631991I-47730J-47730D01*
G01*
X99040103Y-86727450D01*
G75*
G02*
X98944643Y-86727450I-47730J47730D01*
G01*
X98743118Y-86525925D01*
G75*
G02*
X98743118Y-86430465I47730J47730D01*
G01*
G37*
G36*
G01*
X99096671Y-86076912D02*
X99192130Y-85981453D01*
G75*
G02*
X99287590Y-85981453I47730J-47730D01*
G01*
X99489115Y-86182978D01*
G75*
G02*
X99489115Y-86278438I-47730J-47730D01*
G01*
X99393656Y-86373897D01*
G75*
G02*
X99298196Y-86373897I-47730J47730D01*
G01*
X99096671Y-86172372D01*
G75*
G02*
X99096671Y-86076912I47730J47730D01*
G01*
G37*
G36*
G01*
X99450225Y-85723358D02*
X99545684Y-85627899D01*
G75*
G02*
X99641144Y-85627899I47730J-47730D01*
G01*
X99842669Y-85829424D01*
G75*
G02*
X99842669Y-85924884I-47730J-47730D01*
G01*
X99747210Y-86020343D01*
G75*
G02*
X99651750Y-86020343I-47730J47730D01*
G01*
X99450225Y-85818818D01*
G75*
G02*
X99450225Y-85723358I47730J47730D01*
G01*
G37*
G36*
G01*
X95561137Y-90425618D02*
X95762662Y-90224093D01*
G75*
G02*
X95858122Y-90224093I47730J-47730D01*
G01*
X95953581Y-90319552D01*
G75*
G02*
X95953581Y-90415012I-47730J-47730D01*
G01*
X95752056Y-90616537D01*
G75*
G02*
X95656596Y-90616537I-47730J47730D01*
G01*
X95561137Y-90521078D01*
G75*
G02*
X95561137Y-90425618I47730J47730D01*
G01*
G37*
G36*
G01*
X100157331Y-94208640D02*
X100252790Y-94113181D01*
G75*
G02*
X100348250Y-94113181I47730J-47730D01*
G01*
X100549775Y-94314706D01*
G75*
G02*
X100549775Y-94410166I-47730J-47730D01*
G01*
X100454316Y-94505625D01*
G75*
G02*
X100358856Y-94505625I-47730J47730D01*
G01*
X100157331Y-94304100D01*
G75*
G02*
X100157331Y-94208640I47730J47730D01*
G01*
G37*
G36*
G01*
X104046419Y-89718512D02*
X104247944Y-89516987D01*
G75*
G02*
X104343404Y-89516987I47730J-47730D01*
G01*
X104438863Y-89612446D01*
G75*
G02*
X104438863Y-89707906I-47730J-47730D01*
G01*
X104237338Y-89909431D01*
G75*
G02*
X104141878Y-89909431I-47730J47730D01*
G01*
X104046419Y-89813972D01*
G75*
G02*
X104046419Y-89718512I47730J47730D01*
G01*
G37*
D11*
G36*
X96238192Y-90066762D02*
G01*
X100000000Y-86304954D01*
X103761808Y-90066762D01*
X100000000Y-93828570D01*
X96238192Y-90066762D01*
G37*
D12*
X107200000Y-121500000D03*
X91700000Y-76900000D03*
D13*
X105890000Y-108240000D03*
X105890000Y-110440000D03*
X104190000Y-110440000D03*
X104190000Y-108240000D03*
G36*
G01*
X93840000Y-108220000D02*
X93530000Y-108220000D01*
G75*
G02*
X93375000Y-108065000I0J155000D01*
G01*
X93375000Y-106405000D01*
G75*
G02*
X93530000Y-106250000I155000J0D01*
G01*
X93840000Y-106250000D01*
G75*
G02*
X93995000Y-106405000I0J-155000D01*
G01*
X93995000Y-108065000D01*
G75*
G02*
X93840000Y-108220000I-155000J0D01*
G01*
G37*
G36*
G01*
X95110000Y-108220000D02*
X94800000Y-108220000D01*
G75*
G02*
X94645000Y-108065000I0J155000D01*
G01*
X94645000Y-106405000D01*
G75*
G02*
X94800000Y-106250000I155000J0D01*
G01*
X95110000Y-106250000D01*
G75*
G02*
X95265000Y-106405000I0J-155000D01*
G01*
X95265000Y-108065000D01*
G75*
G02*
X95110000Y-108220000I-155000J0D01*
G01*
G37*
G36*
G01*
X96380000Y-108220000D02*
X96070000Y-108220000D01*
G75*
G02*
X95915000Y-108065000I0J155000D01*
G01*
X95915000Y-106405000D01*
G75*
G02*
X96070000Y-106250000I155000J0D01*
G01*
X96380000Y-106250000D01*
G75*
G02*
X96535000Y-106405000I0J-155000D01*
G01*
X96535000Y-108065000D01*
G75*
G02*
X96380000Y-108220000I-155000J0D01*
G01*
G37*
G36*
G01*
X97650000Y-108220000D02*
X97340000Y-108220000D01*
G75*
G02*
X97185000Y-108065000I0J155000D01*
G01*
X97185000Y-106405000D01*
G75*
G02*
X97340000Y-106250000I155000J0D01*
G01*
X97650000Y-106250000D01*
G75*
G02*
X97805000Y-106405000I0J-155000D01*
G01*
X97805000Y-108065000D01*
G75*
G02*
X97650000Y-108220000I-155000J0D01*
G01*
G37*
G36*
G01*
X98920000Y-108220000D02*
X98610000Y-108220000D01*
G75*
G02*
X98455000Y-108065000I0J155000D01*
G01*
X98455000Y-106405000D01*
G75*
G02*
X98610000Y-106250000I155000J0D01*
G01*
X98920000Y-106250000D01*
G75*
G02*
X99075000Y-106405000I0J-155000D01*
G01*
X99075000Y-108065000D01*
G75*
G02*
X98920000Y-108220000I-155000J0D01*
G01*
G37*
G36*
G01*
X100190000Y-108220000D02*
X99880000Y-108220000D01*
G75*
G02*
X99725000Y-108065000I0J155000D01*
G01*
X99725000Y-106405000D01*
G75*
G02*
X99880000Y-106250000I155000J0D01*
G01*
X100190000Y-106250000D01*
G75*
G02*
X100345000Y-106405000I0J-155000D01*
G01*
X100345000Y-108065000D01*
G75*
G02*
X100190000Y-108220000I-155000J0D01*
G01*
G37*
G36*
G01*
X101460000Y-108220000D02*
X101150000Y-108220000D01*
G75*
G02*
X100995000Y-108065000I0J155000D01*
G01*
X100995000Y-106405000D01*
G75*
G02*
X101150000Y-106250000I155000J0D01*
G01*
X101460000Y-106250000D01*
G75*
G02*
X101615000Y-106405000I0J-155000D01*
G01*
X101615000Y-108065000D01*
G75*
G02*
X101460000Y-108220000I-155000J0D01*
G01*
G37*
G36*
G01*
X102730000Y-108220000D02*
X102420000Y-108220000D01*
G75*
G02*
X102265000Y-108065000I0J155000D01*
G01*
X102265000Y-106405000D01*
G75*
G02*
X102420000Y-106250000I155000J0D01*
G01*
X102730000Y-106250000D01*
G75*
G02*
X102885000Y-106405000I0J-155000D01*
G01*
X102885000Y-108065000D01*
G75*
G02*
X102730000Y-108220000I-155000J0D01*
G01*
G37*
G36*
G01*
X102730000Y-113170000D02*
X102420000Y-113170000D01*
G75*
G02*
X102265000Y-113015000I0J155000D01*
G01*
X102265000Y-111355000D01*
G75*
G02*
X102420000Y-111200000I155000J0D01*
G01*
X102730000Y-111200000D01*
G75*
G02*
X102885000Y-111355000I0J-155000D01*
G01*
X102885000Y-113015000D01*
G75*
G02*
X102730000Y-113170000I-155000J0D01*
G01*
G37*
G36*
G01*
X101460000Y-113170000D02*
X101150000Y-113170000D01*
G75*
G02*
X100995000Y-113015000I0J155000D01*
G01*
X100995000Y-111355000D01*
G75*
G02*
X101150000Y-111200000I155000J0D01*
G01*
X101460000Y-111200000D01*
G75*
G02*
X101615000Y-111355000I0J-155000D01*
G01*
X101615000Y-113015000D01*
G75*
G02*
X101460000Y-113170000I-155000J0D01*
G01*
G37*
G36*
G01*
X100190000Y-113170000D02*
X99880000Y-113170000D01*
G75*
G02*
X99725000Y-113015000I0J155000D01*
G01*
X99725000Y-111355000D01*
G75*
G02*
X99880000Y-111200000I155000J0D01*
G01*
X100190000Y-111200000D01*
G75*
G02*
X100345000Y-111355000I0J-155000D01*
G01*
X100345000Y-113015000D01*
G75*
G02*
X100190000Y-113170000I-155000J0D01*
G01*
G37*
G36*
G01*
X98920000Y-113170000D02*
X98610000Y-113170000D01*
G75*
G02*
X98455000Y-113015000I0J155000D01*
G01*
X98455000Y-111355000D01*
G75*
G02*
X98610000Y-111200000I155000J0D01*
G01*
X98920000Y-111200000D01*
G75*
G02*
X99075000Y-111355000I0J-155000D01*
G01*
X99075000Y-113015000D01*
G75*
G02*
X98920000Y-113170000I-155000J0D01*
G01*
G37*
G36*
G01*
X97650000Y-113170000D02*
X97340000Y-113170000D01*
G75*
G02*
X97185000Y-113015000I0J155000D01*
G01*
X97185000Y-111355000D01*
G75*
G02*
X97340000Y-111200000I155000J0D01*
G01*
X97650000Y-111200000D01*
G75*
G02*
X97805000Y-111355000I0J-155000D01*
G01*
X97805000Y-113015000D01*
G75*
G02*
X97650000Y-113170000I-155000J0D01*
G01*
G37*
G36*
G01*
X96380000Y-113170000D02*
X96070000Y-113170000D01*
G75*
G02*
X95915000Y-113015000I0J155000D01*
G01*
X95915000Y-111355000D01*
G75*
G02*
X96070000Y-111200000I155000J0D01*
G01*
X96380000Y-111200000D01*
G75*
G02*
X96535000Y-111355000I0J-155000D01*
G01*
X96535000Y-113015000D01*
G75*
G02*
X96380000Y-113170000I-155000J0D01*
G01*
G37*
G36*
G01*
X95110000Y-113170000D02*
X94800000Y-113170000D01*
G75*
G02*
X94645000Y-113015000I0J155000D01*
G01*
X94645000Y-111355000D01*
G75*
G02*
X94800000Y-111200000I155000J0D01*
G01*
X95110000Y-111200000D01*
G75*
G02*
X95265000Y-111355000I0J-155000D01*
G01*
X95265000Y-113015000D01*
G75*
G02*
X95110000Y-113170000I-155000J0D01*
G01*
G37*
G36*
G01*
X93840000Y-113170000D02*
X93530000Y-113170000D01*
G75*
G02*
X93375000Y-113015000I0J155000D01*
G01*
X93375000Y-111355000D01*
G75*
G02*
X93530000Y-111200000I155000J0D01*
G01*
X93840000Y-111200000D01*
G75*
G02*
X93995000Y-111355000I0J-155000D01*
G01*
X93995000Y-113015000D01*
G75*
G02*
X93840000Y-113170000I-155000J0D01*
G01*
G37*
D14*
X95920000Y-102307000D03*
X95920000Y-101357000D03*
X95920000Y-103257000D03*
X93720000Y-103257000D03*
X93720000Y-102307000D03*
X93720000Y-101357000D03*
G36*
G01*
X106395000Y-118390000D02*
X108005000Y-118390000D01*
G75*
G02*
X108210000Y-118595000I0J-205000D01*
G01*
X108210000Y-119005000D01*
G75*
G02*
X108005000Y-119210000I-205000J0D01*
G01*
X106395000Y-119210000D01*
G75*
G02*
X106190000Y-119005000I0J205000D01*
G01*
X106190000Y-118595000D01*
G75*
G02*
X106395000Y-118390000I205000J0D01*
G01*
G37*
G36*
G01*
X106395000Y-122590000D02*
X108005000Y-122590000D01*
G75*
G02*
X108210000Y-122795000I0J-205000D01*
G01*
X108210000Y-123205000D01*
G75*
G02*
X108005000Y-123410000I-205000J0D01*
G01*
X106395000Y-123410000D01*
G75*
G02*
X106190000Y-123205000I0J205000D01*
G01*
X106190000Y-122795000D01*
G75*
G02*
X106395000Y-122590000I205000J0D01*
G01*
G37*
G36*
G01*
X91995000Y-118390000D02*
X93605000Y-118390000D01*
G75*
G02*
X93810000Y-118595000I0J-205000D01*
G01*
X93810000Y-119005000D01*
G75*
G02*
X93605000Y-119210000I-205000J0D01*
G01*
X91995000Y-119210000D01*
G75*
G02*
X91790000Y-119005000I0J205000D01*
G01*
X91790000Y-118595000D01*
G75*
G02*
X91995000Y-118390000I205000J0D01*
G01*
G37*
G36*
G01*
X91995000Y-122590000D02*
X93605000Y-122590000D01*
G75*
G02*
X93810000Y-122795000I0J-205000D01*
G01*
X93810000Y-123205000D01*
G75*
G02*
X93605000Y-123410000I-205000J0D01*
G01*
X91995000Y-123410000D01*
G75*
G02*
X91790000Y-123205000I0J205000D01*
G01*
X91790000Y-122795000D01*
G75*
G02*
X91995000Y-122590000I205000J0D01*
G01*
G37*
G36*
G01*
X93200500Y-86128000D02*
X92845500Y-86128000D01*
G75*
G02*
X92693000Y-85975500I0J152500D01*
G01*
X92693000Y-85670500D01*
G75*
G02*
X92845500Y-85518000I152500J0D01*
G01*
X93200500Y-85518000D01*
G75*
G02*
X93353000Y-85670500I0J-152500D01*
G01*
X93353000Y-85975500D01*
G75*
G02*
X93200500Y-86128000I-152500J0D01*
G01*
G37*
G36*
G01*
X93200500Y-87098000D02*
X92845500Y-87098000D01*
G75*
G02*
X92693000Y-86945500I0J152500D01*
G01*
X92693000Y-86640500D01*
G75*
G02*
X92845500Y-86488000I152500J0D01*
G01*
X93200500Y-86488000D01*
G75*
G02*
X93353000Y-86640500I0J-152500D01*
G01*
X93353000Y-86945500D01*
G75*
G02*
X93200500Y-87098000I-152500J0D01*
G01*
G37*
G36*
G01*
X103992500Y-102072000D02*
X104347500Y-102072000D01*
G75*
G02*
X104500000Y-102224500I0J-152500D01*
G01*
X104500000Y-102529500D01*
G75*
G02*
X104347500Y-102682000I-152500J0D01*
G01*
X103992500Y-102682000D01*
G75*
G02*
X103840000Y-102529500I0J152500D01*
G01*
X103840000Y-102224500D01*
G75*
G02*
X103992500Y-102072000I152500J0D01*
G01*
G37*
G36*
G01*
X103992500Y-101102000D02*
X104347500Y-101102000D01*
G75*
G02*
X104500000Y-101254500I0J-152500D01*
G01*
X104500000Y-101559500D01*
G75*
G02*
X104347500Y-101712000I-152500J0D01*
G01*
X103992500Y-101712000D01*
G75*
G02*
X103840000Y-101559500I0J152500D01*
G01*
X103840000Y-101254500D01*
G75*
G02*
X103992500Y-101102000I152500J0D01*
G01*
G37*
G36*
G01*
X107051500Y-108339000D02*
X107406500Y-108339000D01*
G75*
G02*
X107559000Y-108491500I0J-152500D01*
G01*
X107559000Y-108796500D01*
G75*
G02*
X107406500Y-108949000I-152500J0D01*
G01*
X107051500Y-108949000D01*
G75*
G02*
X106899000Y-108796500I0J152500D01*
G01*
X106899000Y-108491500D01*
G75*
G02*
X107051500Y-108339000I152500J0D01*
G01*
G37*
G36*
G01*
X107051500Y-107369000D02*
X107406500Y-107369000D01*
G75*
G02*
X107559000Y-107521500I0J-152500D01*
G01*
X107559000Y-107826500D01*
G75*
G02*
X107406500Y-107979000I-152500J0D01*
G01*
X107051500Y-107979000D01*
G75*
G02*
X106899000Y-107826500I0J152500D01*
G01*
X106899000Y-107521500D01*
G75*
G02*
X107051500Y-107369000I152500J0D01*
G01*
G37*
G36*
G01*
X107408500Y-111262000D02*
X107053500Y-111262000D01*
G75*
G02*
X106901000Y-111109500I0J152500D01*
G01*
X106901000Y-110804500D01*
G75*
G02*
X107053500Y-110652000I152500J0D01*
G01*
X107408500Y-110652000D01*
G75*
G02*
X107561000Y-110804500I0J-152500D01*
G01*
X107561000Y-111109500D01*
G75*
G02*
X107408500Y-111262000I-152500J0D01*
G01*
G37*
G36*
G01*
X107408500Y-112232000D02*
X107053500Y-112232000D01*
G75*
G02*
X106901000Y-112079500I0J152500D01*
G01*
X106901000Y-111774500D01*
G75*
G02*
X107053500Y-111622000I152500J0D01*
G01*
X107408500Y-111622000D01*
G75*
G02*
X107561000Y-111774500I0J-152500D01*
G01*
X107561000Y-112079500D01*
G75*
G02*
X107408500Y-112232000I-152500J0D01*
G01*
G37*
G36*
G01*
X93047500Y-105237000D02*
X93402500Y-105237000D01*
G75*
G02*
X93555000Y-105389500I0J-152500D01*
G01*
X93555000Y-105694500D01*
G75*
G02*
X93402500Y-105847000I-152500J0D01*
G01*
X93047500Y-105847000D01*
G75*
G02*
X92895000Y-105694500I0J152500D01*
G01*
X92895000Y-105389500D01*
G75*
G02*
X93047500Y-105237000I152500J0D01*
G01*
G37*
G36*
G01*
X93047500Y-104267000D02*
X93402500Y-104267000D01*
G75*
G02*
X93555000Y-104419500I0J-152500D01*
G01*
X93555000Y-104724500D01*
G75*
G02*
X93402500Y-104877000I-152500J0D01*
G01*
X93047500Y-104877000D01*
G75*
G02*
X92895000Y-104724500I0J152500D01*
G01*
X92895000Y-104419500D01*
G75*
G02*
X93047500Y-104267000I152500J0D01*
G01*
G37*
G36*
G01*
X95302500Y-104877000D02*
X94947500Y-104877000D01*
G75*
G02*
X94795000Y-104724500I0J152500D01*
G01*
X94795000Y-104419500D01*
G75*
G02*
X94947500Y-104267000I152500J0D01*
G01*
X95302500Y-104267000D01*
G75*
G02*
X95455000Y-104419500I0J-152500D01*
G01*
X95455000Y-104724500D01*
G75*
G02*
X95302500Y-104877000I-152500J0D01*
G01*
G37*
G36*
G01*
X95302500Y-105847000D02*
X94947500Y-105847000D01*
G75*
G02*
X94795000Y-105694500I0J152500D01*
G01*
X94795000Y-105389500D01*
G75*
G02*
X94947500Y-105237000I152500J0D01*
G01*
X95302500Y-105237000D01*
G75*
G02*
X95455000Y-105389500I0J-152500D01*
G01*
X95455000Y-105694500D01*
G75*
G02*
X95302500Y-105847000I-152500J0D01*
G01*
G37*
G36*
G01*
X107976821Y-89484844D02*
X108227844Y-89233821D01*
G75*
G02*
X108443512Y-89233821I107834J-107834D01*
G01*
X108659179Y-89449488D01*
G75*
G02*
X108659179Y-89665156I-107834J-107834D01*
G01*
X108408156Y-89916179D01*
G75*
G02*
X108192488Y-89916179I-107834J107834D01*
G01*
X107976821Y-89700512D01*
G75*
G02*
X107976821Y-89484844I107834J107834D01*
G01*
G37*
G36*
G01*
X107290927Y-88798950D02*
X107541950Y-88547927D01*
G75*
G02*
X107757618Y-88547927I107834J-107834D01*
G01*
X107973285Y-88763594D01*
G75*
G02*
X107973285Y-88979262I-107834J-107834D01*
G01*
X107722262Y-89230285D01*
G75*
G02*
X107506594Y-89230285I-107834J107834D01*
G01*
X107290927Y-89014618D01*
G75*
G02*
X107290927Y-88798950I107834J107834D01*
G01*
G37*
G36*
G01*
X101422500Y-115460000D02*
X101777500Y-115460000D01*
G75*
G02*
X101930000Y-115612500I0J-152500D01*
G01*
X101930000Y-115917500D01*
G75*
G02*
X101777500Y-116070000I-152500J0D01*
G01*
X101422500Y-116070000D01*
G75*
G02*
X101270000Y-115917500I0J152500D01*
G01*
X101270000Y-115612500D01*
G75*
G02*
X101422500Y-115460000I152500J0D01*
G01*
G37*
G36*
G01*
X101422500Y-114490000D02*
X101777500Y-114490000D01*
G75*
G02*
X101930000Y-114642500I0J-152500D01*
G01*
X101930000Y-114947500D01*
G75*
G02*
X101777500Y-115100000I-152500J0D01*
G01*
X101422500Y-115100000D01*
G75*
G02*
X101270000Y-114947500I0J152500D01*
G01*
X101270000Y-114642500D01*
G75*
G02*
X101422500Y-114490000I152500J0D01*
G01*
G37*
G36*
G01*
X98927500Y-115100000D02*
X98572500Y-115100000D01*
G75*
G02*
X98420000Y-114947500I0J152500D01*
G01*
X98420000Y-114642500D01*
G75*
G02*
X98572500Y-114490000I152500J0D01*
G01*
X98927500Y-114490000D01*
G75*
G02*
X99080000Y-114642500I0J-152500D01*
G01*
X99080000Y-114947500D01*
G75*
G02*
X98927500Y-115100000I-152500J0D01*
G01*
G37*
G36*
G01*
X98927500Y-116070000D02*
X98572500Y-116070000D01*
G75*
G02*
X98420000Y-115917500I0J152500D01*
G01*
X98420000Y-115612500D01*
G75*
G02*
X98572500Y-115460000I152500J0D01*
G01*
X98927500Y-115460000D01*
G75*
G02*
X99080000Y-115612500I0J-152500D01*
G01*
X99080000Y-115917500D01*
G75*
G02*
X98927500Y-116070000I-152500J0D01*
G01*
G37*
G36*
G01*
X97021500Y-103353000D02*
X97376500Y-103353000D01*
G75*
G02*
X97529000Y-103505500I0J-152500D01*
G01*
X97529000Y-103810500D01*
G75*
G02*
X97376500Y-103963000I-152500J0D01*
G01*
X97021500Y-103963000D01*
G75*
G02*
X96869000Y-103810500I0J152500D01*
G01*
X96869000Y-103505500D01*
G75*
G02*
X97021500Y-103353000I152500J0D01*
G01*
G37*
G36*
G01*
X97021500Y-102383000D02*
X97376500Y-102383000D01*
G75*
G02*
X97529000Y-102535500I0J-152500D01*
G01*
X97529000Y-102840500D01*
G75*
G02*
X97376500Y-102993000I-152500J0D01*
G01*
X97021500Y-102993000D01*
G75*
G02*
X96869000Y-102840500I0J152500D01*
G01*
X96869000Y-102535500D01*
G75*
G02*
X97021500Y-102383000I152500J0D01*
G01*
G37*
D15*
X106841000Y-103542000D03*
X107791000Y-105542000D03*
X105891000Y-105542000D03*
X105137000Y-115491000D03*
X104187000Y-113491000D03*
X106087000Y-113491000D03*
G36*
G01*
X100717000Y-103199000D02*
X100717000Y-101037000D01*
G75*
G02*
X100971000Y-100783000I254000J0D01*
G01*
X101733000Y-100783000D01*
G75*
G02*
X101987000Y-101037000I0J-254000D01*
G01*
X101987000Y-103199000D01*
G75*
G02*
X101733000Y-103453000I-254000J0D01*
G01*
X100971000Y-103453000D01*
G75*
G02*
X100717000Y-103199000I0J254000D01*
G01*
G37*
G36*
G01*
X97917000Y-103199000D02*
X97917000Y-101037000D01*
G75*
G02*
X98171000Y-100783000I254000J0D01*
G01*
X98933000Y-100783000D01*
G75*
G02*
X99187000Y-101037000I0J-254000D01*
G01*
X99187000Y-103199000D01*
G75*
G02*
X98933000Y-103453000I-254000J0D01*
G01*
X98171000Y-103453000D01*
G75*
G02*
X97917000Y-103199000I0J254000D01*
G01*
G37*
D16*
X103200000Y-117290000D03*
X102400000Y-117290000D03*
X103200000Y-117290000D03*
X102400000Y-117290000D03*
X96800000Y-117290000D03*
X96800000Y-117290000D03*
X97600000Y-117290000D03*
X97600000Y-117290000D03*
D17*
X97110000Y-118350000D03*
X102890000Y-118350000D03*
D18*
X101750000Y-117290000D03*
X100750000Y-117290000D03*
X101250000Y-117290000D03*
X98750000Y-117290000D03*
X98250000Y-117290000D03*
X100250000Y-117290000D03*
X99750000Y-117290000D03*
X99250000Y-117290000D03*
D19*
X104320000Y-122040000D03*
X95680000Y-122040000D03*
D20*
X104320000Y-117870000D03*
X95680000Y-117870000D03*
G36*
G01*
X104607500Y-104332000D02*
X104172500Y-104332000D01*
G75*
G02*
X103955000Y-104114500I0J217500D01*
G01*
X103955000Y-103304500D01*
G75*
G02*
X104172500Y-103087000I217500J0D01*
G01*
X104607500Y-103087000D01*
G75*
G02*
X104825000Y-103304500I0J-217500D01*
G01*
X104825000Y-104114500D01*
G75*
G02*
X104607500Y-104332000I-217500J0D01*
G01*
G37*
G36*
G01*
X104607500Y-105957000D02*
X104172500Y-105957000D01*
G75*
G02*
X103955000Y-105739500I0J217500D01*
G01*
X103955000Y-104929500D01*
G75*
G02*
X104172500Y-104712000I217500J0D01*
G01*
X104607500Y-104712000D01*
G75*
G02*
X104825000Y-104929500I0J-217500D01*
G01*
X104825000Y-105739500D01*
G75*
G02*
X104607500Y-105957000I-217500J0D01*
G01*
G37*
D10*
X102975000Y-104857000D03*
X99675000Y-104857000D03*
G36*
G01*
X95641768Y-86232791D02*
X95892791Y-85981768D01*
G75*
G02*
X96108459Y-85981768I107834J-107834D01*
G01*
X96324126Y-86197435D01*
G75*
G02*
X96324126Y-86413103I-107834J-107834D01*
G01*
X96073103Y-86664126D01*
G75*
G02*
X95857435Y-86664126I-107834J107834D01*
G01*
X95641768Y-86448459D01*
G75*
G02*
X95641768Y-86232791I107834J107834D01*
G01*
G37*
G36*
G01*
X94955874Y-85546897D02*
X95206897Y-85295874D01*
G75*
G02*
X95422565Y-85295874I107834J-107834D01*
G01*
X95638232Y-85511541D01*
G75*
G02*
X95638232Y-85727209I-107834J-107834D01*
G01*
X95387209Y-85978232D01*
G75*
G02*
X95171541Y-85978232I-107834J107834D01*
G01*
X94955874Y-85762565D01*
G75*
G02*
X94955874Y-85546897I107834J107834D01*
G01*
G37*
G36*
G01*
X103145685Y-86035148D02*
X103515149Y-85665685D01*
G75*
G02*
X103831579Y-85665685I158215J-158215D01*
G01*
X104148009Y-85982115D01*
G75*
G02*
X104148009Y-86298545I-158215J-158215D01*
G01*
X103778545Y-86668009D01*
G75*
G02*
X103462115Y-86668009I-158215J158215D01*
G01*
X103145685Y-86351579D01*
G75*
G02*
X103145685Y-86035149I158215J158215D01*
G01*
G37*
G36*
G01*
X102031991Y-84921454D02*
X102401455Y-84551991D01*
G75*
G02*
X102717885Y-84551991I158215J-158215D01*
G01*
X103034315Y-84868421D01*
G75*
G02*
X103034315Y-85184851I-158215J-158215D01*
G01*
X102664851Y-85554315D01*
G75*
G02*
X102348421Y-85554315I-158215J158215D01*
G01*
X102031991Y-85237885D01*
G75*
G02*
X102031991Y-84921455I158215J158215D01*
G01*
G37*
G36*
G01*
X92158500Y-86124000D02*
X91803500Y-86124000D01*
G75*
G02*
X91651000Y-85971500I0J152500D01*
G01*
X91651000Y-85666500D01*
G75*
G02*
X91803500Y-85514000I152500J0D01*
G01*
X92158500Y-85514000D01*
G75*
G02*
X92311000Y-85666500I0J-152500D01*
G01*
X92311000Y-85971500D01*
G75*
G02*
X92158500Y-86124000I-152500J0D01*
G01*
G37*
G36*
G01*
X92158500Y-87094000D02*
X91803500Y-87094000D01*
G75*
G02*
X91651000Y-86941500I0J152500D01*
G01*
X91651000Y-86636500D01*
G75*
G02*
X91803500Y-86484000I152500J0D01*
G01*
X92158500Y-86484000D01*
G75*
G02*
X92311000Y-86636500I0J-152500D01*
G01*
X92311000Y-86941500D01*
G75*
G02*
X92158500Y-87094000I-152500J0D01*
G01*
G37*
G36*
G01*
X106545000Y-106922500D02*
X106545000Y-106567500D01*
G75*
G02*
X106697500Y-106415000I152500J0D01*
G01*
X107002500Y-106415000D01*
G75*
G02*
X107155000Y-106567500I0J-152500D01*
G01*
X107155000Y-106922500D01*
G75*
G02*
X107002500Y-107075000I-152500J0D01*
G01*
X106697500Y-107075000D01*
G75*
G02*
X106545000Y-106922500I0J152500D01*
G01*
G37*
G36*
G01*
X105575000Y-106922500D02*
X105575000Y-106567500D01*
G75*
G02*
X105727500Y-106415000I152500J0D01*
G01*
X106032500Y-106415000D01*
G75*
G02*
X106185000Y-106567500I0J-152500D01*
G01*
X106185000Y-106922500D01*
G75*
G02*
X106032500Y-107075000I-152500J0D01*
G01*
X105727500Y-107075000D01*
G75*
G02*
X105575000Y-106922500I0J152500D01*
G01*
G37*
G36*
G01*
X93840500Y-117218000D02*
X94195500Y-117218000D01*
G75*
G02*
X94348000Y-117370500I0J-152500D01*
G01*
X94348000Y-117675500D01*
G75*
G02*
X94195500Y-117828000I-152500J0D01*
G01*
X93840500Y-117828000D01*
G75*
G02*
X93688000Y-117675500I0J152500D01*
G01*
X93688000Y-117370500D01*
G75*
G02*
X93840500Y-117218000I152500J0D01*
G01*
G37*
G36*
G01*
X93840500Y-116248000D02*
X94195500Y-116248000D01*
G75*
G02*
X94348000Y-116400500I0J-152500D01*
G01*
X94348000Y-116705500D01*
G75*
G02*
X94195500Y-116858000I-152500J0D01*
G01*
X93840500Y-116858000D01*
G75*
G02*
X93688000Y-116705500I0J152500D01*
G01*
X93688000Y-116400500D01*
G75*
G02*
X93840500Y-116248000I152500J0D01*
G01*
G37*
G36*
G01*
X94352500Y-104877000D02*
X93997500Y-104877000D01*
G75*
G02*
X93845000Y-104724500I0J152500D01*
G01*
X93845000Y-104419500D01*
G75*
G02*
X93997500Y-104267000I152500J0D01*
G01*
X94352500Y-104267000D01*
G75*
G02*
X94505000Y-104419500I0J-152500D01*
G01*
X94505000Y-104724500D01*
G75*
G02*
X94352500Y-104877000I-152500J0D01*
G01*
G37*
G36*
G01*
X94352500Y-105847000D02*
X93997500Y-105847000D01*
G75*
G02*
X93845000Y-105694500I0J152500D01*
G01*
X93845000Y-105389500D01*
G75*
G02*
X93997500Y-105237000I152500J0D01*
G01*
X94352500Y-105237000D01*
G75*
G02*
X94505000Y-105389500I0J-152500D01*
G01*
X94505000Y-105694500D01*
G75*
G02*
X94352500Y-105847000I-152500J0D01*
G01*
G37*
G36*
G01*
X103224250Y-101880000D02*
X102701750Y-101880000D01*
G75*
G02*
X102478000Y-101656250I0J223750D01*
G01*
X102478000Y-101208750D01*
G75*
G02*
X102701750Y-100985000I223750J0D01*
G01*
X103224250Y-100985000D01*
G75*
G02*
X103448000Y-101208750I0J-223750D01*
G01*
X103448000Y-101656250D01*
G75*
G02*
X103224250Y-101880000I-223750J0D01*
G01*
G37*
G36*
G01*
X103224250Y-103455000D02*
X102701750Y-103455000D01*
G75*
G02*
X102478000Y-103231250I0J223750D01*
G01*
X102478000Y-102783750D01*
G75*
G02*
X102701750Y-102560000I223750J0D01*
G01*
X103224250Y-102560000D01*
G75*
G02*
X103448000Y-102783750I0J-223750D01*
G01*
X103448000Y-103231250D01*
G75*
G02*
X103224250Y-103455000I-223750J0D01*
G01*
G37*
G36*
G01*
X92627500Y-107540000D02*
X92272500Y-107540000D01*
G75*
G02*
X92120000Y-107387500I0J152500D01*
G01*
X92120000Y-107082500D01*
G75*
G02*
X92272500Y-106930000I152500J0D01*
G01*
X92627500Y-106930000D01*
G75*
G02*
X92780000Y-107082500I0J-152500D01*
G01*
X92780000Y-107387500D01*
G75*
G02*
X92627500Y-107540000I-152500J0D01*
G01*
G37*
G36*
G01*
X92627500Y-108510000D02*
X92272500Y-108510000D01*
G75*
G02*
X92120000Y-108357500I0J152500D01*
G01*
X92120000Y-108052500D01*
G75*
G02*
X92272500Y-107900000I152500J0D01*
G01*
X92627500Y-107900000D01*
G75*
G02*
X92780000Y-108052500I0J-152500D01*
G01*
X92780000Y-108357500D01*
G75*
G02*
X92627500Y-108510000I-152500J0D01*
G01*
G37*
G36*
G01*
X98760000Y-114057500D02*
X98760000Y-113702500D01*
G75*
G02*
X98912500Y-113550000I152500J0D01*
G01*
X99217500Y-113550000D01*
G75*
G02*
X99370000Y-113702500I0J-152500D01*
G01*
X99370000Y-114057500D01*
G75*
G02*
X99217500Y-114210000I-152500J0D01*
G01*
X98912500Y-114210000D01*
G75*
G02*
X98760000Y-114057500I0J152500D01*
G01*
G37*
G36*
G01*
X97790000Y-114057500D02*
X97790000Y-113702500D01*
G75*
G02*
X97942500Y-113550000I152500J0D01*
G01*
X98247500Y-113550000D01*
G75*
G02*
X98400000Y-113702500I0J-152500D01*
G01*
X98400000Y-114057500D01*
G75*
G02*
X98247500Y-114210000I-152500J0D01*
G01*
X97942500Y-114210000D01*
G75*
G02*
X97790000Y-114057500I0J152500D01*
G01*
G37*
G36*
G01*
X105630000Y-111732500D02*
X105630000Y-112087500D01*
G75*
G02*
X105477500Y-112240000I-152500J0D01*
G01*
X105172500Y-112240000D01*
G75*
G02*
X105020000Y-112087500I0J152500D01*
G01*
X105020000Y-111732500D01*
G75*
G02*
X105172500Y-111580000I152500J0D01*
G01*
X105477500Y-111580000D01*
G75*
G02*
X105630000Y-111732500I0J-152500D01*
G01*
G37*
G36*
G01*
X106600000Y-111732500D02*
X106600000Y-112087500D01*
G75*
G02*
X106447500Y-112240000I-152500J0D01*
G01*
X106142500Y-112240000D01*
G75*
G02*
X105990000Y-112087500I0J152500D01*
G01*
X105990000Y-111732500D01*
G75*
G02*
X106142500Y-111580000I152500J0D01*
G01*
X106447500Y-111580000D01*
G75*
G02*
X106600000Y-111732500I0J-152500D01*
G01*
G37*
G36*
G01*
X96835000Y-104595750D02*
X96835000Y-105518250D01*
G75*
G02*
X96586250Y-105767000I-248750J0D01*
G01*
X96088750Y-105767000D01*
G75*
G02*
X95840000Y-105518250I0J248750D01*
G01*
X95840000Y-104595750D01*
G75*
G02*
X96088750Y-104347000I248750J0D01*
G01*
X96586250Y-104347000D01*
G75*
G02*
X96835000Y-104595750I0J-248750D01*
G01*
G37*
G36*
G01*
X98710000Y-104595750D02*
X98710000Y-105518250D01*
G75*
G02*
X98461250Y-105767000I-248750J0D01*
G01*
X97963750Y-105767000D01*
G75*
G02*
X97715000Y-105518250I0J248750D01*
G01*
X97715000Y-104595750D01*
G75*
G02*
X97963750Y-104347000I248750J0D01*
G01*
X98461250Y-104347000D01*
G75*
G02*
X98710000Y-104595750I0J-248750D01*
G01*
G37*
G36*
G01*
X104440000Y-106947500D02*
X104440000Y-106592500D01*
G75*
G02*
X104592500Y-106440000I152500J0D01*
G01*
X104897500Y-106440000D01*
G75*
G02*
X105050000Y-106592500I0J-152500D01*
G01*
X105050000Y-106947500D01*
G75*
G02*
X104897500Y-107100000I-152500J0D01*
G01*
X104592500Y-107100000D01*
G75*
G02*
X104440000Y-106947500I0J152500D01*
G01*
G37*
G36*
G01*
X103470000Y-106947500D02*
X103470000Y-106592500D01*
G75*
G02*
X103622500Y-106440000I152500J0D01*
G01*
X103927500Y-106440000D01*
G75*
G02*
X104080000Y-106592500I0J-152500D01*
G01*
X104080000Y-106947500D01*
G75*
G02*
X103927500Y-107100000I-152500J0D01*
G01*
X103622500Y-107100000D01*
G75*
G02*
X103470000Y-106947500I0J152500D01*
G01*
G37*
G36*
G01*
X97377500Y-101102000D02*
X97022500Y-101102000D01*
G75*
G02*
X96870000Y-100949500I0J152500D01*
G01*
X96870000Y-100644500D01*
G75*
G02*
X97022500Y-100492000I152500J0D01*
G01*
X97377500Y-100492000D01*
G75*
G02*
X97530000Y-100644500I0J-152500D01*
G01*
X97530000Y-100949500D01*
G75*
G02*
X97377500Y-101102000I-152500J0D01*
G01*
G37*
G36*
G01*
X97377500Y-102072000D02*
X97022500Y-102072000D01*
G75*
G02*
X96870000Y-101919500I0J152500D01*
G01*
X96870000Y-101614500D01*
G75*
G02*
X97022500Y-101462000I152500J0D01*
G01*
X97377500Y-101462000D01*
G75*
G02*
X97530000Y-101614500I0J-152500D01*
G01*
X97530000Y-101919500D01*
G75*
G02*
X97377500Y-102072000I-152500J0D01*
G01*
G37*
D21*
X111430000Y-122860000D03*
X111430000Y-120320000D03*
X111430000Y-117780000D03*
X111430000Y-115240000D03*
X111430000Y-112700000D03*
X111430000Y-110160000D03*
X111430000Y-107620000D03*
X111430000Y-105080000D03*
X111430000Y-102540000D03*
X111430000Y-100000000D03*
X111430000Y-97460000D03*
X111430000Y-94920000D03*
X111430000Y-92380000D03*
X111430000Y-89840000D03*
X111430000Y-87300000D03*
X111430000Y-84760000D03*
X111430000Y-82220000D03*
X111430000Y-79680000D03*
D22*
X111430000Y-77140000D03*
D21*
X88570000Y-122860000D03*
X88570000Y-120320000D03*
X88570000Y-117780000D03*
X88570000Y-115240000D03*
X88570000Y-112700000D03*
X88570000Y-110160000D03*
X88570000Y-107620000D03*
X88570000Y-105080000D03*
X88570000Y-102540000D03*
X88570000Y-100000000D03*
X88570000Y-97460000D03*
X88570000Y-94920000D03*
X88570000Y-92380000D03*
X88570000Y-89840000D03*
X88570000Y-87300000D03*
X88570000Y-84760000D03*
X88570000Y-82220000D03*
X88570000Y-79680000D03*
D22*
X88570000Y-77140000D03*
M02*
