G04 #@! TF.GenerationSoftware,KiCad,Pcbnew,5.1.6*
G04 #@! TF.CreationDate,2020-05-20T03:48:40+02:00*
G04 #@! TF.ProjectId,ESP32_Devkit_TypeC,45535033-325f-4446-9576-6b69745f5479,rev?*
G04 #@! TF.SameCoordinates,Original*
G04 #@! TF.FileFunction,Soldermask,Bot*
G04 #@! TF.FilePolarity,Negative*
%FSLAX46Y46*%
G04 Gerber Fmt 4.6, Leading zero omitted, Abs format (unit mm)*
G04 Created by KiCad (PCBNEW 5.1.6) date 2020-05-20 03:48:40*
%MOMM*%
%LPD*%
G01*
G04 APERTURE LIST*
%ADD10C,1.172000*%
%ADD11C,0.620000*%
%ADD12O,0.920000X1.720000*%
%ADD13O,0.920000X2.020000*%
%ADD14O,1.720000X1.720000*%
%ADD15R,1.720000X1.720000*%
G04 APERTURE END LIST*
D10*
X107200000Y-121500000D03*
X91700000Y-76900000D03*
D11*
X97110000Y-118350000D03*
X102890000Y-118350000D03*
D12*
X104320000Y-122040000D03*
X95680000Y-122040000D03*
D13*
X104320000Y-117870000D03*
X95680000Y-117870000D03*
D14*
X111430000Y-122860000D03*
X111430000Y-120320000D03*
X111430000Y-117780000D03*
X111430000Y-115240000D03*
X111430000Y-112700000D03*
X111430000Y-110160000D03*
X111430000Y-107620000D03*
X111430000Y-105080000D03*
X111430000Y-102540000D03*
X111430000Y-100000000D03*
X111430000Y-97460000D03*
X111430000Y-94920000D03*
X111430000Y-92380000D03*
X111430000Y-89840000D03*
X111430000Y-87300000D03*
X111430000Y-84760000D03*
X111430000Y-82220000D03*
X111430000Y-79680000D03*
D15*
X111430000Y-77140000D03*
D14*
X88570000Y-122860000D03*
X88570000Y-120320000D03*
X88570000Y-117780000D03*
X88570000Y-115240000D03*
X88570000Y-112700000D03*
X88570000Y-110160000D03*
X88570000Y-107620000D03*
X88570000Y-105080000D03*
X88570000Y-102540000D03*
X88570000Y-100000000D03*
X88570000Y-97460000D03*
X88570000Y-94920000D03*
X88570000Y-92380000D03*
X88570000Y-89840000D03*
X88570000Y-87300000D03*
X88570000Y-84760000D03*
X88570000Y-82220000D03*
X88570000Y-79680000D03*
D15*
X88570000Y-77140000D03*
M02*
