G04 #@! TF.GenerationSoftware,KiCad,Pcbnew,5.1.6*
G04 #@! TF.CreationDate,2020-05-31T12:40:07+02:00*
G04 #@! TF.ProjectId,ESP32_Devkit_TypeC,45535033-325f-4446-9576-6b69745f5479,rev?*
G04 #@! TF.SameCoordinates,Original*
G04 #@! TF.FileFunction,Copper,L2,Bot*
G04 #@! TF.FilePolarity,Positive*
%FSLAX46Y46*%
G04 Gerber Fmt 4.6, Leading zero omitted, Abs format (unit mm)*
G04 Created by KiCad (PCBNEW 5.1.6) date 2020-05-31 12:40:07*
%MOMM*%
%LPD*%
G01*
G04 APERTURE LIST*
G04 #@! TA.AperFunction,Conductor*
%ADD10R,0.900000X0.500000*%
G04 #@! TD*
G04 #@! TA.AperFunction,ViaPad*
%ADD11C,0.500000*%
G04 #@! TD*
G04 #@! TA.AperFunction,ComponentPad*
%ADD12O,0.900000X1.700000*%
G04 #@! TD*
G04 #@! TA.AperFunction,ComponentPad*
%ADD13O,0.900000X2.000000*%
G04 #@! TD*
G04 #@! TA.AperFunction,ComponentPad*
%ADD14O,1.700000X1.700000*%
G04 #@! TD*
G04 #@! TA.AperFunction,ComponentPad*
%ADD15R,1.700000X1.700000*%
G04 #@! TD*
G04 #@! TA.AperFunction,ViaPad*
%ADD16C,0.600000*%
G04 #@! TD*
G04 #@! TA.AperFunction,Conductor*
%ADD17C,0.500000*%
G04 #@! TD*
G04 #@! TA.AperFunction,Conductor*
%ADD18C,0.250000*%
G04 #@! TD*
G04 #@! TA.AperFunction,Conductor*
%ADD19C,0.127000*%
G04 #@! TD*
G04 #@! TA.AperFunction,Conductor*
%ADD20C,0.612000*%
G04 #@! TD*
G04 APERTURE END LIST*
D10*
X93350000Y-82350000D03*
D11*
X93350000Y-82350000D03*
D12*
X104320000Y-122040000D03*
X95680000Y-122040000D03*
D13*
X104320000Y-117870000D03*
X95680000Y-117870000D03*
D14*
X111430000Y-122860000D03*
X111430000Y-120320000D03*
X111430000Y-117780000D03*
X111430000Y-115240000D03*
X111430000Y-112700000D03*
X111430000Y-110160000D03*
X111430000Y-107620000D03*
X111430000Y-105080000D03*
X111430000Y-102540000D03*
X111430000Y-100000000D03*
X111430000Y-97460000D03*
X111430000Y-94920000D03*
X111430000Y-92380000D03*
X111430000Y-89840000D03*
X111430000Y-87300000D03*
X111430000Y-84760000D03*
X111430000Y-82220000D03*
X111430000Y-79680000D03*
D15*
X111430000Y-77140000D03*
D14*
X88570000Y-122860000D03*
X88570000Y-120320000D03*
X88570000Y-117780000D03*
X88570000Y-115240000D03*
X88570000Y-112700000D03*
X88570000Y-110160000D03*
X88570000Y-107620000D03*
X88570000Y-105080000D03*
X88570000Y-102540000D03*
X88570000Y-100000000D03*
X88570000Y-97460000D03*
X88570000Y-94920000D03*
X88570000Y-92380000D03*
X88570000Y-89840000D03*
X88570000Y-87300000D03*
X88570000Y-84760000D03*
X88570000Y-82220000D03*
X88570000Y-79680000D03*
D15*
X88570000Y-77140000D03*
D16*
X96550000Y-87300000D03*
X103350000Y-105400000D03*
X103350000Y-104700000D03*
X103350000Y-104700000D03*
X103300000Y-101150000D03*
X98850000Y-113600000D03*
X98600000Y-105700000D03*
X98600000Y-104700000D03*
X97400000Y-105700000D03*
X95000000Y-108100000D03*
X100000000Y-90000000D03*
X97000000Y-90000000D03*
X103000000Y-90000000D03*
X100000000Y-93000000D03*
X100000000Y-87000000D03*
X91978000Y-85840000D03*
X94200000Y-102382000D03*
X93500000Y-102182000D03*
X96610000Y-83910000D03*
X97190000Y-84210000D03*
X97840000Y-84290000D03*
X98460000Y-84520000D03*
X99020000Y-84880000D03*
X94870000Y-83910000D03*
X95170000Y-84500000D03*
X95620000Y-85010000D03*
X96200000Y-85410000D03*
X96860000Y-85650000D03*
X97550000Y-85740000D03*
X96250000Y-83350000D03*
X96140000Y-82700000D03*
X94720000Y-83260000D03*
X94760000Y-82590000D03*
X97750000Y-94190000D03*
X89260000Y-83590000D03*
X110650000Y-83450000D03*
X109540000Y-83980000D03*
X110760000Y-86050000D03*
X109090000Y-86160000D03*
X108800000Y-87830000D03*
X110300000Y-88000000D03*
X110200000Y-89200000D03*
X110300000Y-91100000D03*
X107900000Y-90300000D03*
X108800000Y-91500000D03*
X105300000Y-90600000D03*
X109650000Y-94100000D03*
X110400000Y-96400000D03*
X107900000Y-92400000D03*
X105700000Y-91800000D03*
X96200000Y-95900000D03*
X89100000Y-96200000D03*
X89200000Y-98700000D03*
X93700000Y-93100000D03*
X89300000Y-91100000D03*
X89300000Y-88500000D03*
X95200000Y-88500000D03*
X94600000Y-87900000D03*
X89200000Y-86000000D03*
X91500000Y-82400000D03*
X91500000Y-83500000D03*
X104800000Y-95200000D03*
X104200000Y-95900000D03*
X106600000Y-97100000D03*
X106000000Y-97800000D03*
X108600000Y-99200000D03*
X108600000Y-100400000D03*
X110600000Y-101300000D03*
X110150000Y-97800000D03*
X111000000Y-108900000D03*
X111000000Y-111400000D03*
X111100000Y-113950000D03*
X110900000Y-116450000D03*
X110850000Y-119000000D03*
X110900000Y-121550000D03*
X109700000Y-119350000D03*
X110350000Y-123600000D03*
X89300000Y-121650000D03*
X89300000Y-116350000D03*
X89050000Y-119000000D03*
X89050000Y-106300000D03*
X89000000Y-103800000D03*
X88950000Y-101250000D03*
X92300000Y-98120000D03*
X92200000Y-91720000D03*
X91200000Y-90700000D03*
X89100000Y-93700000D03*
X93800000Y-90100000D03*
X101900000Y-109600000D03*
X103100000Y-110100000D03*
X98100000Y-110800000D03*
X99400000Y-110800000D03*
X104800000Y-109500000D03*
X104000000Y-111600000D03*
X107700000Y-112600000D03*
X107700000Y-117300000D03*
X108500000Y-118100000D03*
X104000000Y-119600000D03*
X94000000Y-119600000D03*
X96200000Y-113600000D03*
X94600000Y-106300000D03*
X100600000Y-105300000D03*
X97400000Y-104700000D03*
X98000000Y-98700000D03*
X96600000Y-100200000D03*
X91600000Y-100300000D03*
X91100000Y-103800000D03*
X90800000Y-106000000D03*
X103100000Y-86500000D03*
X92800000Y-103900000D03*
X92100000Y-108000000D03*
X92900000Y-108100000D03*
X92100000Y-113500000D03*
X93200000Y-113500000D03*
X96800000Y-82400000D03*
X99340000Y-82400000D03*
X101880000Y-82400000D03*
X104420000Y-82400000D03*
X106960000Y-82400000D03*
X104900000Y-104800000D03*
X108600000Y-101850000D03*
X103400000Y-96650000D03*
X105950000Y-99200000D03*
X101750000Y-95000000D03*
X108550000Y-104300000D03*
X107100000Y-84600000D03*
X104750000Y-84800000D03*
X102000000Y-84200000D03*
X110900000Y-106300000D03*
X107750000Y-114700000D03*
X106950000Y-114700000D03*
X107750000Y-116250000D03*
X106950000Y-116250000D03*
X103150000Y-113750000D03*
X105150000Y-112950000D03*
X103350000Y-104000000D03*
X103300000Y-102000000D03*
X94950000Y-85700000D03*
X96030000Y-104997500D03*
X96590000Y-105522000D03*
X93760000Y-114490000D03*
X93420000Y-115060000D03*
X94675000Y-105482000D03*
X100850000Y-104502000D03*
X96803000Y-95247000D03*
X96001164Y-94443164D03*
X93067000Y-85803000D03*
X97333000Y-95775000D03*
X97333000Y-95775000D03*
X101363000Y-99807000D03*
X101352000Y-100526000D03*
X103300000Y-84411000D03*
X103747000Y-84867000D03*
X105923000Y-88303000D03*
X96750000Y-86400000D03*
X94550000Y-95900000D03*
X107250000Y-87000000D03*
X102400000Y-114630000D03*
X97620000Y-114630000D03*
X102400000Y-115500000D03*
X97600000Y-115500000D03*
X97600000Y-116400000D03*
X102400000Y-116400000D03*
X90016000Y-86038000D03*
X97949000Y-97833000D03*
X91981000Y-86789000D03*
X99753475Y-116460500D03*
X99539500Y-115429500D03*
X104170000Y-94647000D03*
X103393000Y-94517000D03*
X102644336Y-94470664D03*
X107427664Y-97125336D03*
X108179000Y-97313000D03*
X108979500Y-97345836D03*
X103250674Y-100383326D03*
X108345490Y-107209000D03*
X108282510Y-106424807D03*
X105620000Y-103760000D03*
X104965000Y-88692000D03*
X106215000Y-89940000D03*
X108060000Y-87910000D03*
X105300000Y-85430000D03*
X104068164Y-87778164D03*
X107316000Y-88596000D03*
X105221806Y-88011867D03*
X107950000Y-85930499D03*
X106887203Y-86346469D03*
X106510000Y-85140000D03*
X96226000Y-110504000D03*
X109639000Y-85458000D03*
X109628000Y-88550000D03*
X108491836Y-84741836D03*
X107239000Y-109765000D03*
X104303000Y-112693000D03*
X100893000Y-110205000D03*
X107792010Y-109280990D03*
X101217000Y-109000000D03*
X95556000Y-109980000D03*
X108700000Y-90000000D03*
X106850000Y-106745000D03*
X108282510Y-109991000D03*
X105136000Y-114736000D03*
X100114000Y-100065000D03*
D17*
X96065500Y-104997500D02*
X96590000Y-105522000D01*
X96030000Y-104997500D02*
X96065500Y-104997500D01*
X93760000Y-114490000D02*
X93760000Y-114720000D01*
X93760000Y-114720000D02*
X93420000Y-115060000D01*
D18*
X93760000Y-108352000D02*
X96590000Y-105522000D01*
X93760000Y-114490000D02*
X93760000Y-108352000D01*
D19*
X94925000Y-105232000D02*
X94675000Y-105482000D01*
X95650000Y-104507000D02*
X94925000Y-105232000D01*
X100845000Y-104507000D02*
X100850000Y-104502000D01*
D17*
X96803000Y-95247000D02*
X96803000Y-95245000D01*
X96803000Y-95245000D02*
X96001164Y-94443164D01*
D18*
X97333000Y-95775000D02*
X97331000Y-95775000D01*
D17*
X97331000Y-95775000D02*
X96803000Y-95247000D01*
X101352000Y-99818000D02*
X101363000Y-99807000D01*
X101352000Y-100526000D02*
X101352000Y-99818000D01*
X101363000Y-99807000D02*
X107054000Y-94116000D01*
X107054000Y-89777038D02*
X105923000Y-88646038D01*
X107054000Y-94116000D02*
X107054000Y-89777038D01*
X103747000Y-84867000D02*
X103300000Y-84411000D01*
X89920000Y-77140000D02*
X90745000Y-77965000D01*
X88570000Y-77140000D02*
X89920000Y-77140000D01*
X90745000Y-89187000D02*
X96001164Y-94443164D01*
X90745000Y-87318000D02*
X90745000Y-89187000D01*
X93597000Y-86333000D02*
X93067000Y-85803000D01*
X92585264Y-84897000D02*
X90746000Y-84897000D01*
X93067000Y-85378736D02*
X92585264Y-84897000D01*
X90745000Y-87318000D02*
X90746000Y-84897000D01*
X93067000Y-85803000D02*
X93067000Y-85378736D01*
X90746000Y-84897000D02*
X90745000Y-77965000D01*
X105923000Y-88646038D02*
X105923000Y-88303000D01*
D19*
X95650000Y-104507000D02*
X96407000Y-104507000D01*
X96407000Y-104507000D02*
X97109499Y-105209499D01*
X99718237Y-105209499D02*
X97109499Y-105209499D01*
X100850000Y-104502000D02*
X100425736Y-104502000D01*
X100425736Y-104502000D02*
X99718237Y-105209499D01*
D17*
X93664000Y-86400000D02*
X93597000Y-86333000D01*
X96750000Y-86400000D02*
X93664000Y-86400000D01*
X105923000Y-88303000D02*
X105923000Y-87673000D01*
X105923000Y-87673000D02*
X104850000Y-86600000D01*
X104850000Y-85970000D02*
X103747000Y-84867000D01*
X104850000Y-86600000D02*
X104850000Y-85970000D01*
D20*
X102400000Y-114630000D02*
X97620000Y-114630000D01*
D17*
X97620000Y-115480000D02*
X97600000Y-115500000D01*
D20*
X102400000Y-115500000D02*
X102400000Y-114630000D01*
X97600000Y-114650000D02*
X97620000Y-114630000D01*
X97600000Y-115500000D02*
X97600000Y-114650000D01*
X97600000Y-115500000D02*
X97600000Y-116400000D01*
X102400000Y-115500000D02*
X102400000Y-116400000D01*
D19*
X88570000Y-79680000D02*
X90016000Y-81126000D01*
X90016000Y-81126000D02*
X90016000Y-86038000D01*
X97949000Y-95162000D02*
X97949000Y-97833000D01*
X91981000Y-86789000D02*
X91981000Y-89194000D01*
X91981000Y-89194000D02*
X97949000Y-95162000D01*
X99539500Y-115429500D02*
X99753475Y-115643475D01*
X99753475Y-115772919D02*
X99753475Y-116460500D01*
X99753475Y-115643475D02*
X99753475Y-115772919D01*
X104170000Y-94647000D02*
X104170000Y-95129000D01*
X104170000Y-95129000D02*
X91512000Y-107787000D01*
X91512000Y-107787000D02*
X91512000Y-117352000D01*
X91512000Y-117352000D02*
X88523000Y-120341000D01*
X103393000Y-94941264D02*
X90900000Y-107434264D01*
X103393000Y-94517000D02*
X103393000Y-94941264D01*
X90900000Y-107434264D02*
X90900000Y-115498000D01*
X90900000Y-115498000D02*
X88694000Y-117704000D01*
X102644336Y-94894928D02*
X90363000Y-107176264D01*
X102644336Y-94470664D02*
X102644336Y-94894928D01*
X90363000Y-107176264D02*
X90363000Y-113481000D01*
X90363000Y-113481000D02*
X88557000Y-115287000D01*
X111430000Y-122860000D02*
X109137000Y-120567000D01*
X107427664Y-97287606D02*
X107427664Y-97125336D01*
X109137000Y-120567000D02*
X109137000Y-98996942D01*
X109137000Y-98996942D02*
X107427664Y-97287606D01*
X111430000Y-120320000D02*
X109611000Y-118501000D01*
X109611000Y-118501000D02*
X109611000Y-98745000D01*
X109611000Y-98745000D02*
X108179000Y-97313000D01*
X111430000Y-117780000D02*
X110063000Y-116413000D01*
X110063000Y-116413000D02*
X110063000Y-98429336D01*
X110063000Y-98429336D02*
X108979500Y-97345836D01*
X103250674Y-100383326D02*
X105099000Y-102231652D01*
X105099000Y-102231652D02*
X105099000Y-103962510D01*
X105099000Y-103962510D02*
X108345490Y-107209000D01*
X105799000Y-103941297D02*
X108282510Y-106424807D01*
X105799000Y-103939000D02*
X105620000Y-103760000D01*
X105799000Y-103941297D02*
X105799000Y-103939000D01*
X104965000Y-88692000D02*
X106213000Y-89940000D01*
X106213000Y-89940000D02*
X106215000Y-89940000D01*
X108060000Y-87710000D02*
X108060000Y-87910000D01*
X108060000Y-86793324D02*
X108060000Y-87910000D01*
X107066676Y-85800000D02*
X108060000Y-86793324D01*
X106250000Y-85800000D02*
X107066676Y-85800000D01*
X105880000Y-85430000D02*
X106250000Y-85800000D01*
X105300000Y-85430000D02*
X105880000Y-85430000D01*
X104068164Y-87778164D02*
X104988103Y-87778164D01*
X104988103Y-87778164D02*
X105221806Y-88011867D01*
X109319501Y-87300000D02*
X107950000Y-85930499D01*
X111430000Y-87300000D02*
X109319501Y-87300000D01*
X106887203Y-88167203D02*
X107316000Y-88596000D01*
X106887203Y-86346469D02*
X106450000Y-86783672D01*
X106450000Y-87730000D02*
X106887203Y-88167203D01*
X106450000Y-86783672D02*
X106450000Y-87730000D01*
X106510000Y-85140000D02*
X106809999Y-85439999D01*
X110850001Y-85439999D02*
X111440000Y-84850000D01*
X109620999Y-85439999D02*
X109639000Y-85458000D01*
X109620999Y-85439999D02*
X110850001Y-85439999D01*
X106809999Y-85439999D02*
X109620999Y-85439999D01*
X102760173Y-100147885D02*
X102760173Y-105263827D01*
X97520000Y-110504000D02*
X96226000Y-110504000D01*
X109628000Y-88550000D02*
X109628000Y-93280058D01*
X102760173Y-105263827D02*
X97520000Y-110504000D01*
X109628000Y-93280058D02*
X102760173Y-100147885D01*
X110050000Y-81060000D02*
X111430000Y-79680000D01*
X110050000Y-82744058D02*
X110050000Y-81060000D01*
X108491836Y-84302222D02*
X110050000Y-82744058D01*
X108491836Y-84741836D02*
X108491836Y-84302222D01*
X107239000Y-109765000D02*
X104311000Y-112693000D01*
X104311000Y-112693000D02*
X104303000Y-112693000D01*
X101815000Y-110205000D02*
X104303000Y-112693000D01*
X100893000Y-110205000D02*
X101815000Y-110205000D01*
X101212999Y-109000001D02*
X107511021Y-109000001D01*
X107511021Y-109000001D02*
X107792010Y-109280990D01*
X101216999Y-109000001D02*
X101217000Y-109000000D01*
X101212999Y-109000001D02*
X101216999Y-109000001D01*
X109137500Y-90824264D02*
X109373990Y-91060754D01*
X109373990Y-91060754D02*
X109373990Y-93174844D01*
X102483000Y-105117000D02*
X102484000Y-105118000D01*
X109373990Y-93174844D02*
X102483000Y-100065834D01*
X102483000Y-100065834D02*
X102483000Y-105117000D01*
X102484000Y-105118000D02*
X102484000Y-105180776D01*
X102484000Y-105180776D02*
X97684776Y-109980000D01*
X97684776Y-109980000D02*
X95556000Y-109980000D01*
X109137500Y-90437500D02*
X108700000Y-90000000D01*
X109137500Y-90824264D02*
X109137500Y-90437500D01*
X106850000Y-106745000D02*
X107145000Y-106745000D01*
X108282510Y-107882510D02*
X108282510Y-109991000D01*
X107145000Y-106745000D02*
X108282510Y-107882510D01*
X105136000Y-114736000D02*
X102380000Y-111980000D01*
X102380000Y-111980000D02*
X96050000Y-111980000D01*
X96050000Y-111980000D02*
X94675000Y-110605000D01*
X94675000Y-110605000D02*
X94675000Y-109549000D01*
X94675000Y-109549000D02*
X95952000Y-108272000D01*
X95952000Y-108272000D02*
X98452000Y-108272000D01*
X98452000Y-108272000D02*
X101713000Y-105011000D01*
X101713000Y-105011000D02*
X101713000Y-102836000D01*
X101713000Y-102836000D02*
X100111000Y-101234000D01*
X100111000Y-100068000D02*
X100114000Y-100065000D01*
X100111000Y-101234000D02*
X100111000Y-100068000D01*
G36*
X112454500Y-79497081D02*
G01*
X112430515Y-79376497D01*
X112352080Y-79187138D01*
X112238209Y-79016720D01*
X112093280Y-78871791D01*
X111922862Y-78757920D01*
X111733503Y-78679485D01*
X111532480Y-78639500D01*
X111327520Y-78639500D01*
X111126497Y-78679485D01*
X110937138Y-78757920D01*
X110766720Y-78871791D01*
X110621791Y-79016720D01*
X110507920Y-79187138D01*
X110429485Y-79376497D01*
X110389500Y-79577520D01*
X110389500Y-79782480D01*
X110429485Y-79983503D01*
X110507920Y-80172862D01*
X110535961Y-80214828D01*
X109879204Y-80871586D01*
X109869528Y-80879527D01*
X109861587Y-80889203D01*
X109861578Y-80889212D01*
X109837786Y-80918204D01*
X109814200Y-80962329D01*
X109799677Y-81010208D01*
X109794773Y-81060000D01*
X109796001Y-81072468D01*
X109796000Y-82638848D01*
X108321040Y-84113808D01*
X108311364Y-84121749D01*
X108303423Y-84131425D01*
X108303414Y-84131434D01*
X108279622Y-84160426D01*
X108256036Y-84204551D01*
X108241513Y-84252430D01*
X108236609Y-84302222D01*
X108237837Y-84314690D01*
X108237837Y-84321634D01*
X108179161Y-84360840D01*
X108110840Y-84429161D01*
X108057161Y-84509497D01*
X108020186Y-84598763D01*
X108001336Y-84693526D01*
X108001336Y-84790146D01*
X108020186Y-84884909D01*
X108057161Y-84974175D01*
X108110840Y-85054511D01*
X108179161Y-85122832D01*
X108259497Y-85176511D01*
X108282403Y-85185999D01*
X107000500Y-85185999D01*
X107000500Y-85091690D01*
X106981650Y-84996927D01*
X106944675Y-84907661D01*
X106890996Y-84827325D01*
X106822675Y-84759004D01*
X106742339Y-84705325D01*
X106653073Y-84668350D01*
X106558310Y-84649500D01*
X106461690Y-84649500D01*
X106366927Y-84668350D01*
X106277661Y-84705325D01*
X106197325Y-84759004D01*
X106129004Y-84827325D01*
X106075325Y-84907661D01*
X106038350Y-84996927D01*
X106019500Y-85091690D01*
X106019500Y-85188310D01*
X106026059Y-85221284D01*
X106021797Y-85217786D01*
X105977672Y-85194200D01*
X105929793Y-85179676D01*
X105892469Y-85176000D01*
X105892458Y-85176000D01*
X105880000Y-85174773D01*
X105867542Y-85176000D01*
X105720202Y-85176000D01*
X105680996Y-85117325D01*
X105612675Y-85049004D01*
X105532339Y-84995325D01*
X105443073Y-84958350D01*
X105348310Y-84939500D01*
X105251690Y-84939500D01*
X105156927Y-84958350D01*
X105067661Y-84995325D01*
X104987325Y-85049004D01*
X104919004Y-85117325D01*
X104865325Y-85197661D01*
X104828350Y-85286927D01*
X104821969Y-85319008D01*
X104212826Y-84709865D01*
X104181675Y-84634661D01*
X104127996Y-84554325D01*
X104059675Y-84486004D01*
X103979339Y-84432325D01*
X103909317Y-84403321D01*
X103768032Y-84259192D01*
X103734675Y-84178661D01*
X103680996Y-84098325D01*
X103612675Y-84030004D01*
X103532339Y-83976325D01*
X103443073Y-83939350D01*
X103348310Y-83920500D01*
X103251690Y-83920500D01*
X103156927Y-83939350D01*
X103067661Y-83976325D01*
X102987325Y-84030004D01*
X102919004Y-84098325D01*
X102865325Y-84178661D01*
X102828350Y-84267927D01*
X102809500Y-84362690D01*
X102809500Y-84459310D01*
X102828350Y-84554073D01*
X102865325Y-84643339D01*
X102919004Y-84723675D01*
X102987325Y-84791996D01*
X103067661Y-84845675D01*
X103137684Y-84874679D01*
X103278968Y-85018809D01*
X103312325Y-85099339D01*
X103366004Y-85179675D01*
X103434325Y-85247996D01*
X103514661Y-85301675D01*
X103589865Y-85332826D01*
X104409501Y-86152462D01*
X104409500Y-86578371D01*
X104407370Y-86600000D01*
X104409500Y-86621629D01*
X104409500Y-86621635D01*
X104415874Y-86686352D01*
X104441062Y-86769387D01*
X104481966Y-86845912D01*
X104537013Y-86912987D01*
X104553822Y-86926782D01*
X105152569Y-87525530D01*
X105078733Y-87540217D01*
X105078718Y-87540223D01*
X105037896Y-87527840D01*
X105000572Y-87524164D01*
X105000561Y-87524164D01*
X104988103Y-87522937D01*
X104975645Y-87524164D01*
X104488366Y-87524164D01*
X104449160Y-87465489D01*
X104380839Y-87397168D01*
X104300503Y-87343489D01*
X104211237Y-87306514D01*
X104116474Y-87287664D01*
X104019854Y-87287664D01*
X103925091Y-87306514D01*
X103835825Y-87343489D01*
X103755489Y-87397168D01*
X103687168Y-87465489D01*
X103633489Y-87545825D01*
X103596514Y-87635091D01*
X103577664Y-87729854D01*
X103577664Y-87826474D01*
X103596514Y-87921237D01*
X103633489Y-88010503D01*
X103687168Y-88090839D01*
X103755489Y-88159160D01*
X103835825Y-88212839D01*
X103925091Y-88249814D01*
X104019854Y-88268664D01*
X104116474Y-88268664D01*
X104211237Y-88249814D01*
X104300503Y-88212839D01*
X104380839Y-88159160D01*
X104449160Y-88090839D01*
X104488366Y-88032164D01*
X104731306Y-88032164D01*
X104731306Y-88060177D01*
X104750156Y-88154940D01*
X104783792Y-88236146D01*
X104732661Y-88257325D01*
X104652325Y-88311004D01*
X104584004Y-88379325D01*
X104530325Y-88459661D01*
X104493350Y-88548927D01*
X104474500Y-88643690D01*
X104474500Y-88740310D01*
X104493350Y-88835073D01*
X104530325Y-88924339D01*
X104584004Y-89004675D01*
X104652325Y-89072996D01*
X104732661Y-89126675D01*
X104821927Y-89163650D01*
X104916690Y-89182500D01*
X105013310Y-89182500D01*
X105082522Y-89168732D01*
X105737936Y-89824146D01*
X105724500Y-89891690D01*
X105724500Y-89988310D01*
X105743350Y-90083073D01*
X105780325Y-90172339D01*
X105834004Y-90252675D01*
X105902325Y-90320996D01*
X105982661Y-90374675D01*
X106071927Y-90411650D01*
X106166690Y-90430500D01*
X106263310Y-90430500D01*
X106358073Y-90411650D01*
X106447339Y-90374675D01*
X106527675Y-90320996D01*
X106595996Y-90252675D01*
X106613501Y-90226477D01*
X106613500Y-93933539D01*
X101205866Y-99341174D01*
X101130661Y-99372325D01*
X101050325Y-99426004D01*
X100982004Y-99494325D01*
X100928325Y-99574661D01*
X100891350Y-99663927D01*
X100872500Y-99758690D01*
X100872500Y-99855310D01*
X100891350Y-99950073D01*
X100911501Y-99998721D01*
X100911500Y-100307723D01*
X100880350Y-100382927D01*
X100861500Y-100477690D01*
X100861500Y-100574310D01*
X100880350Y-100669073D01*
X100917325Y-100758339D01*
X100971004Y-100838675D01*
X101039325Y-100906996D01*
X101119661Y-100960675D01*
X101208927Y-100997650D01*
X101303690Y-101016500D01*
X101400310Y-101016500D01*
X101495073Y-100997650D01*
X101584339Y-100960675D01*
X101664675Y-100906996D01*
X101732996Y-100838675D01*
X101786675Y-100758339D01*
X101823650Y-100669073D01*
X101842500Y-100574310D01*
X101842500Y-100477690D01*
X101823650Y-100382927D01*
X101792500Y-100307724D01*
X101792500Y-100047084D01*
X101797675Y-100039339D01*
X101828826Y-99964134D01*
X107350185Y-94442776D01*
X107366987Y-94428987D01*
X107422034Y-94361913D01*
X107462938Y-94285388D01*
X107488126Y-94202353D01*
X107494500Y-94137636D01*
X107494500Y-94137627D01*
X107496630Y-94116001D01*
X107494500Y-94094375D01*
X107494500Y-89798667D01*
X107496630Y-89777038D01*
X107494500Y-89755409D01*
X107494500Y-89755402D01*
X107488126Y-89690685D01*
X107462938Y-89607650D01*
X107422034Y-89531125D01*
X107400860Y-89505325D01*
X107380779Y-89480856D01*
X107380777Y-89480854D01*
X107366987Y-89464051D01*
X107350183Y-89450261D01*
X106380399Y-88480477D01*
X106394650Y-88446073D01*
X106413500Y-88351310D01*
X106413500Y-88254690D01*
X106394650Y-88159927D01*
X106363500Y-88084724D01*
X106363500Y-88002710D01*
X106839268Y-88478478D01*
X106825500Y-88547690D01*
X106825500Y-88644310D01*
X106844350Y-88739073D01*
X106881325Y-88828339D01*
X106935004Y-88908675D01*
X107003325Y-88976996D01*
X107083661Y-89030675D01*
X107172927Y-89067650D01*
X107267690Y-89086500D01*
X107364310Y-89086500D01*
X107459073Y-89067650D01*
X107548339Y-89030675D01*
X107628675Y-88976996D01*
X107696996Y-88908675D01*
X107750675Y-88828339D01*
X107787650Y-88739073D01*
X107806500Y-88644310D01*
X107806500Y-88547690D01*
X107787650Y-88452927D01*
X107750675Y-88363661D01*
X107696996Y-88283325D01*
X107628675Y-88215004D01*
X107548339Y-88161325D01*
X107459073Y-88124350D01*
X107364310Y-88105500D01*
X107267690Y-88105500D01*
X107198478Y-88119268D01*
X106704000Y-87624790D01*
X106704000Y-86888882D01*
X106769681Y-86823201D01*
X106838893Y-86836969D01*
X106935513Y-86836969D01*
X107030276Y-86818119D01*
X107119542Y-86781144D01*
X107199878Y-86727465D01*
X107268199Y-86659144D01*
X107321878Y-86578808D01*
X107358853Y-86489542D01*
X107365183Y-86457717D01*
X107806000Y-86898534D01*
X107806001Y-87489798D01*
X107747325Y-87529004D01*
X107679004Y-87597325D01*
X107625325Y-87677661D01*
X107588350Y-87766927D01*
X107569500Y-87861690D01*
X107569500Y-87958310D01*
X107588350Y-88053073D01*
X107625325Y-88142339D01*
X107679004Y-88222675D01*
X107747325Y-88290996D01*
X107827661Y-88344675D01*
X107916927Y-88381650D01*
X108011690Y-88400500D01*
X108108310Y-88400500D01*
X108203073Y-88381650D01*
X108292339Y-88344675D01*
X108372675Y-88290996D01*
X108440996Y-88222675D01*
X108494675Y-88142339D01*
X108531650Y-88053073D01*
X108550500Y-87958310D01*
X108550500Y-87861690D01*
X108531650Y-87766927D01*
X108494675Y-87677661D01*
X108440996Y-87597325D01*
X108372675Y-87529004D01*
X108314000Y-87489798D01*
X108314000Y-86805781D01*
X108315227Y-86793323D01*
X108314000Y-86780865D01*
X108314000Y-86780855D01*
X108310324Y-86743531D01*
X108295800Y-86695652D01*
X108293489Y-86691328D01*
X108272214Y-86651526D01*
X108248421Y-86622535D01*
X108248419Y-86622533D01*
X108240473Y-86612851D01*
X108230791Y-86604905D01*
X108038826Y-86412940D01*
X108067522Y-86407231D01*
X109131087Y-87470797D01*
X109139028Y-87480473D01*
X109148704Y-87488414D01*
X109148712Y-87488422D01*
X109177704Y-87512214D01*
X109221829Y-87535800D01*
X109269708Y-87550324D01*
X109307032Y-87554000D01*
X109307043Y-87554000D01*
X109319501Y-87555227D01*
X109331959Y-87554000D01*
X110419638Y-87554000D01*
X110429485Y-87603503D01*
X110507920Y-87792862D01*
X110621791Y-87963280D01*
X110766720Y-88108209D01*
X110937138Y-88222080D01*
X111126497Y-88300515D01*
X111327520Y-88340500D01*
X111532480Y-88340500D01*
X111733503Y-88300515D01*
X111922862Y-88222080D01*
X112093280Y-88108209D01*
X112238209Y-87963280D01*
X112352080Y-87792862D01*
X112430515Y-87603503D01*
X112454500Y-87482918D01*
X112454500Y-89657082D01*
X112430515Y-89536497D01*
X112352080Y-89347138D01*
X112238209Y-89176720D01*
X112093280Y-89031791D01*
X111922862Y-88917920D01*
X111733503Y-88839485D01*
X111532480Y-88799500D01*
X111327520Y-88799500D01*
X111126497Y-88839485D01*
X110937138Y-88917920D01*
X110766720Y-89031791D01*
X110621791Y-89176720D01*
X110507920Y-89347138D01*
X110429485Y-89536497D01*
X110389500Y-89737520D01*
X110389500Y-89942480D01*
X110429485Y-90143503D01*
X110507920Y-90332862D01*
X110621791Y-90503280D01*
X110766720Y-90648209D01*
X110937138Y-90762080D01*
X111126497Y-90840515D01*
X111327520Y-90880500D01*
X111532480Y-90880500D01*
X111733503Y-90840515D01*
X111922862Y-90762080D01*
X112093280Y-90648209D01*
X112238209Y-90503280D01*
X112352080Y-90332862D01*
X112430515Y-90143503D01*
X112454500Y-90022918D01*
X112454500Y-94737083D01*
X112430515Y-94616497D01*
X112352080Y-94427138D01*
X112238209Y-94256720D01*
X112093280Y-94111791D01*
X111922862Y-93997920D01*
X111733503Y-93919485D01*
X111532480Y-93879500D01*
X111327520Y-93879500D01*
X111126497Y-93919485D01*
X110937138Y-93997920D01*
X110766720Y-94111791D01*
X110621791Y-94256720D01*
X110507920Y-94427138D01*
X110429485Y-94616497D01*
X110389500Y-94817520D01*
X110389500Y-95022480D01*
X110429485Y-95223503D01*
X110507920Y-95412862D01*
X110621791Y-95583280D01*
X110766720Y-95728209D01*
X110937138Y-95842080D01*
X111126497Y-95920515D01*
X111327520Y-95960500D01*
X111532480Y-95960500D01*
X111733503Y-95920515D01*
X111922862Y-95842080D01*
X112093280Y-95728209D01*
X112238209Y-95583280D01*
X112352080Y-95412862D01*
X112430515Y-95223503D01*
X112454500Y-95102917D01*
X112454500Y-97277083D01*
X112430515Y-97156497D01*
X112352080Y-96967138D01*
X112238209Y-96796720D01*
X112093280Y-96651791D01*
X111922862Y-96537920D01*
X111733503Y-96459485D01*
X111532480Y-96419500D01*
X111327520Y-96419500D01*
X111126497Y-96459485D01*
X110937138Y-96537920D01*
X110766720Y-96651791D01*
X110621791Y-96796720D01*
X110507920Y-96967138D01*
X110429485Y-97156497D01*
X110389500Y-97357520D01*
X110389500Y-97562480D01*
X110429485Y-97763503D01*
X110507920Y-97952862D01*
X110621791Y-98123280D01*
X110766720Y-98268209D01*
X110937138Y-98382080D01*
X111126497Y-98460515D01*
X111327520Y-98500500D01*
X111532480Y-98500500D01*
X111733503Y-98460515D01*
X111922862Y-98382080D01*
X112093280Y-98268209D01*
X112238209Y-98123280D01*
X112352080Y-97952862D01*
X112430515Y-97763503D01*
X112454500Y-97642917D01*
X112454500Y-99817083D01*
X112430515Y-99696497D01*
X112352080Y-99507138D01*
X112238209Y-99336720D01*
X112093280Y-99191791D01*
X111922862Y-99077920D01*
X111733503Y-98999485D01*
X111532480Y-98959500D01*
X111327520Y-98959500D01*
X111126497Y-98999485D01*
X110937138Y-99077920D01*
X110766720Y-99191791D01*
X110621791Y-99336720D01*
X110507920Y-99507138D01*
X110429485Y-99696497D01*
X110389500Y-99897520D01*
X110389500Y-100102480D01*
X110429485Y-100303503D01*
X110507920Y-100492862D01*
X110621791Y-100663280D01*
X110766720Y-100808209D01*
X110937138Y-100922080D01*
X111126497Y-101000515D01*
X111327520Y-101040500D01*
X111532480Y-101040500D01*
X111733503Y-101000515D01*
X111922862Y-100922080D01*
X112093280Y-100808209D01*
X112238209Y-100663280D01*
X112352080Y-100492862D01*
X112430515Y-100303503D01*
X112454501Y-100182917D01*
X112454501Y-102357083D01*
X112430515Y-102236497D01*
X112352080Y-102047138D01*
X112238209Y-101876720D01*
X112093280Y-101731791D01*
X111922862Y-101617920D01*
X111733503Y-101539485D01*
X111532480Y-101499500D01*
X111327520Y-101499500D01*
X111126497Y-101539485D01*
X110937138Y-101617920D01*
X110766720Y-101731791D01*
X110621791Y-101876720D01*
X110507920Y-102047138D01*
X110429485Y-102236497D01*
X110389500Y-102437520D01*
X110389500Y-102642480D01*
X110429485Y-102843503D01*
X110507920Y-103032862D01*
X110621791Y-103203280D01*
X110766720Y-103348209D01*
X110937138Y-103462080D01*
X111126497Y-103540515D01*
X111327520Y-103580500D01*
X111532480Y-103580500D01*
X111733503Y-103540515D01*
X111922862Y-103462080D01*
X112093280Y-103348209D01*
X112238209Y-103203280D01*
X112352080Y-103032862D01*
X112430515Y-102843503D01*
X112454501Y-102722917D01*
X112454501Y-104897084D01*
X112430515Y-104776497D01*
X112352080Y-104587138D01*
X112238209Y-104416720D01*
X112093280Y-104271791D01*
X111922862Y-104157920D01*
X111733503Y-104079485D01*
X111532480Y-104039500D01*
X111327520Y-104039500D01*
X111126497Y-104079485D01*
X110937138Y-104157920D01*
X110766720Y-104271791D01*
X110621791Y-104416720D01*
X110507920Y-104587138D01*
X110429485Y-104776497D01*
X110389500Y-104977520D01*
X110389500Y-105182480D01*
X110429485Y-105383503D01*
X110507920Y-105572862D01*
X110621791Y-105743280D01*
X110766720Y-105888209D01*
X110937138Y-106002080D01*
X111126497Y-106080515D01*
X111327520Y-106120500D01*
X111532480Y-106120500D01*
X111733503Y-106080515D01*
X111922862Y-106002080D01*
X112093280Y-105888209D01*
X112238209Y-105743280D01*
X112352080Y-105572862D01*
X112430515Y-105383503D01*
X112454501Y-105262916D01*
X112454501Y-107437084D01*
X112430515Y-107316497D01*
X112352080Y-107127138D01*
X112238209Y-106956720D01*
X112093280Y-106811791D01*
X111922862Y-106697920D01*
X111733503Y-106619485D01*
X111532480Y-106579500D01*
X111327520Y-106579500D01*
X111126497Y-106619485D01*
X110937138Y-106697920D01*
X110766720Y-106811791D01*
X110621791Y-106956720D01*
X110507920Y-107127138D01*
X110429485Y-107316497D01*
X110389500Y-107517520D01*
X110389500Y-107722480D01*
X110429485Y-107923503D01*
X110507920Y-108112862D01*
X110621791Y-108283280D01*
X110766720Y-108428209D01*
X110937138Y-108542080D01*
X111126497Y-108620515D01*
X111327520Y-108660500D01*
X111532480Y-108660500D01*
X111733503Y-108620515D01*
X111922862Y-108542080D01*
X112093280Y-108428209D01*
X112238209Y-108283280D01*
X112352080Y-108112862D01*
X112430515Y-107923503D01*
X112454501Y-107802916D01*
X112454501Y-109977084D01*
X112430515Y-109856497D01*
X112352080Y-109667138D01*
X112238209Y-109496720D01*
X112093280Y-109351791D01*
X111922862Y-109237920D01*
X111733503Y-109159485D01*
X111532480Y-109119500D01*
X111327520Y-109119500D01*
X111126497Y-109159485D01*
X110937138Y-109237920D01*
X110766720Y-109351791D01*
X110621791Y-109496720D01*
X110507920Y-109667138D01*
X110429485Y-109856497D01*
X110389500Y-110057520D01*
X110389500Y-110262480D01*
X110429485Y-110463503D01*
X110507920Y-110652862D01*
X110621791Y-110823280D01*
X110766720Y-110968209D01*
X110937138Y-111082080D01*
X111126497Y-111160515D01*
X111327520Y-111200500D01*
X111532480Y-111200500D01*
X111733503Y-111160515D01*
X111922862Y-111082080D01*
X112093280Y-110968209D01*
X112238209Y-110823280D01*
X112352080Y-110652862D01*
X112430515Y-110463503D01*
X112454501Y-110342916D01*
X112454501Y-112517084D01*
X112430515Y-112396497D01*
X112352080Y-112207138D01*
X112238209Y-112036720D01*
X112093280Y-111891791D01*
X111922862Y-111777920D01*
X111733503Y-111699485D01*
X111532480Y-111659500D01*
X111327520Y-111659500D01*
X111126497Y-111699485D01*
X110937138Y-111777920D01*
X110766720Y-111891791D01*
X110621791Y-112036720D01*
X110507920Y-112207138D01*
X110429485Y-112396497D01*
X110389500Y-112597520D01*
X110389500Y-112802480D01*
X110429485Y-113003503D01*
X110507920Y-113192862D01*
X110621791Y-113363280D01*
X110766720Y-113508209D01*
X110937138Y-113622080D01*
X111126497Y-113700515D01*
X111327520Y-113740500D01*
X111532480Y-113740500D01*
X111733503Y-113700515D01*
X111922862Y-113622080D01*
X112093280Y-113508209D01*
X112238209Y-113363280D01*
X112352080Y-113192862D01*
X112430515Y-113003503D01*
X112454501Y-112882916D01*
X112454501Y-115057085D01*
X112430515Y-114936497D01*
X112352080Y-114747138D01*
X112238209Y-114576720D01*
X112093280Y-114431791D01*
X111922862Y-114317920D01*
X111733503Y-114239485D01*
X111532480Y-114199500D01*
X111327520Y-114199500D01*
X111126497Y-114239485D01*
X110937138Y-114317920D01*
X110766720Y-114431791D01*
X110621791Y-114576720D01*
X110507920Y-114747138D01*
X110429485Y-114936497D01*
X110389500Y-115137520D01*
X110389500Y-115342480D01*
X110429485Y-115543503D01*
X110507920Y-115732862D01*
X110621791Y-115903280D01*
X110766720Y-116048209D01*
X110937138Y-116162080D01*
X111126497Y-116240515D01*
X111327520Y-116280500D01*
X111532480Y-116280500D01*
X111733503Y-116240515D01*
X111922862Y-116162080D01*
X112093280Y-116048209D01*
X112238209Y-115903280D01*
X112352080Y-115732862D01*
X112430515Y-115543503D01*
X112454501Y-115422915D01*
X112454501Y-117597085D01*
X112430515Y-117476497D01*
X112352080Y-117287138D01*
X112238209Y-117116720D01*
X112093280Y-116971791D01*
X111922862Y-116857920D01*
X111733503Y-116779485D01*
X111532480Y-116739500D01*
X111327520Y-116739500D01*
X111126497Y-116779485D01*
X110937138Y-116857920D01*
X110895172Y-116885961D01*
X110317000Y-116307790D01*
X110317000Y-98441793D01*
X110318227Y-98429335D01*
X110317000Y-98416877D01*
X110317000Y-98416867D01*
X110313324Y-98379543D01*
X110298800Y-98331664D01*
X110294436Y-98323500D01*
X110275214Y-98287538D01*
X110251421Y-98258547D01*
X110251419Y-98258545D01*
X110243473Y-98248863D01*
X110233791Y-98240917D01*
X109456232Y-97463358D01*
X109470000Y-97394146D01*
X109470000Y-97297526D01*
X109451150Y-97202763D01*
X109414175Y-97113497D01*
X109360496Y-97033161D01*
X109292175Y-96964840D01*
X109211839Y-96911161D01*
X109122573Y-96874186D01*
X109027810Y-96855336D01*
X108931190Y-96855336D01*
X108836427Y-96874186D01*
X108747161Y-96911161D01*
X108666825Y-96964840D01*
X108598504Y-97033161D01*
X108590220Y-97045559D01*
X108559996Y-97000325D01*
X108491675Y-96932004D01*
X108411339Y-96878325D01*
X108322073Y-96841350D01*
X108227310Y-96822500D01*
X108130690Y-96822500D01*
X108035927Y-96841350D01*
X107946661Y-96878325D01*
X107875858Y-96925634D01*
X107862339Y-96892997D01*
X107808660Y-96812661D01*
X107740339Y-96744340D01*
X107660003Y-96690661D01*
X107570737Y-96653686D01*
X107475974Y-96634836D01*
X107379354Y-96634836D01*
X107284591Y-96653686D01*
X107195325Y-96690661D01*
X107114989Y-96744340D01*
X107046668Y-96812661D01*
X106992989Y-96892997D01*
X106956014Y-96982263D01*
X106937164Y-97077026D01*
X106937164Y-97173646D01*
X106956014Y-97268409D01*
X106992989Y-97357675D01*
X107046668Y-97438011D01*
X107114989Y-97506332D01*
X107195325Y-97560011D01*
X107284591Y-97596986D01*
X107379354Y-97615836D01*
X107396684Y-97615836D01*
X108883001Y-99102153D01*
X108883000Y-120554542D01*
X108881773Y-120567000D01*
X108883000Y-120579458D01*
X108883000Y-120579468D01*
X108886676Y-120616792D01*
X108901200Y-120664671D01*
X108924786Y-120708797D01*
X108938349Y-120725323D01*
X108948578Y-120737788D01*
X108948581Y-120737791D01*
X108956527Y-120747473D01*
X108966209Y-120755419D01*
X110535961Y-122325171D01*
X110507920Y-122367138D01*
X110429485Y-122556497D01*
X110389500Y-122757520D01*
X110389500Y-122962480D01*
X110429485Y-123163503D01*
X110507920Y-123352862D01*
X110621791Y-123523280D01*
X110766720Y-123668209D01*
X110937138Y-123782080D01*
X111126497Y-123860515D01*
X111247081Y-123884500D01*
X88752919Y-123884500D01*
X88873503Y-123860515D01*
X89062862Y-123782080D01*
X89233280Y-123668209D01*
X89378209Y-123523280D01*
X89492080Y-123352862D01*
X89570515Y-123163503D01*
X89610500Y-122962480D01*
X89610500Y-122757520D01*
X89570515Y-122556497D01*
X89492080Y-122367138D01*
X89378209Y-122196720D01*
X89233280Y-122051791D01*
X89062862Y-121937920D01*
X88873503Y-121859485D01*
X88672480Y-121819500D01*
X88467520Y-121819500D01*
X88266497Y-121859485D01*
X88077138Y-121937920D01*
X87906720Y-122051791D01*
X87761791Y-122196720D01*
X87647920Y-122367138D01*
X87575500Y-122541975D01*
X87575500Y-121424506D01*
X106433500Y-121424506D01*
X106433500Y-121575494D01*
X106462956Y-121723580D01*
X106520736Y-121863074D01*
X106604620Y-121988615D01*
X106711385Y-122095380D01*
X106836926Y-122179264D01*
X106976420Y-122237044D01*
X107124506Y-122266500D01*
X107275494Y-122266500D01*
X107423580Y-122237044D01*
X107563074Y-122179264D01*
X107688615Y-122095380D01*
X107795380Y-121988615D01*
X107879264Y-121863074D01*
X107937044Y-121723580D01*
X107966500Y-121575494D01*
X107966500Y-121424506D01*
X107937044Y-121276420D01*
X107879264Y-121136926D01*
X107795380Y-121011385D01*
X107688615Y-120904620D01*
X107563074Y-120820736D01*
X107423580Y-120762956D01*
X107275494Y-120733500D01*
X107124506Y-120733500D01*
X106976420Y-120762956D01*
X106836926Y-120820736D01*
X106711385Y-120904620D01*
X106604620Y-121011385D01*
X106520736Y-121136926D01*
X106462956Y-121276420D01*
X106433500Y-121424506D01*
X87575500Y-121424506D01*
X87575500Y-120638025D01*
X87647920Y-120812862D01*
X87761791Y-120983280D01*
X87906720Y-121128209D01*
X88077138Y-121242080D01*
X88266497Y-121320515D01*
X88467520Y-121360500D01*
X88672480Y-121360500D01*
X88873503Y-121320515D01*
X89062862Y-121242080D01*
X89233280Y-121128209D01*
X89378209Y-120983280D01*
X89492080Y-120812862D01*
X89570515Y-120623503D01*
X89610500Y-120422480D01*
X89610500Y-120217520D01*
X89570515Y-120016497D01*
X89492080Y-119827138D01*
X89453624Y-119769586D01*
X90921520Y-118301690D01*
X96619500Y-118301690D01*
X96619500Y-118398310D01*
X96638350Y-118493073D01*
X96675325Y-118582339D01*
X96729004Y-118662675D01*
X96797325Y-118730996D01*
X96877661Y-118784675D01*
X96966927Y-118821650D01*
X97061690Y-118840500D01*
X97158310Y-118840500D01*
X97253073Y-118821650D01*
X97342339Y-118784675D01*
X97422675Y-118730996D01*
X97490996Y-118662675D01*
X97544675Y-118582339D01*
X97581650Y-118493073D01*
X97600500Y-118398310D01*
X97600500Y-118301690D01*
X102399500Y-118301690D01*
X102399500Y-118398310D01*
X102418350Y-118493073D01*
X102455325Y-118582339D01*
X102509004Y-118662675D01*
X102577325Y-118730996D01*
X102657661Y-118784675D01*
X102746927Y-118821650D01*
X102841690Y-118840500D01*
X102938310Y-118840500D01*
X103033073Y-118821650D01*
X103122339Y-118784675D01*
X103202675Y-118730996D01*
X103270996Y-118662675D01*
X103324675Y-118582339D01*
X103361650Y-118493073D01*
X103380500Y-118398310D01*
X103380500Y-118301690D01*
X103361650Y-118206927D01*
X103324675Y-118117661D01*
X103270996Y-118037325D01*
X103202675Y-117969004D01*
X103122339Y-117915325D01*
X103033073Y-117878350D01*
X102938310Y-117859500D01*
X102841690Y-117859500D01*
X102746927Y-117878350D01*
X102657661Y-117915325D01*
X102577325Y-117969004D01*
X102509004Y-118037325D01*
X102455325Y-118117661D01*
X102418350Y-118206927D01*
X102399500Y-118301690D01*
X97600500Y-118301690D01*
X97581650Y-118206927D01*
X97544675Y-118117661D01*
X97490996Y-118037325D01*
X97422675Y-117969004D01*
X97342339Y-117915325D01*
X97253073Y-117878350D01*
X97158310Y-117859500D01*
X97061690Y-117859500D01*
X96966927Y-117878350D01*
X96877661Y-117915325D01*
X96797325Y-117969004D01*
X96729004Y-118037325D01*
X96675325Y-118117661D01*
X96638350Y-118206927D01*
X96619500Y-118301690D01*
X90921520Y-118301690D01*
X91682791Y-117540419D01*
X91692473Y-117532473D01*
X91700421Y-117522789D01*
X91724214Y-117493798D01*
X91747800Y-117449672D01*
X91762324Y-117401793D01*
X91766000Y-117364469D01*
X91766000Y-117364459D01*
X91767227Y-117352001D01*
X91766000Y-117339543D01*
X91766000Y-107892210D01*
X94184500Y-105473710D01*
X94184500Y-105530310D01*
X94203350Y-105625073D01*
X94240325Y-105714339D01*
X94294004Y-105794675D01*
X94362325Y-105862996D01*
X94442661Y-105916675D01*
X94531927Y-105953650D01*
X94626690Y-105972500D01*
X94723310Y-105972500D01*
X94818073Y-105953650D01*
X94907339Y-105916675D01*
X94987675Y-105862996D01*
X95055996Y-105794675D01*
X95109675Y-105714339D01*
X95146650Y-105625073D01*
X95165500Y-105530310D01*
X95165500Y-105433690D01*
X95151732Y-105364478D01*
X95539500Y-104976711D01*
X95539500Y-105045810D01*
X95558350Y-105140573D01*
X95595325Y-105229839D01*
X95649004Y-105310175D01*
X95717325Y-105378496D01*
X95797661Y-105432175D01*
X95886927Y-105469150D01*
X95920959Y-105475920D01*
X96055427Y-105610388D01*
X93547864Y-108117953D01*
X93535830Y-108127829D01*
X93525954Y-108139863D01*
X93525953Y-108139864D01*
X93496403Y-108175871D01*
X93467106Y-108230680D01*
X93449067Y-108290152D01*
X93442975Y-108352000D01*
X93444501Y-108367492D01*
X93444500Y-114111829D01*
X93379004Y-114177325D01*
X93325325Y-114257661D01*
X93288350Y-114346927D01*
X93269500Y-114441690D01*
X93269500Y-114538310D01*
X93277668Y-114579372D01*
X93262865Y-114594175D01*
X93187661Y-114625325D01*
X93107325Y-114679004D01*
X93039004Y-114747325D01*
X92985325Y-114827661D01*
X92948350Y-114916927D01*
X92929500Y-115011690D01*
X92929500Y-115108310D01*
X92948350Y-115203073D01*
X92985325Y-115292339D01*
X93039004Y-115372675D01*
X93107325Y-115440996D01*
X93187661Y-115494675D01*
X93276927Y-115531650D01*
X93371690Y-115550500D01*
X93468310Y-115550500D01*
X93563073Y-115531650D01*
X93652339Y-115494675D01*
X93732675Y-115440996D01*
X93800996Y-115372675D01*
X93854675Y-115292339D01*
X93885825Y-115217135D01*
X94056183Y-115046778D01*
X94072987Y-115032987D01*
X94090466Y-115011690D01*
X94128034Y-114965913D01*
X94168938Y-114889388D01*
X94194126Y-114806353D01*
X94196436Y-114782894D01*
X94200500Y-114741635D01*
X94200500Y-114741629D01*
X94202630Y-114720000D01*
X94201288Y-114706374D01*
X94224638Y-114650000D01*
X97101098Y-114650000D01*
X97103501Y-114674396D01*
X97103500Y-115475611D01*
X97103500Y-115475612D01*
X97103501Y-116424389D01*
X97110685Y-116497331D01*
X97139076Y-116590922D01*
X97185179Y-116677175D01*
X97247224Y-116752777D01*
X97322826Y-116814822D01*
X97409079Y-116860925D01*
X97502670Y-116889316D01*
X97600000Y-116898902D01*
X97697331Y-116889316D01*
X97790922Y-116860925D01*
X97877175Y-116814822D01*
X97952777Y-116752777D01*
X98014822Y-116677175D01*
X98060925Y-116590922D01*
X98089316Y-116497331D01*
X98096500Y-116424389D01*
X98096500Y-115126500D01*
X99152039Y-115126500D01*
X99104825Y-115197161D01*
X99067850Y-115286427D01*
X99049000Y-115381190D01*
X99049000Y-115477810D01*
X99067850Y-115572573D01*
X99104825Y-115661839D01*
X99158504Y-115742175D01*
X99226825Y-115810496D01*
X99307161Y-115864175D01*
X99396427Y-115901150D01*
X99491190Y-115920000D01*
X99499475Y-115920000D01*
X99499475Y-116040298D01*
X99440800Y-116079504D01*
X99372479Y-116147825D01*
X99318800Y-116228161D01*
X99281825Y-116317427D01*
X99262975Y-116412190D01*
X99262975Y-116508810D01*
X99281825Y-116603573D01*
X99318800Y-116692839D01*
X99372479Y-116773175D01*
X99440800Y-116841496D01*
X99521136Y-116895175D01*
X99610402Y-116932150D01*
X99705165Y-116951000D01*
X99801785Y-116951000D01*
X99896548Y-116932150D01*
X99985814Y-116895175D01*
X100066150Y-116841496D01*
X100134471Y-116773175D01*
X100188150Y-116692839D01*
X100225125Y-116603573D01*
X100243975Y-116508810D01*
X100243975Y-116412190D01*
X100225125Y-116317427D01*
X100188150Y-116228161D01*
X100134471Y-116147825D01*
X100066150Y-116079504D01*
X100007475Y-116040298D01*
X100007475Y-115655932D01*
X100008702Y-115643474D01*
X100007475Y-115631016D01*
X100007475Y-115631006D01*
X100003799Y-115593682D01*
X100003210Y-115591741D01*
X100011150Y-115572573D01*
X100030000Y-115477810D01*
X100030000Y-115381190D01*
X100011150Y-115286427D01*
X99974175Y-115197161D01*
X99926961Y-115126500D01*
X101903500Y-115126500D01*
X101903500Y-115475612D01*
X101903501Y-116424389D01*
X101910685Y-116497331D01*
X101939076Y-116590922D01*
X101985179Y-116677175D01*
X102047224Y-116752777D01*
X102122826Y-116814822D01*
X102209079Y-116860925D01*
X102302670Y-116889316D01*
X102400000Y-116898902D01*
X102497331Y-116889316D01*
X102590922Y-116860925D01*
X102677175Y-116814822D01*
X102752777Y-116752777D01*
X102814822Y-116677175D01*
X102860925Y-116590922D01*
X102889316Y-116497331D01*
X102896500Y-116424389D01*
X102896500Y-114654389D01*
X102898902Y-114630000D01*
X102889316Y-114532669D01*
X102860925Y-114439078D01*
X102814822Y-114352825D01*
X102752777Y-114277223D01*
X102677175Y-114215178D01*
X102590922Y-114169075D01*
X102497331Y-114140684D01*
X102424389Y-114133500D01*
X102400000Y-114131098D01*
X102375612Y-114133500D01*
X97644377Y-114133500D01*
X97619999Y-114131099D01*
X97595621Y-114133500D01*
X97595611Y-114133500D01*
X97522669Y-114140684D01*
X97429078Y-114169075D01*
X97342825Y-114215178D01*
X97267223Y-114277223D01*
X97258206Y-114288210D01*
X97247224Y-114297223D01*
X97231677Y-114316167D01*
X97231676Y-114316168D01*
X97185178Y-114372825D01*
X97139075Y-114459080D01*
X97110685Y-114552669D01*
X97101098Y-114650000D01*
X94224638Y-114650000D01*
X94231650Y-114633073D01*
X94250500Y-114538310D01*
X94250500Y-114441690D01*
X94231650Y-114346927D01*
X94194675Y-114257661D01*
X94140996Y-114177325D01*
X94075500Y-114111829D01*
X94075500Y-108482683D01*
X96545685Y-106012500D01*
X96638310Y-106012500D01*
X96733073Y-105993650D01*
X96822339Y-105956675D01*
X96902675Y-105902996D01*
X96970996Y-105834675D01*
X97024675Y-105754339D01*
X97061650Y-105665073D01*
X97080500Y-105570310D01*
X97080500Y-105473690D01*
X97078102Y-105461635D01*
X97097030Y-105463499D01*
X97097041Y-105463499D01*
X97109499Y-105464726D01*
X97121957Y-105463499D01*
X99705779Y-105463499D01*
X99718237Y-105464726D01*
X99730695Y-105463499D01*
X99730706Y-105463499D01*
X99768030Y-105459823D01*
X99815909Y-105445299D01*
X99860034Y-105421713D01*
X99876560Y-105408150D01*
X99889025Y-105397921D01*
X99889028Y-105397918D01*
X99898710Y-105389972D01*
X99906656Y-105380290D01*
X100470638Y-104816309D01*
X100537325Y-104882996D01*
X100617661Y-104936675D01*
X100706927Y-104973650D01*
X100801690Y-104992500D01*
X100898310Y-104992500D01*
X100993073Y-104973650D01*
X101082339Y-104936675D01*
X101162675Y-104882996D01*
X101230996Y-104814675D01*
X101284675Y-104734339D01*
X101321650Y-104645073D01*
X101340500Y-104550310D01*
X101340500Y-104453690D01*
X101321650Y-104358927D01*
X101284675Y-104269661D01*
X101230996Y-104189325D01*
X101162675Y-104121004D01*
X101082339Y-104067325D01*
X100993073Y-104030350D01*
X100898310Y-104011500D01*
X100801690Y-104011500D01*
X100706927Y-104030350D01*
X100617661Y-104067325D01*
X100537325Y-104121004D01*
X100469004Y-104189325D01*
X100430317Y-104247224D01*
X100425736Y-104246773D01*
X100413278Y-104248000D01*
X100413267Y-104248000D01*
X100375943Y-104251676D01*
X100328064Y-104266200D01*
X100283939Y-104289786D01*
X100254948Y-104313578D01*
X100254945Y-104313581D01*
X100245263Y-104321527D01*
X100237317Y-104331209D01*
X99613027Y-104955499D01*
X97214709Y-104955499D01*
X96595419Y-104336209D01*
X96587473Y-104326527D01*
X96577791Y-104318581D01*
X96577788Y-104318578D01*
X96565323Y-104308349D01*
X96548797Y-104294786D01*
X96504672Y-104271200D01*
X96456793Y-104256676D01*
X96419469Y-104253000D01*
X96419458Y-104253000D01*
X96407000Y-104251773D01*
X96394542Y-104253000D01*
X95662458Y-104253000D01*
X95650000Y-104251773D01*
X95637542Y-104253000D01*
X95637531Y-104253000D01*
X95600207Y-104256676D01*
X95552328Y-104271200D01*
X95508203Y-104294786D01*
X95479211Y-104318578D01*
X95479203Y-104318586D01*
X95469527Y-104326527D01*
X95461586Y-104336203D01*
X94792522Y-105005268D01*
X94723310Y-104991500D01*
X94666710Y-104991500D01*
X99623500Y-100034710D01*
X99623500Y-100113310D01*
X99642350Y-100208073D01*
X99679325Y-100297339D01*
X99733004Y-100377675D01*
X99801325Y-100445996D01*
X99857001Y-100483197D01*
X99857000Y-100668500D01*
X99050000Y-100668500D01*
X99037612Y-100669720D01*
X99025700Y-100673334D01*
X99014721Y-100679202D01*
X99005099Y-100687099D01*
X98997202Y-100696721D01*
X98991334Y-100707700D01*
X98987720Y-100719612D01*
X98986500Y-100732000D01*
X98986500Y-103582000D01*
X98987720Y-103594388D01*
X98991334Y-103606300D01*
X98997202Y-103617279D01*
X99005099Y-103626901D01*
X99014721Y-103634798D01*
X99025700Y-103640666D01*
X99037612Y-103644280D01*
X99050000Y-103645500D01*
X100825000Y-103645500D01*
X100837388Y-103644280D01*
X100849300Y-103640666D01*
X100860279Y-103634798D01*
X100869901Y-103626901D01*
X100877798Y-103617279D01*
X100883666Y-103606300D01*
X100887280Y-103594388D01*
X100888500Y-103582000D01*
X100888500Y-102370710D01*
X101459001Y-102941211D01*
X101459000Y-104905790D01*
X98346790Y-108018000D01*
X95964458Y-108018000D01*
X95952000Y-108016773D01*
X95939542Y-108018000D01*
X95939531Y-108018000D01*
X95902207Y-108021676D01*
X95858370Y-108034974D01*
X95854328Y-108036200D01*
X95810203Y-108059786D01*
X95781211Y-108083578D01*
X95781203Y-108083586D01*
X95771527Y-108091527D01*
X95763586Y-108101203D01*
X94504204Y-109360586D01*
X94494528Y-109368527D01*
X94486587Y-109378203D01*
X94486578Y-109378212D01*
X94462786Y-109407204D01*
X94439200Y-109451329D01*
X94433036Y-109471650D01*
X94425432Y-109496720D01*
X94424677Y-109499208D01*
X94419773Y-109549000D01*
X94421001Y-109561468D01*
X94421000Y-110592542D01*
X94419773Y-110605000D01*
X94421000Y-110617458D01*
X94421000Y-110617468D01*
X94424676Y-110654792D01*
X94439200Y-110702671D01*
X94462786Y-110746797D01*
X94471980Y-110758000D01*
X94486578Y-110775788D01*
X94486581Y-110775791D01*
X94494527Y-110785473D01*
X94504209Y-110793419D01*
X95861581Y-112150791D01*
X95869527Y-112160473D01*
X95879209Y-112168419D01*
X95879212Y-112168422D01*
X95908203Y-112192215D01*
X95927446Y-112202500D01*
X95952328Y-112215800D01*
X96000207Y-112230324D01*
X96037531Y-112234000D01*
X96037542Y-112234000D01*
X96050000Y-112235227D01*
X96062458Y-112234000D01*
X102274790Y-112234000D01*
X104659268Y-114618478D01*
X104645500Y-114687690D01*
X104645500Y-114784310D01*
X104664350Y-114879073D01*
X104701325Y-114968339D01*
X104755004Y-115048675D01*
X104823325Y-115116996D01*
X104903661Y-115170675D01*
X104992927Y-115207650D01*
X105087690Y-115226500D01*
X105184310Y-115226500D01*
X105279073Y-115207650D01*
X105368339Y-115170675D01*
X105448675Y-115116996D01*
X105516996Y-115048675D01*
X105570675Y-114968339D01*
X105607650Y-114879073D01*
X105626500Y-114784310D01*
X105626500Y-114687690D01*
X105607650Y-114592927D01*
X105570675Y-114503661D01*
X105516996Y-114423325D01*
X105448675Y-114355004D01*
X105368339Y-114301325D01*
X105279073Y-114264350D01*
X105184310Y-114245500D01*
X105087690Y-114245500D01*
X105018478Y-114259268D01*
X102568419Y-111809209D01*
X102560473Y-111799527D01*
X102550791Y-111791581D01*
X102550788Y-111791578D01*
X102534145Y-111777920D01*
X102521797Y-111767786D01*
X102477672Y-111744200D01*
X102429793Y-111729676D01*
X102392469Y-111726000D01*
X102392458Y-111726000D01*
X102380000Y-111724773D01*
X102367542Y-111726000D01*
X96155210Y-111726000D01*
X94929000Y-110499790D01*
X94929000Y-109931690D01*
X95065500Y-109931690D01*
X95065500Y-110028310D01*
X95084350Y-110123073D01*
X95121325Y-110212339D01*
X95175004Y-110292675D01*
X95243325Y-110360996D01*
X95323661Y-110414675D01*
X95412927Y-110451650D01*
X95507690Y-110470500D01*
X95604310Y-110470500D01*
X95699073Y-110451650D01*
X95739647Y-110434844D01*
X95735500Y-110455690D01*
X95735500Y-110552310D01*
X95754350Y-110647073D01*
X95791325Y-110736339D01*
X95845004Y-110816675D01*
X95913325Y-110884996D01*
X95993661Y-110938675D01*
X96082927Y-110975650D01*
X96177690Y-110994500D01*
X96274310Y-110994500D01*
X96369073Y-110975650D01*
X96458339Y-110938675D01*
X96538675Y-110884996D01*
X96606996Y-110816675D01*
X96646202Y-110758000D01*
X97507542Y-110758000D01*
X97520000Y-110759227D01*
X97532458Y-110758000D01*
X97532469Y-110758000D01*
X97569793Y-110754324D01*
X97617672Y-110739800D01*
X97661797Y-110716214D01*
X97687037Y-110695500D01*
X97690788Y-110692422D01*
X97690791Y-110692419D01*
X97700473Y-110684473D01*
X97708419Y-110674791D01*
X102930970Y-105452241D01*
X102940646Y-105444300D01*
X102948587Y-105434624D01*
X102948595Y-105434616D01*
X102972387Y-105405624D01*
X102995973Y-105361499D01*
X102999068Y-105351295D01*
X103010497Y-105313620D01*
X103014173Y-105276296D01*
X103014173Y-105276285D01*
X103015400Y-105263827D01*
X103014173Y-105251369D01*
X103014173Y-100815220D01*
X103018335Y-100818001D01*
X103107601Y-100854976D01*
X103202364Y-100873826D01*
X103298984Y-100873826D01*
X103368196Y-100860058D01*
X104845000Y-102336862D01*
X104845001Y-103950042D01*
X104843773Y-103962510D01*
X104845001Y-103974978D01*
X104845001Y-103974979D01*
X104846362Y-103988792D01*
X104848677Y-104012302D01*
X104863200Y-104060181D01*
X104886786Y-104104306D01*
X104910578Y-104133298D01*
X104910587Y-104133307D01*
X104918528Y-104142983D01*
X104928204Y-104150924D01*
X107098209Y-106320929D01*
X107082339Y-106310325D01*
X106993073Y-106273350D01*
X106898310Y-106254500D01*
X106801690Y-106254500D01*
X106706927Y-106273350D01*
X106617661Y-106310325D01*
X106537325Y-106364004D01*
X106469004Y-106432325D01*
X106415325Y-106512661D01*
X106378350Y-106601927D01*
X106359500Y-106696690D01*
X106359500Y-106793310D01*
X106378350Y-106888073D01*
X106415325Y-106977339D01*
X106469004Y-107057675D01*
X106537325Y-107125996D01*
X106617661Y-107179675D01*
X106706927Y-107216650D01*
X106801690Y-107235500D01*
X106898310Y-107235500D01*
X106993073Y-107216650D01*
X107082339Y-107179675D01*
X107162675Y-107125996D01*
X107164731Y-107123941D01*
X108028510Y-107987720D01*
X108028510Y-108849096D01*
X108024349Y-108846315D01*
X107935083Y-108809340D01*
X107840320Y-108790490D01*
X107743700Y-108790490D01*
X107673200Y-108804514D01*
X107669344Y-108801350D01*
X107652818Y-108787787D01*
X107608693Y-108764201D01*
X107560814Y-108749677D01*
X107523490Y-108746001D01*
X107523479Y-108746001D01*
X107511021Y-108744774D01*
X107498563Y-108746001D01*
X101637202Y-108746001D01*
X101597996Y-108687325D01*
X101529675Y-108619004D01*
X101449339Y-108565325D01*
X101360073Y-108528350D01*
X101265310Y-108509500D01*
X101168690Y-108509500D01*
X101073927Y-108528350D01*
X100984661Y-108565325D01*
X100904325Y-108619004D01*
X100836004Y-108687325D01*
X100782325Y-108767661D01*
X100745350Y-108856927D01*
X100726500Y-108951690D01*
X100726500Y-109048310D01*
X100745350Y-109143073D01*
X100782325Y-109232339D01*
X100836004Y-109312675D01*
X100904325Y-109380996D01*
X100984661Y-109434675D01*
X101073927Y-109471650D01*
X101168690Y-109490500D01*
X101265310Y-109490500D01*
X101360073Y-109471650D01*
X101449339Y-109434675D01*
X101529675Y-109380996D01*
X101597996Y-109312675D01*
X101637201Y-109254001D01*
X107301510Y-109254001D01*
X107301510Y-109277325D01*
X107287310Y-109274500D01*
X107190690Y-109274500D01*
X107095927Y-109293350D01*
X107006661Y-109330325D01*
X106926325Y-109384004D01*
X106858004Y-109452325D01*
X106804325Y-109532661D01*
X106767350Y-109621927D01*
X106748500Y-109716690D01*
X106748500Y-109813310D01*
X106762268Y-109882522D01*
X104427195Y-112217595D01*
X104351310Y-112202500D01*
X104254690Y-112202500D01*
X104185478Y-112216268D01*
X102003419Y-110034209D01*
X101995473Y-110024527D01*
X101985791Y-110016581D01*
X101985788Y-110016578D01*
X101969814Y-110003469D01*
X101956797Y-109992786D01*
X101912672Y-109969200D01*
X101864793Y-109954676D01*
X101827469Y-109951000D01*
X101827458Y-109951000D01*
X101815000Y-109949773D01*
X101802542Y-109951000D01*
X101313202Y-109951000D01*
X101273996Y-109892325D01*
X101205675Y-109824004D01*
X101125339Y-109770325D01*
X101036073Y-109733350D01*
X100941310Y-109714500D01*
X100844690Y-109714500D01*
X100749927Y-109733350D01*
X100660661Y-109770325D01*
X100580325Y-109824004D01*
X100512004Y-109892325D01*
X100458325Y-109972661D01*
X100421350Y-110061927D01*
X100402500Y-110156690D01*
X100402500Y-110253310D01*
X100421350Y-110348073D01*
X100458325Y-110437339D01*
X100512004Y-110517675D01*
X100580325Y-110585996D01*
X100660661Y-110639675D01*
X100749927Y-110676650D01*
X100844690Y-110695500D01*
X100941310Y-110695500D01*
X101036073Y-110676650D01*
X101125339Y-110639675D01*
X101205675Y-110585996D01*
X101273996Y-110517675D01*
X101313202Y-110459000D01*
X101709790Y-110459000D01*
X103826268Y-112575478D01*
X103812500Y-112644690D01*
X103812500Y-112741310D01*
X103831350Y-112836073D01*
X103868325Y-112925339D01*
X103922004Y-113005675D01*
X103990325Y-113073996D01*
X104070661Y-113127675D01*
X104159927Y-113164650D01*
X104254690Y-113183500D01*
X104351310Y-113183500D01*
X104446073Y-113164650D01*
X104535339Y-113127675D01*
X104615675Y-113073996D01*
X104683996Y-113005675D01*
X104737675Y-112925339D01*
X104774650Y-112836073D01*
X104793500Y-112741310D01*
X104793500Y-112644690D01*
X104781060Y-112582150D01*
X107121478Y-110241732D01*
X107190690Y-110255500D01*
X107287310Y-110255500D01*
X107382073Y-110236650D01*
X107471339Y-110199675D01*
X107551675Y-110145996D01*
X107619996Y-110077675D01*
X107673675Y-109997339D01*
X107710650Y-109908073D01*
X107729500Y-109813310D01*
X107729500Y-109768665D01*
X107743700Y-109771490D01*
X107840320Y-109771490D01*
X107842719Y-109771013D01*
X107810860Y-109847927D01*
X107792010Y-109942690D01*
X107792010Y-110039310D01*
X107810860Y-110134073D01*
X107847835Y-110223339D01*
X107901514Y-110303675D01*
X107969835Y-110371996D01*
X108050171Y-110425675D01*
X108139437Y-110462650D01*
X108234200Y-110481500D01*
X108330820Y-110481500D01*
X108425583Y-110462650D01*
X108514849Y-110425675D01*
X108595185Y-110371996D01*
X108663506Y-110303675D01*
X108717185Y-110223339D01*
X108754160Y-110134073D01*
X108773010Y-110039310D01*
X108773010Y-109942690D01*
X108754160Y-109847927D01*
X108717185Y-109758661D01*
X108663506Y-109678325D01*
X108595185Y-109610004D01*
X108536510Y-109570798D01*
X108536510Y-107894967D01*
X108537737Y-107882509D01*
X108536510Y-107870051D01*
X108536510Y-107870041D01*
X108532834Y-107832717D01*
X108518310Y-107784838D01*
X108494724Y-107740713D01*
X108470931Y-107711721D01*
X108470929Y-107711719D01*
X108462983Y-107702037D01*
X108453301Y-107694091D01*
X108447941Y-107688731D01*
X108488563Y-107680650D01*
X108577829Y-107643675D01*
X108658165Y-107589996D01*
X108726486Y-107521675D01*
X108780165Y-107441339D01*
X108817140Y-107352073D01*
X108835990Y-107257310D01*
X108835990Y-107160690D01*
X108817140Y-107065927D01*
X108780165Y-106976661D01*
X108726486Y-106896325D01*
X108658165Y-106828004D01*
X108607103Y-106793885D01*
X108663506Y-106737482D01*
X108717185Y-106657146D01*
X108754160Y-106567880D01*
X108773010Y-106473117D01*
X108773010Y-106376497D01*
X108754160Y-106281734D01*
X108717185Y-106192468D01*
X108663506Y-106112132D01*
X108595185Y-106043811D01*
X108514849Y-105990132D01*
X108425583Y-105953157D01*
X108330820Y-105934307D01*
X108234200Y-105934307D01*
X108164988Y-105948075D01*
X106096351Y-103879438D01*
X106110500Y-103808310D01*
X106110500Y-103711690D01*
X106091650Y-103616927D01*
X106054675Y-103527661D01*
X106000996Y-103447325D01*
X105932675Y-103379004D01*
X105852339Y-103325325D01*
X105763073Y-103288350D01*
X105668310Y-103269500D01*
X105571690Y-103269500D01*
X105476927Y-103288350D01*
X105387661Y-103325325D01*
X105353000Y-103348485D01*
X105353000Y-102244110D01*
X105354227Y-102231652D01*
X105353000Y-102219194D01*
X105353000Y-102219183D01*
X105349324Y-102181859D01*
X105334800Y-102133980D01*
X105311214Y-102089855D01*
X105287422Y-102060864D01*
X105287419Y-102060861D01*
X105279473Y-102051179D01*
X105269791Y-102043233D01*
X103727406Y-100500848D01*
X103741174Y-100431636D01*
X103741174Y-100335016D01*
X103722324Y-100240253D01*
X103685349Y-100150987D01*
X103631670Y-100070651D01*
X103563349Y-100002330D01*
X103483013Y-99948651D01*
X103393747Y-99911676D01*
X103361922Y-99905346D01*
X109798791Y-93468477D01*
X109808473Y-93460531D01*
X109833471Y-93430072D01*
X109840214Y-93421855D01*
X109863800Y-93377730D01*
X109878324Y-93329851D01*
X109882000Y-93292527D01*
X109882000Y-93292517D01*
X109883227Y-93280059D01*
X109882000Y-93267601D01*
X109882000Y-88970202D01*
X109940675Y-88930996D01*
X110008996Y-88862675D01*
X110062675Y-88782339D01*
X110099650Y-88693073D01*
X110118500Y-88598310D01*
X110118500Y-88501690D01*
X110099650Y-88406927D01*
X110062675Y-88317661D01*
X110008996Y-88237325D01*
X109940675Y-88169004D01*
X109860339Y-88115325D01*
X109771073Y-88078350D01*
X109676310Y-88059500D01*
X109579690Y-88059500D01*
X109484927Y-88078350D01*
X109395661Y-88115325D01*
X109315325Y-88169004D01*
X109247004Y-88237325D01*
X109193325Y-88317661D01*
X109156350Y-88406927D01*
X109137500Y-88501690D01*
X109137500Y-88598310D01*
X109156350Y-88693073D01*
X109193325Y-88782339D01*
X109247004Y-88862675D01*
X109315325Y-88930996D01*
X109374000Y-88970202D01*
X109374000Y-90342137D01*
X109373300Y-90339828D01*
X109349714Y-90295702D01*
X109325921Y-90266711D01*
X109325919Y-90266709D01*
X109317973Y-90257027D01*
X109308291Y-90249081D01*
X109176732Y-90117522D01*
X109190500Y-90048310D01*
X109190500Y-89951690D01*
X109171650Y-89856927D01*
X109134675Y-89767661D01*
X109080996Y-89687325D01*
X109012675Y-89619004D01*
X108932339Y-89565325D01*
X108843073Y-89528350D01*
X108748310Y-89509500D01*
X108651690Y-89509500D01*
X108556927Y-89528350D01*
X108467661Y-89565325D01*
X108387325Y-89619004D01*
X108319004Y-89687325D01*
X108265325Y-89767661D01*
X108228350Y-89856927D01*
X108209500Y-89951690D01*
X108209500Y-90048310D01*
X108228350Y-90143073D01*
X108265325Y-90232339D01*
X108319004Y-90312675D01*
X108387325Y-90380996D01*
X108467661Y-90434675D01*
X108556927Y-90471650D01*
X108651690Y-90490500D01*
X108748310Y-90490500D01*
X108817522Y-90476732D01*
X108883501Y-90542711D01*
X108883500Y-90811805D01*
X108882273Y-90824264D01*
X108883500Y-90836722D01*
X108883500Y-90836732D01*
X108887176Y-90874056D01*
X108901700Y-90921935D01*
X108925286Y-90966061D01*
X108938849Y-90982587D01*
X108949078Y-90995052D01*
X108949081Y-90995055D01*
X108957027Y-91004737D01*
X108966709Y-91012683D01*
X109119990Y-91165964D01*
X109119991Y-93069633D01*
X102312209Y-99877415D01*
X102302527Y-99885361D01*
X102294581Y-99895043D01*
X102294578Y-99895046D01*
X102286941Y-99904352D01*
X102270786Y-99924037D01*
X102247200Y-99968163D01*
X102232676Y-100016042D01*
X102229000Y-100053366D01*
X102229000Y-100053376D01*
X102227773Y-100065834D01*
X102229000Y-100078292D01*
X102229001Y-105076565D01*
X97579566Y-109726000D01*
X95976202Y-109726000D01*
X95936996Y-109667325D01*
X95868675Y-109599004D01*
X95788339Y-109545325D01*
X95699073Y-109508350D01*
X95604310Y-109489500D01*
X95507690Y-109489500D01*
X95412927Y-109508350D01*
X95323661Y-109545325D01*
X95243325Y-109599004D01*
X95175004Y-109667325D01*
X95121325Y-109747661D01*
X95084350Y-109836927D01*
X95065500Y-109931690D01*
X94929000Y-109931690D01*
X94929000Y-109654210D01*
X96057211Y-108526000D01*
X98439542Y-108526000D01*
X98452000Y-108527227D01*
X98464458Y-108526000D01*
X98464469Y-108526000D01*
X98501793Y-108522324D01*
X98549672Y-108507800D01*
X98593797Y-108484214D01*
X98610323Y-108470651D01*
X98622788Y-108460422D01*
X98622791Y-108460419D01*
X98632473Y-108452473D01*
X98640421Y-108442789D01*
X101883791Y-105199419D01*
X101893473Y-105191473D01*
X101913650Y-105166888D01*
X101925214Y-105152798D01*
X101948800Y-105108672D01*
X101948800Y-105108671D01*
X101963324Y-105060793D01*
X101967000Y-105023469D01*
X101967000Y-105023459D01*
X101968227Y-105011001D01*
X101967000Y-104998543D01*
X101967000Y-102848457D01*
X101968227Y-102835999D01*
X101967000Y-102823541D01*
X101967000Y-102823531D01*
X101963324Y-102786207D01*
X101948800Y-102738328D01*
X101925214Y-102694203D01*
X101893473Y-102655527D01*
X101883791Y-102647581D01*
X100888500Y-101652290D01*
X100888500Y-100732000D01*
X100887280Y-100719612D01*
X100883666Y-100707700D01*
X100877798Y-100696721D01*
X100869901Y-100687099D01*
X100860279Y-100679202D01*
X100849300Y-100673334D01*
X100837388Y-100669720D01*
X100825000Y-100668500D01*
X100365000Y-100668500D01*
X100365000Y-100487206D01*
X100426675Y-100445996D01*
X100494996Y-100377675D01*
X100548675Y-100297339D01*
X100585650Y-100208073D01*
X100604500Y-100113310D01*
X100604500Y-100016690D01*
X100585650Y-99921927D01*
X100548675Y-99832661D01*
X100494996Y-99752325D01*
X100426675Y-99684004D01*
X100346339Y-99630325D01*
X100257073Y-99593350D01*
X100162310Y-99574500D01*
X100083710Y-99574500D01*
X104340791Y-95317419D01*
X104350473Y-95309473D01*
X104358421Y-95299789D01*
X104382214Y-95270798D01*
X104405800Y-95226672D01*
X104414288Y-95198690D01*
X104420324Y-95178793D01*
X104424000Y-95141469D01*
X104424000Y-95141459D01*
X104425227Y-95129001D01*
X104424000Y-95116543D01*
X104424000Y-95067202D01*
X104482675Y-95027996D01*
X104550996Y-94959675D01*
X104604675Y-94879339D01*
X104641650Y-94790073D01*
X104660500Y-94695310D01*
X104660500Y-94598690D01*
X104641650Y-94503927D01*
X104604675Y-94414661D01*
X104550996Y-94334325D01*
X104482675Y-94266004D01*
X104402339Y-94212325D01*
X104313073Y-94175350D01*
X104218310Y-94156500D01*
X104121690Y-94156500D01*
X104026927Y-94175350D01*
X103937661Y-94212325D01*
X103857325Y-94266004D01*
X103830895Y-94292434D01*
X103827675Y-94284661D01*
X103773996Y-94204325D01*
X103705675Y-94136004D01*
X103625339Y-94082325D01*
X103536073Y-94045350D01*
X103441310Y-94026500D01*
X103344690Y-94026500D01*
X103249927Y-94045350D01*
X103160661Y-94082325D01*
X103080325Y-94136004D01*
X103038553Y-94177776D01*
X103025332Y-94157989D01*
X102957011Y-94089668D01*
X102876675Y-94035989D01*
X102787409Y-93999014D01*
X102692646Y-93980164D01*
X102596026Y-93980164D01*
X102501263Y-93999014D01*
X102411997Y-94035989D01*
X102331661Y-94089668D01*
X102263340Y-94157989D01*
X102209661Y-94238325D01*
X102172686Y-94327591D01*
X102153836Y-94422354D01*
X102153836Y-94518974D01*
X102172686Y-94613737D01*
X102209661Y-94703003D01*
X102263340Y-94783339D01*
X102330027Y-94850026D01*
X90192209Y-106987845D01*
X90182527Y-106995791D01*
X90174581Y-107005473D01*
X90174578Y-107005476D01*
X90164349Y-107017941D01*
X90150786Y-107034467D01*
X90127200Y-107078593D01*
X90112676Y-107126472D01*
X90109000Y-107163796D01*
X90109000Y-107163806D01*
X90107773Y-107176264D01*
X90109000Y-107188722D01*
X90109001Y-113375789D01*
X89125210Y-114359580D01*
X89062862Y-114317920D01*
X88873503Y-114239485D01*
X88672480Y-114199500D01*
X88467520Y-114199500D01*
X88266497Y-114239485D01*
X88077138Y-114317920D01*
X87906720Y-114431791D01*
X87761791Y-114576720D01*
X87647920Y-114747138D01*
X87575500Y-114921975D01*
X87575500Y-113018025D01*
X87647920Y-113192862D01*
X87761791Y-113363280D01*
X87906720Y-113508209D01*
X88077138Y-113622080D01*
X88266497Y-113700515D01*
X88467520Y-113740500D01*
X88672480Y-113740500D01*
X88873503Y-113700515D01*
X89062862Y-113622080D01*
X89233280Y-113508209D01*
X89378209Y-113363280D01*
X89492080Y-113192862D01*
X89570515Y-113003503D01*
X89610500Y-112802480D01*
X89610500Y-112597520D01*
X89570515Y-112396497D01*
X89492080Y-112207138D01*
X89378209Y-112036720D01*
X89233280Y-111891791D01*
X89062862Y-111777920D01*
X88873503Y-111699485D01*
X88672480Y-111659500D01*
X88467520Y-111659500D01*
X88266497Y-111699485D01*
X88077138Y-111777920D01*
X87906720Y-111891791D01*
X87761791Y-112036720D01*
X87647920Y-112207138D01*
X87575500Y-112381975D01*
X87575500Y-107938025D01*
X87647920Y-108112862D01*
X87761791Y-108283280D01*
X87906720Y-108428209D01*
X88077138Y-108542080D01*
X88266497Y-108620515D01*
X88467520Y-108660500D01*
X88672480Y-108660500D01*
X88873503Y-108620515D01*
X89062862Y-108542080D01*
X89233280Y-108428209D01*
X89378209Y-108283280D01*
X89492080Y-108112862D01*
X89570515Y-107923503D01*
X89610500Y-107722480D01*
X89610500Y-107517520D01*
X89570515Y-107316497D01*
X89492080Y-107127138D01*
X89378209Y-106956720D01*
X89233280Y-106811791D01*
X89062862Y-106697920D01*
X88873503Y-106619485D01*
X88672480Y-106579500D01*
X88467520Y-106579500D01*
X88266497Y-106619485D01*
X88077138Y-106697920D01*
X87906720Y-106811791D01*
X87761791Y-106956720D01*
X87647920Y-107127138D01*
X87575500Y-107301975D01*
X87575500Y-105398025D01*
X87647920Y-105572862D01*
X87761791Y-105743280D01*
X87906720Y-105888209D01*
X88077138Y-106002080D01*
X88266497Y-106080515D01*
X88467520Y-106120500D01*
X88672480Y-106120500D01*
X88873503Y-106080515D01*
X89062862Y-106002080D01*
X89233280Y-105888209D01*
X89378209Y-105743280D01*
X89492080Y-105572862D01*
X89570515Y-105383503D01*
X89610500Y-105182480D01*
X89610500Y-104977520D01*
X89570515Y-104776497D01*
X89492080Y-104587138D01*
X89378209Y-104416720D01*
X89233280Y-104271791D01*
X89062862Y-104157920D01*
X88873503Y-104079485D01*
X88672480Y-104039500D01*
X88467520Y-104039500D01*
X88266497Y-104079485D01*
X88077138Y-104157920D01*
X87906720Y-104271791D01*
X87761791Y-104416720D01*
X87647920Y-104587138D01*
X87575500Y-104761975D01*
X87575500Y-102858025D01*
X87647920Y-103032862D01*
X87761791Y-103203280D01*
X87906720Y-103348209D01*
X88077138Y-103462080D01*
X88266497Y-103540515D01*
X88467520Y-103580500D01*
X88672480Y-103580500D01*
X88873503Y-103540515D01*
X89062862Y-103462080D01*
X89233280Y-103348209D01*
X89378209Y-103203280D01*
X89492080Y-103032862D01*
X89570515Y-102843503D01*
X89610500Y-102642480D01*
X89610500Y-102437520D01*
X89570515Y-102236497D01*
X89492080Y-102047138D01*
X89378209Y-101876720D01*
X89233280Y-101731791D01*
X89062862Y-101617920D01*
X88873503Y-101539485D01*
X88672480Y-101499500D01*
X88467520Y-101499500D01*
X88266497Y-101539485D01*
X88077138Y-101617920D01*
X87906720Y-101731791D01*
X87761791Y-101876720D01*
X87647920Y-102047138D01*
X87575500Y-102221975D01*
X87575500Y-100318025D01*
X87647920Y-100492862D01*
X87761791Y-100663280D01*
X87906720Y-100808209D01*
X88077138Y-100922080D01*
X88266497Y-101000515D01*
X88467520Y-101040500D01*
X88672480Y-101040500D01*
X88873503Y-101000515D01*
X89062862Y-100922080D01*
X89233280Y-100808209D01*
X89378209Y-100663280D01*
X89492080Y-100492862D01*
X89570515Y-100303503D01*
X89610500Y-100102480D01*
X89610500Y-99897520D01*
X89570515Y-99696497D01*
X89492080Y-99507138D01*
X89378209Y-99336720D01*
X89233280Y-99191791D01*
X89062862Y-99077920D01*
X88873503Y-98999485D01*
X88672480Y-98959500D01*
X88467520Y-98959500D01*
X88266497Y-98999485D01*
X88077138Y-99077920D01*
X87906720Y-99191791D01*
X87761791Y-99336720D01*
X87647920Y-99507138D01*
X87575500Y-99681975D01*
X87575500Y-97778025D01*
X87647920Y-97952862D01*
X87761791Y-98123280D01*
X87906720Y-98268209D01*
X88077138Y-98382080D01*
X88266497Y-98460515D01*
X88467520Y-98500500D01*
X88672480Y-98500500D01*
X88873503Y-98460515D01*
X89062862Y-98382080D01*
X89233280Y-98268209D01*
X89378209Y-98123280D01*
X89492080Y-97952862D01*
X89570515Y-97763503D01*
X89610500Y-97562480D01*
X89610500Y-97357520D01*
X89570515Y-97156497D01*
X89492080Y-96967138D01*
X89378209Y-96796720D01*
X89233280Y-96651791D01*
X89062862Y-96537920D01*
X88873503Y-96459485D01*
X88672480Y-96419500D01*
X88467520Y-96419500D01*
X88266497Y-96459485D01*
X88077138Y-96537920D01*
X87906720Y-96651791D01*
X87761791Y-96796720D01*
X87647920Y-96967138D01*
X87575500Y-97141975D01*
X87575500Y-95238025D01*
X87647920Y-95412862D01*
X87761791Y-95583280D01*
X87906720Y-95728209D01*
X88077138Y-95842080D01*
X88266497Y-95920515D01*
X88467520Y-95960500D01*
X88672480Y-95960500D01*
X88873503Y-95920515D01*
X89062862Y-95842080D01*
X89233280Y-95728209D01*
X89378209Y-95583280D01*
X89492080Y-95412862D01*
X89570515Y-95223503D01*
X89610500Y-95022480D01*
X89610500Y-94817520D01*
X89570515Y-94616497D01*
X89492080Y-94427138D01*
X89378209Y-94256720D01*
X89233280Y-94111791D01*
X89062862Y-93997920D01*
X88873503Y-93919485D01*
X88672480Y-93879500D01*
X88467520Y-93879500D01*
X88266497Y-93919485D01*
X88077138Y-93997920D01*
X87906720Y-94111791D01*
X87761791Y-94256720D01*
X87647920Y-94427138D01*
X87575500Y-94601975D01*
X87575500Y-92698025D01*
X87647920Y-92872862D01*
X87761791Y-93043280D01*
X87906720Y-93188209D01*
X88077138Y-93302080D01*
X88266497Y-93380515D01*
X88467520Y-93420500D01*
X88672480Y-93420500D01*
X88873503Y-93380515D01*
X89062862Y-93302080D01*
X89233280Y-93188209D01*
X89378209Y-93043280D01*
X89492080Y-92872862D01*
X89570515Y-92683503D01*
X89610500Y-92482480D01*
X89610500Y-92277520D01*
X89570515Y-92076497D01*
X89492080Y-91887138D01*
X89378209Y-91716720D01*
X89233280Y-91571791D01*
X89062862Y-91457920D01*
X88873503Y-91379485D01*
X88672480Y-91339500D01*
X88467520Y-91339500D01*
X88266497Y-91379485D01*
X88077138Y-91457920D01*
X87906720Y-91571791D01*
X87761791Y-91716720D01*
X87647920Y-91887138D01*
X87575500Y-92061975D01*
X87575500Y-90158025D01*
X87647920Y-90332862D01*
X87761791Y-90503280D01*
X87906720Y-90648209D01*
X88077138Y-90762080D01*
X88266497Y-90840515D01*
X88467520Y-90880500D01*
X88672480Y-90880500D01*
X88873503Y-90840515D01*
X89062862Y-90762080D01*
X89233280Y-90648209D01*
X89378209Y-90503280D01*
X89492080Y-90332862D01*
X89570515Y-90143503D01*
X89610500Y-89942480D01*
X89610500Y-89737520D01*
X89570515Y-89536497D01*
X89492080Y-89347138D01*
X89378209Y-89176720D01*
X89233280Y-89031791D01*
X89062862Y-88917920D01*
X88873503Y-88839485D01*
X88672480Y-88799500D01*
X88467520Y-88799500D01*
X88266497Y-88839485D01*
X88077138Y-88917920D01*
X87906720Y-89031791D01*
X87761791Y-89176720D01*
X87647920Y-89347138D01*
X87575500Y-89521975D01*
X87575500Y-87618025D01*
X87647920Y-87792862D01*
X87761791Y-87963280D01*
X87906720Y-88108209D01*
X88077138Y-88222080D01*
X88266497Y-88300515D01*
X88467520Y-88340500D01*
X88672480Y-88340500D01*
X88873503Y-88300515D01*
X89062862Y-88222080D01*
X89233280Y-88108209D01*
X89378209Y-87963280D01*
X89492080Y-87792862D01*
X89570515Y-87603503D01*
X89610500Y-87402480D01*
X89610500Y-87197520D01*
X89570515Y-86996497D01*
X89492080Y-86807138D01*
X89378209Y-86636720D01*
X89233280Y-86491791D01*
X89062862Y-86377920D01*
X88873503Y-86299485D01*
X88672480Y-86259500D01*
X88467520Y-86259500D01*
X88266497Y-86299485D01*
X88077138Y-86377920D01*
X87906720Y-86491791D01*
X87761791Y-86636720D01*
X87647920Y-86807138D01*
X87575500Y-86981975D01*
X87575500Y-85078025D01*
X87647920Y-85252862D01*
X87761791Y-85423280D01*
X87906720Y-85568209D01*
X88077138Y-85682080D01*
X88266497Y-85760515D01*
X88467520Y-85800500D01*
X88672480Y-85800500D01*
X88873503Y-85760515D01*
X89062862Y-85682080D01*
X89233280Y-85568209D01*
X89378209Y-85423280D01*
X89492080Y-85252862D01*
X89570515Y-85063503D01*
X89610500Y-84862480D01*
X89610500Y-84657520D01*
X89570515Y-84456497D01*
X89492080Y-84267138D01*
X89378209Y-84096720D01*
X89233280Y-83951791D01*
X89062862Y-83837920D01*
X88873503Y-83759485D01*
X88672480Y-83719500D01*
X88467520Y-83719500D01*
X88266497Y-83759485D01*
X88077138Y-83837920D01*
X87906720Y-83951791D01*
X87761791Y-84096720D01*
X87647920Y-84267138D01*
X87575500Y-84441975D01*
X87575500Y-82538025D01*
X87647920Y-82712862D01*
X87761791Y-82883280D01*
X87906720Y-83028209D01*
X88077138Y-83142080D01*
X88266497Y-83220515D01*
X88467520Y-83260500D01*
X88672480Y-83260500D01*
X88873503Y-83220515D01*
X89062862Y-83142080D01*
X89233280Y-83028209D01*
X89378209Y-82883280D01*
X89492080Y-82712862D01*
X89570515Y-82523503D01*
X89610500Y-82322480D01*
X89610500Y-82117520D01*
X89570515Y-81916497D01*
X89492080Y-81727138D01*
X89378209Y-81556720D01*
X89233280Y-81411791D01*
X89062862Y-81297920D01*
X88873503Y-81219485D01*
X88672480Y-81179500D01*
X88467520Y-81179500D01*
X88266497Y-81219485D01*
X88077138Y-81297920D01*
X87906720Y-81411791D01*
X87761791Y-81556720D01*
X87647920Y-81727138D01*
X87575500Y-81901975D01*
X87575500Y-79998025D01*
X87647920Y-80172862D01*
X87761791Y-80343280D01*
X87906720Y-80488209D01*
X88077138Y-80602080D01*
X88266497Y-80680515D01*
X88467520Y-80720500D01*
X88672480Y-80720500D01*
X88873503Y-80680515D01*
X89062862Y-80602080D01*
X89104828Y-80574039D01*
X89762000Y-81231211D01*
X89762001Y-85617798D01*
X89703325Y-85657004D01*
X89635004Y-85725325D01*
X89581325Y-85805661D01*
X89544350Y-85894927D01*
X89525500Y-85989690D01*
X89525500Y-86086310D01*
X89544350Y-86181073D01*
X89581325Y-86270339D01*
X89635004Y-86350675D01*
X89703325Y-86418996D01*
X89783661Y-86472675D01*
X89872927Y-86509650D01*
X89967690Y-86528500D01*
X90064310Y-86528500D01*
X90159073Y-86509650D01*
X90248339Y-86472675D01*
X90304865Y-86434905D01*
X90304510Y-87296265D01*
X90304500Y-87296365D01*
X90304500Y-87320039D01*
X90304492Y-87339454D01*
X90304500Y-87339536D01*
X90304501Y-89165361D01*
X90302370Y-89187000D01*
X90310874Y-89273352D01*
X90336062Y-89356387D01*
X90376966Y-89432912D01*
X90406050Y-89468350D01*
X90432014Y-89499987D01*
X90448817Y-89513777D01*
X95535339Y-94600300D01*
X95566489Y-94675503D01*
X95620168Y-94755839D01*
X95688489Y-94824160D01*
X95768825Y-94877839D01*
X95844029Y-94908989D01*
X96335761Y-95400722D01*
X96368325Y-95479339D01*
X96422004Y-95559675D01*
X96490325Y-95627996D01*
X96570661Y-95681675D01*
X96645865Y-95712825D01*
X96868589Y-95935550D01*
X96898325Y-96007339D01*
X96952004Y-96087675D01*
X97020325Y-96155996D01*
X97100661Y-96209675D01*
X97189927Y-96246650D01*
X97284690Y-96265500D01*
X97381310Y-96265500D01*
X97476073Y-96246650D01*
X97565339Y-96209675D01*
X97645675Y-96155996D01*
X97695000Y-96106671D01*
X97695001Y-97412798D01*
X97636325Y-97452004D01*
X97568004Y-97520325D01*
X97514325Y-97600661D01*
X97477350Y-97689927D01*
X97458500Y-97784690D01*
X97458500Y-97881310D01*
X97477350Y-97976073D01*
X97514325Y-98065339D01*
X97568004Y-98145675D01*
X97636325Y-98213996D01*
X97716661Y-98267675D01*
X97805927Y-98304650D01*
X97900690Y-98323500D01*
X97997310Y-98323500D01*
X98092073Y-98304650D01*
X98181339Y-98267675D01*
X98261675Y-98213996D01*
X98329996Y-98145675D01*
X98383675Y-98065339D01*
X98420650Y-97976073D01*
X98439500Y-97881310D01*
X98439500Y-97784690D01*
X98420650Y-97689927D01*
X98383675Y-97600661D01*
X98329996Y-97520325D01*
X98261675Y-97452004D01*
X98203000Y-97412798D01*
X98203000Y-95174458D01*
X98204227Y-95162000D01*
X98203000Y-95149542D01*
X98203000Y-95149531D01*
X98199324Y-95112207D01*
X98184800Y-95064328D01*
X98176585Y-95048958D01*
X98161215Y-95020203D01*
X98137422Y-94991212D01*
X98137419Y-94991209D01*
X98129473Y-94981527D01*
X98119791Y-94973581D01*
X92235000Y-89088790D01*
X92235000Y-87209202D01*
X92293675Y-87169996D01*
X92361996Y-87101675D01*
X92415675Y-87021339D01*
X92452650Y-86932073D01*
X92471500Y-86837310D01*
X92471500Y-86740690D01*
X92452650Y-86645927D01*
X92415675Y-86556661D01*
X92361996Y-86476325D01*
X92293675Y-86408004D01*
X92213339Y-86354325D01*
X92124073Y-86317350D01*
X92029310Y-86298500D01*
X91932690Y-86298500D01*
X91837927Y-86317350D01*
X91748661Y-86354325D01*
X91668325Y-86408004D01*
X91600004Y-86476325D01*
X91546325Y-86556661D01*
X91509350Y-86645927D01*
X91490500Y-86740690D01*
X91490500Y-86837310D01*
X91509350Y-86932073D01*
X91546325Y-87021339D01*
X91600004Y-87101675D01*
X91668325Y-87169996D01*
X91727000Y-87209202D01*
X91727001Y-89181532D01*
X91725773Y-89194000D01*
X91730677Y-89243792D01*
X91745200Y-89291671D01*
X91768786Y-89335796D01*
X91792578Y-89364788D01*
X91792587Y-89364797D01*
X91800528Y-89374473D01*
X91810204Y-89382414D01*
X97695000Y-95267210D01*
X97695000Y-95443329D01*
X97645675Y-95394004D01*
X97565339Y-95340325D01*
X97486721Y-95307761D01*
X97268825Y-95089865D01*
X97237675Y-95014661D01*
X97183996Y-94934325D01*
X97115675Y-94866004D01*
X97035339Y-94812325D01*
X96963550Y-94782589D01*
X96466989Y-94286029D01*
X96435839Y-94210825D01*
X96382160Y-94130489D01*
X96313839Y-94062168D01*
X96233503Y-94008489D01*
X96158300Y-93977339D01*
X91185500Y-89004540D01*
X91185500Y-87318009D01*
X91186317Y-85337500D01*
X92402804Y-85337500D01*
X92626500Y-85561197D01*
X92626500Y-85584724D01*
X92595350Y-85659927D01*
X92576500Y-85754690D01*
X92576500Y-85851310D01*
X92595350Y-85946073D01*
X92632325Y-86035339D01*
X92686004Y-86115675D01*
X92754325Y-86183996D01*
X92834661Y-86237675D01*
X92909865Y-86268825D01*
X93300818Y-86659779D01*
X93300824Y-86659784D01*
X93337218Y-86696178D01*
X93351013Y-86712987D01*
X93418087Y-86768034D01*
X93494612Y-86808938D01*
X93577647Y-86834126D01*
X93642364Y-86840500D01*
X93642373Y-86840500D01*
X93663999Y-86842630D01*
X93685625Y-86840500D01*
X96531724Y-86840500D01*
X96606927Y-86871650D01*
X96701690Y-86890500D01*
X96798310Y-86890500D01*
X96893073Y-86871650D01*
X96982339Y-86834675D01*
X97062675Y-86780996D01*
X97130996Y-86712675D01*
X97184675Y-86632339D01*
X97221650Y-86543073D01*
X97240500Y-86448310D01*
X97240500Y-86351690D01*
X97221650Y-86256927D01*
X97184675Y-86167661D01*
X97130996Y-86087325D01*
X97062675Y-86019004D01*
X96982339Y-85965325D01*
X96893073Y-85928350D01*
X96798310Y-85909500D01*
X96701690Y-85909500D01*
X96606927Y-85928350D01*
X96531724Y-85959500D01*
X93846461Y-85959500D01*
X93532825Y-85645865D01*
X93507500Y-85584724D01*
X93507500Y-85400365D01*
X93509630Y-85378736D01*
X93507500Y-85357107D01*
X93507500Y-85357100D01*
X93501126Y-85292383D01*
X93475938Y-85209348D01*
X93435034Y-85132823D01*
X93393779Y-85082554D01*
X93393777Y-85082552D01*
X93379987Y-85065749D01*
X93363183Y-85051958D01*
X92912046Y-84600822D01*
X92898251Y-84584013D01*
X92831177Y-84528966D01*
X92754652Y-84488062D01*
X92671617Y-84462874D01*
X92606900Y-84456500D01*
X92606893Y-84456500D01*
X92585264Y-84454370D01*
X92563635Y-84456500D01*
X91186436Y-84456500D01*
X91185502Y-77986602D01*
X91187630Y-77964999D01*
X91185496Y-77943332D01*
X91185496Y-77943301D01*
X91183303Y-77921069D01*
X91179125Y-77878647D01*
X91179116Y-77878618D01*
X91179113Y-77878585D01*
X91167045Y-77838823D01*
X91153938Y-77795612D01*
X91153921Y-77795580D01*
X91153913Y-77795554D01*
X91135952Y-77761963D01*
X91113034Y-77719087D01*
X91113012Y-77719060D01*
X91112998Y-77719034D01*
X91088661Y-77689389D01*
X91071779Y-77668818D01*
X91071750Y-77668789D01*
X91057941Y-77651968D01*
X91041166Y-77638205D01*
X90246782Y-76843822D01*
X90232987Y-76827013D01*
X90229933Y-76824506D01*
X90933500Y-76824506D01*
X90933500Y-76975494D01*
X90962956Y-77123580D01*
X91020736Y-77263074D01*
X91104620Y-77388615D01*
X91211385Y-77495380D01*
X91336926Y-77579264D01*
X91476420Y-77637044D01*
X91624506Y-77666500D01*
X91775494Y-77666500D01*
X91923580Y-77637044D01*
X92063074Y-77579264D01*
X92188615Y-77495380D01*
X92295380Y-77388615D01*
X92379264Y-77263074D01*
X92437044Y-77123580D01*
X92466500Y-76975494D01*
X92466500Y-76824506D01*
X92437044Y-76676420D01*
X92379264Y-76536926D01*
X92295380Y-76411385D01*
X92188615Y-76304620D01*
X92063074Y-76220736D01*
X91923580Y-76162956D01*
X91775494Y-76133500D01*
X91624506Y-76133500D01*
X91476420Y-76162956D01*
X91336926Y-76220736D01*
X91211385Y-76304620D01*
X91104620Y-76411385D01*
X91020736Y-76536926D01*
X90962956Y-76676420D01*
X90933500Y-76824506D01*
X90229933Y-76824506D01*
X90165913Y-76771966D01*
X90089388Y-76731062D01*
X90006353Y-76705874D01*
X89941636Y-76699500D01*
X89941629Y-76699500D01*
X89920000Y-76697370D01*
X89898371Y-76699500D01*
X89611421Y-76699500D01*
X89611421Y-76290000D01*
X89607743Y-76252656D01*
X89596850Y-76216746D01*
X89579161Y-76183652D01*
X89555355Y-76154645D01*
X89526348Y-76130839D01*
X89514766Y-76124648D01*
X112454500Y-76115584D01*
X112454500Y-79497081D01*
G37*
X112454500Y-79497081D02*
X112430515Y-79376497D01*
X112352080Y-79187138D01*
X112238209Y-79016720D01*
X112093280Y-78871791D01*
X111922862Y-78757920D01*
X111733503Y-78679485D01*
X111532480Y-78639500D01*
X111327520Y-78639500D01*
X111126497Y-78679485D01*
X110937138Y-78757920D01*
X110766720Y-78871791D01*
X110621791Y-79016720D01*
X110507920Y-79187138D01*
X110429485Y-79376497D01*
X110389500Y-79577520D01*
X110389500Y-79782480D01*
X110429485Y-79983503D01*
X110507920Y-80172862D01*
X110535961Y-80214828D01*
X109879204Y-80871586D01*
X109869528Y-80879527D01*
X109861587Y-80889203D01*
X109861578Y-80889212D01*
X109837786Y-80918204D01*
X109814200Y-80962329D01*
X109799677Y-81010208D01*
X109794773Y-81060000D01*
X109796001Y-81072468D01*
X109796000Y-82638848D01*
X108321040Y-84113808D01*
X108311364Y-84121749D01*
X108303423Y-84131425D01*
X108303414Y-84131434D01*
X108279622Y-84160426D01*
X108256036Y-84204551D01*
X108241513Y-84252430D01*
X108236609Y-84302222D01*
X108237837Y-84314690D01*
X108237837Y-84321634D01*
X108179161Y-84360840D01*
X108110840Y-84429161D01*
X108057161Y-84509497D01*
X108020186Y-84598763D01*
X108001336Y-84693526D01*
X108001336Y-84790146D01*
X108020186Y-84884909D01*
X108057161Y-84974175D01*
X108110840Y-85054511D01*
X108179161Y-85122832D01*
X108259497Y-85176511D01*
X108282403Y-85185999D01*
X107000500Y-85185999D01*
X107000500Y-85091690D01*
X106981650Y-84996927D01*
X106944675Y-84907661D01*
X106890996Y-84827325D01*
X106822675Y-84759004D01*
X106742339Y-84705325D01*
X106653073Y-84668350D01*
X106558310Y-84649500D01*
X106461690Y-84649500D01*
X106366927Y-84668350D01*
X106277661Y-84705325D01*
X106197325Y-84759004D01*
X106129004Y-84827325D01*
X106075325Y-84907661D01*
X106038350Y-84996927D01*
X106019500Y-85091690D01*
X106019500Y-85188310D01*
X106026059Y-85221284D01*
X106021797Y-85217786D01*
X105977672Y-85194200D01*
X105929793Y-85179676D01*
X105892469Y-85176000D01*
X105892458Y-85176000D01*
X105880000Y-85174773D01*
X105867542Y-85176000D01*
X105720202Y-85176000D01*
X105680996Y-85117325D01*
X105612675Y-85049004D01*
X105532339Y-84995325D01*
X105443073Y-84958350D01*
X105348310Y-84939500D01*
X105251690Y-84939500D01*
X105156927Y-84958350D01*
X105067661Y-84995325D01*
X104987325Y-85049004D01*
X104919004Y-85117325D01*
X104865325Y-85197661D01*
X104828350Y-85286927D01*
X104821969Y-85319008D01*
X104212826Y-84709865D01*
X104181675Y-84634661D01*
X104127996Y-84554325D01*
X104059675Y-84486004D01*
X103979339Y-84432325D01*
X103909317Y-84403321D01*
X103768032Y-84259192D01*
X103734675Y-84178661D01*
X103680996Y-84098325D01*
X103612675Y-84030004D01*
X103532339Y-83976325D01*
X103443073Y-83939350D01*
X103348310Y-83920500D01*
X103251690Y-83920500D01*
X103156927Y-83939350D01*
X103067661Y-83976325D01*
X102987325Y-84030004D01*
X102919004Y-84098325D01*
X102865325Y-84178661D01*
X102828350Y-84267927D01*
X102809500Y-84362690D01*
X102809500Y-84459310D01*
X102828350Y-84554073D01*
X102865325Y-84643339D01*
X102919004Y-84723675D01*
X102987325Y-84791996D01*
X103067661Y-84845675D01*
X103137684Y-84874679D01*
X103278968Y-85018809D01*
X103312325Y-85099339D01*
X103366004Y-85179675D01*
X103434325Y-85247996D01*
X103514661Y-85301675D01*
X103589865Y-85332826D01*
X104409501Y-86152462D01*
X104409500Y-86578371D01*
X104407370Y-86600000D01*
X104409500Y-86621629D01*
X104409500Y-86621635D01*
X104415874Y-86686352D01*
X104441062Y-86769387D01*
X104481966Y-86845912D01*
X104537013Y-86912987D01*
X104553822Y-86926782D01*
X105152569Y-87525530D01*
X105078733Y-87540217D01*
X105078718Y-87540223D01*
X105037896Y-87527840D01*
X105000572Y-87524164D01*
X105000561Y-87524164D01*
X104988103Y-87522937D01*
X104975645Y-87524164D01*
X104488366Y-87524164D01*
X104449160Y-87465489D01*
X104380839Y-87397168D01*
X104300503Y-87343489D01*
X104211237Y-87306514D01*
X104116474Y-87287664D01*
X104019854Y-87287664D01*
X103925091Y-87306514D01*
X103835825Y-87343489D01*
X103755489Y-87397168D01*
X103687168Y-87465489D01*
X103633489Y-87545825D01*
X103596514Y-87635091D01*
X103577664Y-87729854D01*
X103577664Y-87826474D01*
X103596514Y-87921237D01*
X103633489Y-88010503D01*
X103687168Y-88090839D01*
X103755489Y-88159160D01*
X103835825Y-88212839D01*
X103925091Y-88249814D01*
X104019854Y-88268664D01*
X104116474Y-88268664D01*
X104211237Y-88249814D01*
X104300503Y-88212839D01*
X104380839Y-88159160D01*
X104449160Y-88090839D01*
X104488366Y-88032164D01*
X104731306Y-88032164D01*
X104731306Y-88060177D01*
X104750156Y-88154940D01*
X104783792Y-88236146D01*
X104732661Y-88257325D01*
X104652325Y-88311004D01*
X104584004Y-88379325D01*
X104530325Y-88459661D01*
X104493350Y-88548927D01*
X104474500Y-88643690D01*
X104474500Y-88740310D01*
X104493350Y-88835073D01*
X104530325Y-88924339D01*
X104584004Y-89004675D01*
X104652325Y-89072996D01*
X104732661Y-89126675D01*
X104821927Y-89163650D01*
X104916690Y-89182500D01*
X105013310Y-89182500D01*
X105082522Y-89168732D01*
X105737936Y-89824146D01*
X105724500Y-89891690D01*
X105724500Y-89988310D01*
X105743350Y-90083073D01*
X105780325Y-90172339D01*
X105834004Y-90252675D01*
X105902325Y-90320996D01*
X105982661Y-90374675D01*
X106071927Y-90411650D01*
X106166690Y-90430500D01*
X106263310Y-90430500D01*
X106358073Y-90411650D01*
X106447339Y-90374675D01*
X106527675Y-90320996D01*
X106595996Y-90252675D01*
X106613501Y-90226477D01*
X106613500Y-93933539D01*
X101205866Y-99341174D01*
X101130661Y-99372325D01*
X101050325Y-99426004D01*
X100982004Y-99494325D01*
X100928325Y-99574661D01*
X100891350Y-99663927D01*
X100872500Y-99758690D01*
X100872500Y-99855310D01*
X100891350Y-99950073D01*
X100911501Y-99998721D01*
X100911500Y-100307723D01*
X100880350Y-100382927D01*
X100861500Y-100477690D01*
X100861500Y-100574310D01*
X100880350Y-100669073D01*
X100917325Y-100758339D01*
X100971004Y-100838675D01*
X101039325Y-100906996D01*
X101119661Y-100960675D01*
X101208927Y-100997650D01*
X101303690Y-101016500D01*
X101400310Y-101016500D01*
X101495073Y-100997650D01*
X101584339Y-100960675D01*
X101664675Y-100906996D01*
X101732996Y-100838675D01*
X101786675Y-100758339D01*
X101823650Y-100669073D01*
X101842500Y-100574310D01*
X101842500Y-100477690D01*
X101823650Y-100382927D01*
X101792500Y-100307724D01*
X101792500Y-100047084D01*
X101797675Y-100039339D01*
X101828826Y-99964134D01*
X107350185Y-94442776D01*
X107366987Y-94428987D01*
X107422034Y-94361913D01*
X107462938Y-94285388D01*
X107488126Y-94202353D01*
X107494500Y-94137636D01*
X107494500Y-94137627D01*
X107496630Y-94116001D01*
X107494500Y-94094375D01*
X107494500Y-89798667D01*
X107496630Y-89777038D01*
X107494500Y-89755409D01*
X107494500Y-89755402D01*
X107488126Y-89690685D01*
X107462938Y-89607650D01*
X107422034Y-89531125D01*
X107400860Y-89505325D01*
X107380779Y-89480856D01*
X107380777Y-89480854D01*
X107366987Y-89464051D01*
X107350183Y-89450261D01*
X106380399Y-88480477D01*
X106394650Y-88446073D01*
X106413500Y-88351310D01*
X106413500Y-88254690D01*
X106394650Y-88159927D01*
X106363500Y-88084724D01*
X106363500Y-88002710D01*
X106839268Y-88478478D01*
X106825500Y-88547690D01*
X106825500Y-88644310D01*
X106844350Y-88739073D01*
X106881325Y-88828339D01*
X106935004Y-88908675D01*
X107003325Y-88976996D01*
X107083661Y-89030675D01*
X107172927Y-89067650D01*
X107267690Y-89086500D01*
X107364310Y-89086500D01*
X107459073Y-89067650D01*
X107548339Y-89030675D01*
X107628675Y-88976996D01*
X107696996Y-88908675D01*
X107750675Y-88828339D01*
X107787650Y-88739073D01*
X107806500Y-88644310D01*
X107806500Y-88547690D01*
X107787650Y-88452927D01*
X107750675Y-88363661D01*
X107696996Y-88283325D01*
X107628675Y-88215004D01*
X107548339Y-88161325D01*
X107459073Y-88124350D01*
X107364310Y-88105500D01*
X107267690Y-88105500D01*
X107198478Y-88119268D01*
X106704000Y-87624790D01*
X106704000Y-86888882D01*
X106769681Y-86823201D01*
X106838893Y-86836969D01*
X106935513Y-86836969D01*
X107030276Y-86818119D01*
X107119542Y-86781144D01*
X107199878Y-86727465D01*
X107268199Y-86659144D01*
X107321878Y-86578808D01*
X107358853Y-86489542D01*
X107365183Y-86457717D01*
X107806000Y-86898534D01*
X107806001Y-87489798D01*
X107747325Y-87529004D01*
X107679004Y-87597325D01*
X107625325Y-87677661D01*
X107588350Y-87766927D01*
X107569500Y-87861690D01*
X107569500Y-87958310D01*
X107588350Y-88053073D01*
X107625325Y-88142339D01*
X107679004Y-88222675D01*
X107747325Y-88290996D01*
X107827661Y-88344675D01*
X107916927Y-88381650D01*
X108011690Y-88400500D01*
X108108310Y-88400500D01*
X108203073Y-88381650D01*
X108292339Y-88344675D01*
X108372675Y-88290996D01*
X108440996Y-88222675D01*
X108494675Y-88142339D01*
X108531650Y-88053073D01*
X108550500Y-87958310D01*
X108550500Y-87861690D01*
X108531650Y-87766927D01*
X108494675Y-87677661D01*
X108440996Y-87597325D01*
X108372675Y-87529004D01*
X108314000Y-87489798D01*
X108314000Y-86805781D01*
X108315227Y-86793323D01*
X108314000Y-86780865D01*
X108314000Y-86780855D01*
X108310324Y-86743531D01*
X108295800Y-86695652D01*
X108293489Y-86691328D01*
X108272214Y-86651526D01*
X108248421Y-86622535D01*
X108248419Y-86622533D01*
X108240473Y-86612851D01*
X108230791Y-86604905D01*
X108038826Y-86412940D01*
X108067522Y-86407231D01*
X109131087Y-87470797D01*
X109139028Y-87480473D01*
X109148704Y-87488414D01*
X109148712Y-87488422D01*
X109177704Y-87512214D01*
X109221829Y-87535800D01*
X109269708Y-87550324D01*
X109307032Y-87554000D01*
X109307043Y-87554000D01*
X109319501Y-87555227D01*
X109331959Y-87554000D01*
X110419638Y-87554000D01*
X110429485Y-87603503D01*
X110507920Y-87792862D01*
X110621791Y-87963280D01*
X110766720Y-88108209D01*
X110937138Y-88222080D01*
X111126497Y-88300515D01*
X111327520Y-88340500D01*
X111532480Y-88340500D01*
X111733503Y-88300515D01*
X111922862Y-88222080D01*
X112093280Y-88108209D01*
X112238209Y-87963280D01*
X112352080Y-87792862D01*
X112430515Y-87603503D01*
X112454500Y-87482918D01*
X112454500Y-89657082D01*
X112430515Y-89536497D01*
X112352080Y-89347138D01*
X112238209Y-89176720D01*
X112093280Y-89031791D01*
X111922862Y-88917920D01*
X111733503Y-88839485D01*
X111532480Y-88799500D01*
X111327520Y-88799500D01*
X111126497Y-88839485D01*
X110937138Y-88917920D01*
X110766720Y-89031791D01*
X110621791Y-89176720D01*
X110507920Y-89347138D01*
X110429485Y-89536497D01*
X110389500Y-89737520D01*
X110389500Y-89942480D01*
X110429485Y-90143503D01*
X110507920Y-90332862D01*
X110621791Y-90503280D01*
X110766720Y-90648209D01*
X110937138Y-90762080D01*
X111126497Y-90840515D01*
X111327520Y-90880500D01*
X111532480Y-90880500D01*
X111733503Y-90840515D01*
X111922862Y-90762080D01*
X112093280Y-90648209D01*
X112238209Y-90503280D01*
X112352080Y-90332862D01*
X112430515Y-90143503D01*
X112454500Y-90022918D01*
X112454500Y-94737083D01*
X112430515Y-94616497D01*
X112352080Y-94427138D01*
X112238209Y-94256720D01*
X112093280Y-94111791D01*
X111922862Y-93997920D01*
X111733503Y-93919485D01*
X111532480Y-93879500D01*
X111327520Y-93879500D01*
X111126497Y-93919485D01*
X110937138Y-93997920D01*
X110766720Y-94111791D01*
X110621791Y-94256720D01*
X110507920Y-94427138D01*
X110429485Y-94616497D01*
X110389500Y-94817520D01*
X110389500Y-95022480D01*
X110429485Y-95223503D01*
X110507920Y-95412862D01*
X110621791Y-95583280D01*
X110766720Y-95728209D01*
X110937138Y-95842080D01*
X111126497Y-95920515D01*
X111327520Y-95960500D01*
X111532480Y-95960500D01*
X111733503Y-95920515D01*
X111922862Y-95842080D01*
X112093280Y-95728209D01*
X112238209Y-95583280D01*
X112352080Y-95412862D01*
X112430515Y-95223503D01*
X112454500Y-95102917D01*
X112454500Y-97277083D01*
X112430515Y-97156497D01*
X112352080Y-96967138D01*
X112238209Y-96796720D01*
X112093280Y-96651791D01*
X111922862Y-96537920D01*
X111733503Y-96459485D01*
X111532480Y-96419500D01*
X111327520Y-96419500D01*
X111126497Y-96459485D01*
X110937138Y-96537920D01*
X110766720Y-96651791D01*
X110621791Y-96796720D01*
X110507920Y-96967138D01*
X110429485Y-97156497D01*
X110389500Y-97357520D01*
X110389500Y-97562480D01*
X110429485Y-97763503D01*
X110507920Y-97952862D01*
X110621791Y-98123280D01*
X110766720Y-98268209D01*
X110937138Y-98382080D01*
X111126497Y-98460515D01*
X111327520Y-98500500D01*
X111532480Y-98500500D01*
X111733503Y-98460515D01*
X111922862Y-98382080D01*
X112093280Y-98268209D01*
X112238209Y-98123280D01*
X112352080Y-97952862D01*
X112430515Y-97763503D01*
X112454500Y-97642917D01*
X112454500Y-99817083D01*
X112430515Y-99696497D01*
X112352080Y-99507138D01*
X112238209Y-99336720D01*
X112093280Y-99191791D01*
X111922862Y-99077920D01*
X111733503Y-98999485D01*
X111532480Y-98959500D01*
X111327520Y-98959500D01*
X111126497Y-98999485D01*
X110937138Y-99077920D01*
X110766720Y-99191791D01*
X110621791Y-99336720D01*
X110507920Y-99507138D01*
X110429485Y-99696497D01*
X110389500Y-99897520D01*
X110389500Y-100102480D01*
X110429485Y-100303503D01*
X110507920Y-100492862D01*
X110621791Y-100663280D01*
X110766720Y-100808209D01*
X110937138Y-100922080D01*
X111126497Y-101000515D01*
X111327520Y-101040500D01*
X111532480Y-101040500D01*
X111733503Y-101000515D01*
X111922862Y-100922080D01*
X112093280Y-100808209D01*
X112238209Y-100663280D01*
X112352080Y-100492862D01*
X112430515Y-100303503D01*
X112454501Y-100182917D01*
X112454501Y-102357083D01*
X112430515Y-102236497D01*
X112352080Y-102047138D01*
X112238209Y-101876720D01*
X112093280Y-101731791D01*
X111922862Y-101617920D01*
X111733503Y-101539485D01*
X111532480Y-101499500D01*
X111327520Y-101499500D01*
X111126497Y-101539485D01*
X110937138Y-101617920D01*
X110766720Y-101731791D01*
X110621791Y-101876720D01*
X110507920Y-102047138D01*
X110429485Y-102236497D01*
X110389500Y-102437520D01*
X110389500Y-102642480D01*
X110429485Y-102843503D01*
X110507920Y-103032862D01*
X110621791Y-103203280D01*
X110766720Y-103348209D01*
X110937138Y-103462080D01*
X111126497Y-103540515D01*
X111327520Y-103580500D01*
X111532480Y-103580500D01*
X111733503Y-103540515D01*
X111922862Y-103462080D01*
X112093280Y-103348209D01*
X112238209Y-103203280D01*
X112352080Y-103032862D01*
X112430515Y-102843503D01*
X112454501Y-102722917D01*
X112454501Y-104897084D01*
X112430515Y-104776497D01*
X112352080Y-104587138D01*
X112238209Y-104416720D01*
X112093280Y-104271791D01*
X111922862Y-104157920D01*
X111733503Y-104079485D01*
X111532480Y-104039500D01*
X111327520Y-104039500D01*
X111126497Y-104079485D01*
X110937138Y-104157920D01*
X110766720Y-104271791D01*
X110621791Y-104416720D01*
X110507920Y-104587138D01*
X110429485Y-104776497D01*
X110389500Y-104977520D01*
X110389500Y-105182480D01*
X110429485Y-105383503D01*
X110507920Y-105572862D01*
X110621791Y-105743280D01*
X110766720Y-105888209D01*
X110937138Y-106002080D01*
X111126497Y-106080515D01*
X111327520Y-106120500D01*
X111532480Y-106120500D01*
X111733503Y-106080515D01*
X111922862Y-106002080D01*
X112093280Y-105888209D01*
X112238209Y-105743280D01*
X112352080Y-105572862D01*
X112430515Y-105383503D01*
X112454501Y-105262916D01*
X112454501Y-107437084D01*
X112430515Y-107316497D01*
X112352080Y-107127138D01*
X112238209Y-106956720D01*
X112093280Y-106811791D01*
X111922862Y-106697920D01*
X111733503Y-106619485D01*
X111532480Y-106579500D01*
X111327520Y-106579500D01*
X111126497Y-106619485D01*
X110937138Y-106697920D01*
X110766720Y-106811791D01*
X110621791Y-106956720D01*
X110507920Y-107127138D01*
X110429485Y-107316497D01*
X110389500Y-107517520D01*
X110389500Y-107722480D01*
X110429485Y-107923503D01*
X110507920Y-108112862D01*
X110621791Y-108283280D01*
X110766720Y-108428209D01*
X110937138Y-108542080D01*
X111126497Y-108620515D01*
X111327520Y-108660500D01*
X111532480Y-108660500D01*
X111733503Y-108620515D01*
X111922862Y-108542080D01*
X112093280Y-108428209D01*
X112238209Y-108283280D01*
X112352080Y-108112862D01*
X112430515Y-107923503D01*
X112454501Y-107802916D01*
X112454501Y-109977084D01*
X112430515Y-109856497D01*
X112352080Y-109667138D01*
X112238209Y-109496720D01*
X112093280Y-109351791D01*
X111922862Y-109237920D01*
X111733503Y-109159485D01*
X111532480Y-109119500D01*
X111327520Y-109119500D01*
X111126497Y-109159485D01*
X110937138Y-109237920D01*
X110766720Y-109351791D01*
X110621791Y-109496720D01*
X110507920Y-109667138D01*
X110429485Y-109856497D01*
X110389500Y-110057520D01*
X110389500Y-110262480D01*
X110429485Y-110463503D01*
X110507920Y-110652862D01*
X110621791Y-110823280D01*
X110766720Y-110968209D01*
X110937138Y-111082080D01*
X111126497Y-111160515D01*
X111327520Y-111200500D01*
X111532480Y-111200500D01*
X111733503Y-111160515D01*
X111922862Y-111082080D01*
X112093280Y-110968209D01*
X112238209Y-110823280D01*
X112352080Y-110652862D01*
X112430515Y-110463503D01*
X112454501Y-110342916D01*
X112454501Y-112517084D01*
X112430515Y-112396497D01*
X112352080Y-112207138D01*
X112238209Y-112036720D01*
X112093280Y-111891791D01*
X111922862Y-111777920D01*
X111733503Y-111699485D01*
X111532480Y-111659500D01*
X111327520Y-111659500D01*
X111126497Y-111699485D01*
X110937138Y-111777920D01*
X110766720Y-111891791D01*
X110621791Y-112036720D01*
X110507920Y-112207138D01*
X110429485Y-112396497D01*
X110389500Y-112597520D01*
X110389500Y-112802480D01*
X110429485Y-113003503D01*
X110507920Y-113192862D01*
X110621791Y-113363280D01*
X110766720Y-113508209D01*
X110937138Y-113622080D01*
X111126497Y-113700515D01*
X111327520Y-113740500D01*
X111532480Y-113740500D01*
X111733503Y-113700515D01*
X111922862Y-113622080D01*
X112093280Y-113508209D01*
X112238209Y-113363280D01*
X112352080Y-113192862D01*
X112430515Y-113003503D01*
X112454501Y-112882916D01*
X112454501Y-115057085D01*
X112430515Y-114936497D01*
X112352080Y-114747138D01*
X112238209Y-114576720D01*
X112093280Y-114431791D01*
X111922862Y-114317920D01*
X111733503Y-114239485D01*
X111532480Y-114199500D01*
X111327520Y-114199500D01*
X111126497Y-114239485D01*
X110937138Y-114317920D01*
X110766720Y-114431791D01*
X110621791Y-114576720D01*
X110507920Y-114747138D01*
X110429485Y-114936497D01*
X110389500Y-115137520D01*
X110389500Y-115342480D01*
X110429485Y-115543503D01*
X110507920Y-115732862D01*
X110621791Y-115903280D01*
X110766720Y-116048209D01*
X110937138Y-116162080D01*
X111126497Y-116240515D01*
X111327520Y-116280500D01*
X111532480Y-116280500D01*
X111733503Y-116240515D01*
X111922862Y-116162080D01*
X112093280Y-116048209D01*
X112238209Y-115903280D01*
X112352080Y-115732862D01*
X112430515Y-115543503D01*
X112454501Y-115422915D01*
X112454501Y-117597085D01*
X112430515Y-117476497D01*
X112352080Y-117287138D01*
X112238209Y-117116720D01*
X112093280Y-116971791D01*
X111922862Y-116857920D01*
X111733503Y-116779485D01*
X111532480Y-116739500D01*
X111327520Y-116739500D01*
X111126497Y-116779485D01*
X110937138Y-116857920D01*
X110895172Y-116885961D01*
X110317000Y-116307790D01*
X110317000Y-98441793D01*
X110318227Y-98429335D01*
X110317000Y-98416877D01*
X110317000Y-98416867D01*
X110313324Y-98379543D01*
X110298800Y-98331664D01*
X110294436Y-98323500D01*
X110275214Y-98287538D01*
X110251421Y-98258547D01*
X110251419Y-98258545D01*
X110243473Y-98248863D01*
X110233791Y-98240917D01*
X109456232Y-97463358D01*
X109470000Y-97394146D01*
X109470000Y-97297526D01*
X109451150Y-97202763D01*
X109414175Y-97113497D01*
X109360496Y-97033161D01*
X109292175Y-96964840D01*
X109211839Y-96911161D01*
X109122573Y-96874186D01*
X109027810Y-96855336D01*
X108931190Y-96855336D01*
X108836427Y-96874186D01*
X108747161Y-96911161D01*
X108666825Y-96964840D01*
X108598504Y-97033161D01*
X108590220Y-97045559D01*
X108559996Y-97000325D01*
X108491675Y-96932004D01*
X108411339Y-96878325D01*
X108322073Y-96841350D01*
X108227310Y-96822500D01*
X108130690Y-96822500D01*
X108035927Y-96841350D01*
X107946661Y-96878325D01*
X107875858Y-96925634D01*
X107862339Y-96892997D01*
X107808660Y-96812661D01*
X107740339Y-96744340D01*
X107660003Y-96690661D01*
X107570737Y-96653686D01*
X107475974Y-96634836D01*
X107379354Y-96634836D01*
X107284591Y-96653686D01*
X107195325Y-96690661D01*
X107114989Y-96744340D01*
X107046668Y-96812661D01*
X106992989Y-96892997D01*
X106956014Y-96982263D01*
X106937164Y-97077026D01*
X106937164Y-97173646D01*
X106956014Y-97268409D01*
X106992989Y-97357675D01*
X107046668Y-97438011D01*
X107114989Y-97506332D01*
X107195325Y-97560011D01*
X107284591Y-97596986D01*
X107379354Y-97615836D01*
X107396684Y-97615836D01*
X108883001Y-99102153D01*
X108883000Y-120554542D01*
X108881773Y-120567000D01*
X108883000Y-120579458D01*
X108883000Y-120579468D01*
X108886676Y-120616792D01*
X108901200Y-120664671D01*
X108924786Y-120708797D01*
X108938349Y-120725323D01*
X108948578Y-120737788D01*
X108948581Y-120737791D01*
X108956527Y-120747473D01*
X108966209Y-120755419D01*
X110535961Y-122325171D01*
X110507920Y-122367138D01*
X110429485Y-122556497D01*
X110389500Y-122757520D01*
X110389500Y-122962480D01*
X110429485Y-123163503D01*
X110507920Y-123352862D01*
X110621791Y-123523280D01*
X110766720Y-123668209D01*
X110937138Y-123782080D01*
X111126497Y-123860515D01*
X111247081Y-123884500D01*
X88752919Y-123884500D01*
X88873503Y-123860515D01*
X89062862Y-123782080D01*
X89233280Y-123668209D01*
X89378209Y-123523280D01*
X89492080Y-123352862D01*
X89570515Y-123163503D01*
X89610500Y-122962480D01*
X89610500Y-122757520D01*
X89570515Y-122556497D01*
X89492080Y-122367138D01*
X89378209Y-122196720D01*
X89233280Y-122051791D01*
X89062862Y-121937920D01*
X88873503Y-121859485D01*
X88672480Y-121819500D01*
X88467520Y-121819500D01*
X88266497Y-121859485D01*
X88077138Y-121937920D01*
X87906720Y-122051791D01*
X87761791Y-122196720D01*
X87647920Y-122367138D01*
X87575500Y-122541975D01*
X87575500Y-121424506D01*
X106433500Y-121424506D01*
X106433500Y-121575494D01*
X106462956Y-121723580D01*
X106520736Y-121863074D01*
X106604620Y-121988615D01*
X106711385Y-122095380D01*
X106836926Y-122179264D01*
X106976420Y-122237044D01*
X107124506Y-122266500D01*
X107275494Y-122266500D01*
X107423580Y-122237044D01*
X107563074Y-122179264D01*
X107688615Y-122095380D01*
X107795380Y-121988615D01*
X107879264Y-121863074D01*
X107937044Y-121723580D01*
X107966500Y-121575494D01*
X107966500Y-121424506D01*
X107937044Y-121276420D01*
X107879264Y-121136926D01*
X107795380Y-121011385D01*
X107688615Y-120904620D01*
X107563074Y-120820736D01*
X107423580Y-120762956D01*
X107275494Y-120733500D01*
X107124506Y-120733500D01*
X106976420Y-120762956D01*
X106836926Y-120820736D01*
X106711385Y-120904620D01*
X106604620Y-121011385D01*
X106520736Y-121136926D01*
X106462956Y-121276420D01*
X106433500Y-121424506D01*
X87575500Y-121424506D01*
X87575500Y-120638025D01*
X87647920Y-120812862D01*
X87761791Y-120983280D01*
X87906720Y-121128209D01*
X88077138Y-121242080D01*
X88266497Y-121320515D01*
X88467520Y-121360500D01*
X88672480Y-121360500D01*
X88873503Y-121320515D01*
X89062862Y-121242080D01*
X89233280Y-121128209D01*
X89378209Y-120983280D01*
X89492080Y-120812862D01*
X89570515Y-120623503D01*
X89610500Y-120422480D01*
X89610500Y-120217520D01*
X89570515Y-120016497D01*
X89492080Y-119827138D01*
X89453624Y-119769586D01*
X90921520Y-118301690D01*
X96619500Y-118301690D01*
X96619500Y-118398310D01*
X96638350Y-118493073D01*
X96675325Y-118582339D01*
X96729004Y-118662675D01*
X96797325Y-118730996D01*
X96877661Y-118784675D01*
X96966927Y-118821650D01*
X97061690Y-118840500D01*
X97158310Y-118840500D01*
X97253073Y-118821650D01*
X97342339Y-118784675D01*
X97422675Y-118730996D01*
X97490996Y-118662675D01*
X97544675Y-118582339D01*
X97581650Y-118493073D01*
X97600500Y-118398310D01*
X97600500Y-118301690D01*
X102399500Y-118301690D01*
X102399500Y-118398310D01*
X102418350Y-118493073D01*
X102455325Y-118582339D01*
X102509004Y-118662675D01*
X102577325Y-118730996D01*
X102657661Y-118784675D01*
X102746927Y-118821650D01*
X102841690Y-118840500D01*
X102938310Y-118840500D01*
X103033073Y-118821650D01*
X103122339Y-118784675D01*
X103202675Y-118730996D01*
X103270996Y-118662675D01*
X103324675Y-118582339D01*
X103361650Y-118493073D01*
X103380500Y-118398310D01*
X103380500Y-118301690D01*
X103361650Y-118206927D01*
X103324675Y-118117661D01*
X103270996Y-118037325D01*
X103202675Y-117969004D01*
X103122339Y-117915325D01*
X103033073Y-117878350D01*
X102938310Y-117859500D01*
X102841690Y-117859500D01*
X102746927Y-117878350D01*
X102657661Y-117915325D01*
X102577325Y-117969004D01*
X102509004Y-118037325D01*
X102455325Y-118117661D01*
X102418350Y-118206927D01*
X102399500Y-118301690D01*
X97600500Y-118301690D01*
X97581650Y-118206927D01*
X97544675Y-118117661D01*
X97490996Y-118037325D01*
X97422675Y-117969004D01*
X97342339Y-117915325D01*
X97253073Y-117878350D01*
X97158310Y-117859500D01*
X97061690Y-117859500D01*
X96966927Y-117878350D01*
X96877661Y-117915325D01*
X96797325Y-117969004D01*
X96729004Y-118037325D01*
X96675325Y-118117661D01*
X96638350Y-118206927D01*
X96619500Y-118301690D01*
X90921520Y-118301690D01*
X91682791Y-117540419D01*
X91692473Y-117532473D01*
X91700421Y-117522789D01*
X91724214Y-117493798D01*
X91747800Y-117449672D01*
X91762324Y-117401793D01*
X91766000Y-117364469D01*
X91766000Y-117364459D01*
X91767227Y-117352001D01*
X91766000Y-117339543D01*
X91766000Y-107892210D01*
X94184500Y-105473710D01*
X94184500Y-105530310D01*
X94203350Y-105625073D01*
X94240325Y-105714339D01*
X94294004Y-105794675D01*
X94362325Y-105862996D01*
X94442661Y-105916675D01*
X94531927Y-105953650D01*
X94626690Y-105972500D01*
X94723310Y-105972500D01*
X94818073Y-105953650D01*
X94907339Y-105916675D01*
X94987675Y-105862996D01*
X95055996Y-105794675D01*
X95109675Y-105714339D01*
X95146650Y-105625073D01*
X95165500Y-105530310D01*
X95165500Y-105433690D01*
X95151732Y-105364478D01*
X95539500Y-104976711D01*
X95539500Y-105045810D01*
X95558350Y-105140573D01*
X95595325Y-105229839D01*
X95649004Y-105310175D01*
X95717325Y-105378496D01*
X95797661Y-105432175D01*
X95886927Y-105469150D01*
X95920959Y-105475920D01*
X96055427Y-105610388D01*
X93547864Y-108117953D01*
X93535830Y-108127829D01*
X93525954Y-108139863D01*
X93525953Y-108139864D01*
X93496403Y-108175871D01*
X93467106Y-108230680D01*
X93449067Y-108290152D01*
X93442975Y-108352000D01*
X93444501Y-108367492D01*
X93444500Y-114111829D01*
X93379004Y-114177325D01*
X93325325Y-114257661D01*
X93288350Y-114346927D01*
X93269500Y-114441690D01*
X93269500Y-114538310D01*
X93277668Y-114579372D01*
X93262865Y-114594175D01*
X93187661Y-114625325D01*
X93107325Y-114679004D01*
X93039004Y-114747325D01*
X92985325Y-114827661D01*
X92948350Y-114916927D01*
X92929500Y-115011690D01*
X92929500Y-115108310D01*
X92948350Y-115203073D01*
X92985325Y-115292339D01*
X93039004Y-115372675D01*
X93107325Y-115440996D01*
X93187661Y-115494675D01*
X93276927Y-115531650D01*
X93371690Y-115550500D01*
X93468310Y-115550500D01*
X93563073Y-115531650D01*
X93652339Y-115494675D01*
X93732675Y-115440996D01*
X93800996Y-115372675D01*
X93854675Y-115292339D01*
X93885825Y-115217135D01*
X94056183Y-115046778D01*
X94072987Y-115032987D01*
X94090466Y-115011690D01*
X94128034Y-114965913D01*
X94168938Y-114889388D01*
X94194126Y-114806353D01*
X94196436Y-114782894D01*
X94200500Y-114741635D01*
X94200500Y-114741629D01*
X94202630Y-114720000D01*
X94201288Y-114706374D01*
X94224638Y-114650000D01*
X97101098Y-114650000D01*
X97103501Y-114674396D01*
X97103500Y-115475611D01*
X97103500Y-115475612D01*
X97103501Y-116424389D01*
X97110685Y-116497331D01*
X97139076Y-116590922D01*
X97185179Y-116677175D01*
X97247224Y-116752777D01*
X97322826Y-116814822D01*
X97409079Y-116860925D01*
X97502670Y-116889316D01*
X97600000Y-116898902D01*
X97697331Y-116889316D01*
X97790922Y-116860925D01*
X97877175Y-116814822D01*
X97952777Y-116752777D01*
X98014822Y-116677175D01*
X98060925Y-116590922D01*
X98089316Y-116497331D01*
X98096500Y-116424389D01*
X98096500Y-115126500D01*
X99152039Y-115126500D01*
X99104825Y-115197161D01*
X99067850Y-115286427D01*
X99049000Y-115381190D01*
X99049000Y-115477810D01*
X99067850Y-115572573D01*
X99104825Y-115661839D01*
X99158504Y-115742175D01*
X99226825Y-115810496D01*
X99307161Y-115864175D01*
X99396427Y-115901150D01*
X99491190Y-115920000D01*
X99499475Y-115920000D01*
X99499475Y-116040298D01*
X99440800Y-116079504D01*
X99372479Y-116147825D01*
X99318800Y-116228161D01*
X99281825Y-116317427D01*
X99262975Y-116412190D01*
X99262975Y-116508810D01*
X99281825Y-116603573D01*
X99318800Y-116692839D01*
X99372479Y-116773175D01*
X99440800Y-116841496D01*
X99521136Y-116895175D01*
X99610402Y-116932150D01*
X99705165Y-116951000D01*
X99801785Y-116951000D01*
X99896548Y-116932150D01*
X99985814Y-116895175D01*
X100066150Y-116841496D01*
X100134471Y-116773175D01*
X100188150Y-116692839D01*
X100225125Y-116603573D01*
X100243975Y-116508810D01*
X100243975Y-116412190D01*
X100225125Y-116317427D01*
X100188150Y-116228161D01*
X100134471Y-116147825D01*
X100066150Y-116079504D01*
X100007475Y-116040298D01*
X100007475Y-115655932D01*
X100008702Y-115643474D01*
X100007475Y-115631016D01*
X100007475Y-115631006D01*
X100003799Y-115593682D01*
X100003210Y-115591741D01*
X100011150Y-115572573D01*
X100030000Y-115477810D01*
X100030000Y-115381190D01*
X100011150Y-115286427D01*
X99974175Y-115197161D01*
X99926961Y-115126500D01*
X101903500Y-115126500D01*
X101903500Y-115475612D01*
X101903501Y-116424389D01*
X101910685Y-116497331D01*
X101939076Y-116590922D01*
X101985179Y-116677175D01*
X102047224Y-116752777D01*
X102122826Y-116814822D01*
X102209079Y-116860925D01*
X102302670Y-116889316D01*
X102400000Y-116898902D01*
X102497331Y-116889316D01*
X102590922Y-116860925D01*
X102677175Y-116814822D01*
X102752777Y-116752777D01*
X102814822Y-116677175D01*
X102860925Y-116590922D01*
X102889316Y-116497331D01*
X102896500Y-116424389D01*
X102896500Y-114654389D01*
X102898902Y-114630000D01*
X102889316Y-114532669D01*
X102860925Y-114439078D01*
X102814822Y-114352825D01*
X102752777Y-114277223D01*
X102677175Y-114215178D01*
X102590922Y-114169075D01*
X102497331Y-114140684D01*
X102424389Y-114133500D01*
X102400000Y-114131098D01*
X102375612Y-114133500D01*
X97644377Y-114133500D01*
X97619999Y-114131099D01*
X97595621Y-114133500D01*
X97595611Y-114133500D01*
X97522669Y-114140684D01*
X97429078Y-114169075D01*
X97342825Y-114215178D01*
X97267223Y-114277223D01*
X97258206Y-114288210D01*
X97247224Y-114297223D01*
X97231677Y-114316167D01*
X97231676Y-114316168D01*
X97185178Y-114372825D01*
X97139075Y-114459080D01*
X97110685Y-114552669D01*
X97101098Y-114650000D01*
X94224638Y-114650000D01*
X94231650Y-114633073D01*
X94250500Y-114538310D01*
X94250500Y-114441690D01*
X94231650Y-114346927D01*
X94194675Y-114257661D01*
X94140996Y-114177325D01*
X94075500Y-114111829D01*
X94075500Y-108482683D01*
X96545685Y-106012500D01*
X96638310Y-106012500D01*
X96733073Y-105993650D01*
X96822339Y-105956675D01*
X96902675Y-105902996D01*
X96970996Y-105834675D01*
X97024675Y-105754339D01*
X97061650Y-105665073D01*
X97080500Y-105570310D01*
X97080500Y-105473690D01*
X97078102Y-105461635D01*
X97097030Y-105463499D01*
X97097041Y-105463499D01*
X97109499Y-105464726D01*
X97121957Y-105463499D01*
X99705779Y-105463499D01*
X99718237Y-105464726D01*
X99730695Y-105463499D01*
X99730706Y-105463499D01*
X99768030Y-105459823D01*
X99815909Y-105445299D01*
X99860034Y-105421713D01*
X99876560Y-105408150D01*
X99889025Y-105397921D01*
X99889028Y-105397918D01*
X99898710Y-105389972D01*
X99906656Y-105380290D01*
X100470638Y-104816309D01*
X100537325Y-104882996D01*
X100617661Y-104936675D01*
X100706927Y-104973650D01*
X100801690Y-104992500D01*
X100898310Y-104992500D01*
X100993073Y-104973650D01*
X101082339Y-104936675D01*
X101162675Y-104882996D01*
X101230996Y-104814675D01*
X101284675Y-104734339D01*
X101321650Y-104645073D01*
X101340500Y-104550310D01*
X101340500Y-104453690D01*
X101321650Y-104358927D01*
X101284675Y-104269661D01*
X101230996Y-104189325D01*
X101162675Y-104121004D01*
X101082339Y-104067325D01*
X100993073Y-104030350D01*
X100898310Y-104011500D01*
X100801690Y-104011500D01*
X100706927Y-104030350D01*
X100617661Y-104067325D01*
X100537325Y-104121004D01*
X100469004Y-104189325D01*
X100430317Y-104247224D01*
X100425736Y-104246773D01*
X100413278Y-104248000D01*
X100413267Y-104248000D01*
X100375943Y-104251676D01*
X100328064Y-104266200D01*
X100283939Y-104289786D01*
X100254948Y-104313578D01*
X100254945Y-104313581D01*
X100245263Y-104321527D01*
X100237317Y-104331209D01*
X99613027Y-104955499D01*
X97214709Y-104955499D01*
X96595419Y-104336209D01*
X96587473Y-104326527D01*
X96577791Y-104318581D01*
X96577788Y-104318578D01*
X96565323Y-104308349D01*
X96548797Y-104294786D01*
X96504672Y-104271200D01*
X96456793Y-104256676D01*
X96419469Y-104253000D01*
X96419458Y-104253000D01*
X96407000Y-104251773D01*
X96394542Y-104253000D01*
X95662458Y-104253000D01*
X95650000Y-104251773D01*
X95637542Y-104253000D01*
X95637531Y-104253000D01*
X95600207Y-104256676D01*
X95552328Y-104271200D01*
X95508203Y-104294786D01*
X95479211Y-104318578D01*
X95479203Y-104318586D01*
X95469527Y-104326527D01*
X95461586Y-104336203D01*
X94792522Y-105005268D01*
X94723310Y-104991500D01*
X94666710Y-104991500D01*
X99623500Y-100034710D01*
X99623500Y-100113310D01*
X99642350Y-100208073D01*
X99679325Y-100297339D01*
X99733004Y-100377675D01*
X99801325Y-100445996D01*
X99857001Y-100483197D01*
X99857000Y-100668500D01*
X99050000Y-100668500D01*
X99037612Y-100669720D01*
X99025700Y-100673334D01*
X99014721Y-100679202D01*
X99005099Y-100687099D01*
X98997202Y-100696721D01*
X98991334Y-100707700D01*
X98987720Y-100719612D01*
X98986500Y-100732000D01*
X98986500Y-103582000D01*
X98987720Y-103594388D01*
X98991334Y-103606300D01*
X98997202Y-103617279D01*
X99005099Y-103626901D01*
X99014721Y-103634798D01*
X99025700Y-103640666D01*
X99037612Y-103644280D01*
X99050000Y-103645500D01*
X100825000Y-103645500D01*
X100837388Y-103644280D01*
X100849300Y-103640666D01*
X100860279Y-103634798D01*
X100869901Y-103626901D01*
X100877798Y-103617279D01*
X100883666Y-103606300D01*
X100887280Y-103594388D01*
X100888500Y-103582000D01*
X100888500Y-102370710D01*
X101459001Y-102941211D01*
X101459000Y-104905790D01*
X98346790Y-108018000D01*
X95964458Y-108018000D01*
X95952000Y-108016773D01*
X95939542Y-108018000D01*
X95939531Y-108018000D01*
X95902207Y-108021676D01*
X95858370Y-108034974D01*
X95854328Y-108036200D01*
X95810203Y-108059786D01*
X95781211Y-108083578D01*
X95781203Y-108083586D01*
X95771527Y-108091527D01*
X95763586Y-108101203D01*
X94504204Y-109360586D01*
X94494528Y-109368527D01*
X94486587Y-109378203D01*
X94486578Y-109378212D01*
X94462786Y-109407204D01*
X94439200Y-109451329D01*
X94433036Y-109471650D01*
X94425432Y-109496720D01*
X94424677Y-109499208D01*
X94419773Y-109549000D01*
X94421001Y-109561468D01*
X94421000Y-110592542D01*
X94419773Y-110605000D01*
X94421000Y-110617458D01*
X94421000Y-110617468D01*
X94424676Y-110654792D01*
X94439200Y-110702671D01*
X94462786Y-110746797D01*
X94471980Y-110758000D01*
X94486578Y-110775788D01*
X94486581Y-110775791D01*
X94494527Y-110785473D01*
X94504209Y-110793419D01*
X95861581Y-112150791D01*
X95869527Y-112160473D01*
X95879209Y-112168419D01*
X95879212Y-112168422D01*
X95908203Y-112192215D01*
X95927446Y-112202500D01*
X95952328Y-112215800D01*
X96000207Y-112230324D01*
X96037531Y-112234000D01*
X96037542Y-112234000D01*
X96050000Y-112235227D01*
X96062458Y-112234000D01*
X102274790Y-112234000D01*
X104659268Y-114618478D01*
X104645500Y-114687690D01*
X104645500Y-114784310D01*
X104664350Y-114879073D01*
X104701325Y-114968339D01*
X104755004Y-115048675D01*
X104823325Y-115116996D01*
X104903661Y-115170675D01*
X104992927Y-115207650D01*
X105087690Y-115226500D01*
X105184310Y-115226500D01*
X105279073Y-115207650D01*
X105368339Y-115170675D01*
X105448675Y-115116996D01*
X105516996Y-115048675D01*
X105570675Y-114968339D01*
X105607650Y-114879073D01*
X105626500Y-114784310D01*
X105626500Y-114687690D01*
X105607650Y-114592927D01*
X105570675Y-114503661D01*
X105516996Y-114423325D01*
X105448675Y-114355004D01*
X105368339Y-114301325D01*
X105279073Y-114264350D01*
X105184310Y-114245500D01*
X105087690Y-114245500D01*
X105018478Y-114259268D01*
X102568419Y-111809209D01*
X102560473Y-111799527D01*
X102550791Y-111791581D01*
X102550788Y-111791578D01*
X102534145Y-111777920D01*
X102521797Y-111767786D01*
X102477672Y-111744200D01*
X102429793Y-111729676D01*
X102392469Y-111726000D01*
X102392458Y-111726000D01*
X102380000Y-111724773D01*
X102367542Y-111726000D01*
X96155210Y-111726000D01*
X94929000Y-110499790D01*
X94929000Y-109931690D01*
X95065500Y-109931690D01*
X95065500Y-110028310D01*
X95084350Y-110123073D01*
X95121325Y-110212339D01*
X95175004Y-110292675D01*
X95243325Y-110360996D01*
X95323661Y-110414675D01*
X95412927Y-110451650D01*
X95507690Y-110470500D01*
X95604310Y-110470500D01*
X95699073Y-110451650D01*
X95739647Y-110434844D01*
X95735500Y-110455690D01*
X95735500Y-110552310D01*
X95754350Y-110647073D01*
X95791325Y-110736339D01*
X95845004Y-110816675D01*
X95913325Y-110884996D01*
X95993661Y-110938675D01*
X96082927Y-110975650D01*
X96177690Y-110994500D01*
X96274310Y-110994500D01*
X96369073Y-110975650D01*
X96458339Y-110938675D01*
X96538675Y-110884996D01*
X96606996Y-110816675D01*
X96646202Y-110758000D01*
X97507542Y-110758000D01*
X97520000Y-110759227D01*
X97532458Y-110758000D01*
X97532469Y-110758000D01*
X97569793Y-110754324D01*
X97617672Y-110739800D01*
X97661797Y-110716214D01*
X97687037Y-110695500D01*
X97690788Y-110692422D01*
X97690791Y-110692419D01*
X97700473Y-110684473D01*
X97708419Y-110674791D01*
X102930970Y-105452241D01*
X102940646Y-105444300D01*
X102948587Y-105434624D01*
X102948595Y-105434616D01*
X102972387Y-105405624D01*
X102995973Y-105361499D01*
X102999068Y-105351295D01*
X103010497Y-105313620D01*
X103014173Y-105276296D01*
X103014173Y-105276285D01*
X103015400Y-105263827D01*
X103014173Y-105251369D01*
X103014173Y-100815220D01*
X103018335Y-100818001D01*
X103107601Y-100854976D01*
X103202364Y-100873826D01*
X103298984Y-100873826D01*
X103368196Y-100860058D01*
X104845000Y-102336862D01*
X104845001Y-103950042D01*
X104843773Y-103962510D01*
X104845001Y-103974978D01*
X104845001Y-103974979D01*
X104846362Y-103988792D01*
X104848677Y-104012302D01*
X104863200Y-104060181D01*
X104886786Y-104104306D01*
X104910578Y-104133298D01*
X104910587Y-104133307D01*
X104918528Y-104142983D01*
X104928204Y-104150924D01*
X107098209Y-106320929D01*
X107082339Y-106310325D01*
X106993073Y-106273350D01*
X106898310Y-106254500D01*
X106801690Y-106254500D01*
X106706927Y-106273350D01*
X106617661Y-106310325D01*
X106537325Y-106364004D01*
X106469004Y-106432325D01*
X106415325Y-106512661D01*
X106378350Y-106601927D01*
X106359500Y-106696690D01*
X106359500Y-106793310D01*
X106378350Y-106888073D01*
X106415325Y-106977339D01*
X106469004Y-107057675D01*
X106537325Y-107125996D01*
X106617661Y-107179675D01*
X106706927Y-107216650D01*
X106801690Y-107235500D01*
X106898310Y-107235500D01*
X106993073Y-107216650D01*
X107082339Y-107179675D01*
X107162675Y-107125996D01*
X107164731Y-107123941D01*
X108028510Y-107987720D01*
X108028510Y-108849096D01*
X108024349Y-108846315D01*
X107935083Y-108809340D01*
X107840320Y-108790490D01*
X107743700Y-108790490D01*
X107673200Y-108804514D01*
X107669344Y-108801350D01*
X107652818Y-108787787D01*
X107608693Y-108764201D01*
X107560814Y-108749677D01*
X107523490Y-108746001D01*
X107523479Y-108746001D01*
X107511021Y-108744774D01*
X107498563Y-108746001D01*
X101637202Y-108746001D01*
X101597996Y-108687325D01*
X101529675Y-108619004D01*
X101449339Y-108565325D01*
X101360073Y-108528350D01*
X101265310Y-108509500D01*
X101168690Y-108509500D01*
X101073927Y-108528350D01*
X100984661Y-108565325D01*
X100904325Y-108619004D01*
X100836004Y-108687325D01*
X100782325Y-108767661D01*
X100745350Y-108856927D01*
X100726500Y-108951690D01*
X100726500Y-109048310D01*
X100745350Y-109143073D01*
X100782325Y-109232339D01*
X100836004Y-109312675D01*
X100904325Y-109380996D01*
X100984661Y-109434675D01*
X101073927Y-109471650D01*
X101168690Y-109490500D01*
X101265310Y-109490500D01*
X101360073Y-109471650D01*
X101449339Y-109434675D01*
X101529675Y-109380996D01*
X101597996Y-109312675D01*
X101637201Y-109254001D01*
X107301510Y-109254001D01*
X107301510Y-109277325D01*
X107287310Y-109274500D01*
X107190690Y-109274500D01*
X107095927Y-109293350D01*
X107006661Y-109330325D01*
X106926325Y-109384004D01*
X106858004Y-109452325D01*
X106804325Y-109532661D01*
X106767350Y-109621927D01*
X106748500Y-109716690D01*
X106748500Y-109813310D01*
X106762268Y-109882522D01*
X104427195Y-112217595D01*
X104351310Y-112202500D01*
X104254690Y-112202500D01*
X104185478Y-112216268D01*
X102003419Y-110034209D01*
X101995473Y-110024527D01*
X101985791Y-110016581D01*
X101985788Y-110016578D01*
X101969814Y-110003469D01*
X101956797Y-109992786D01*
X101912672Y-109969200D01*
X101864793Y-109954676D01*
X101827469Y-109951000D01*
X101827458Y-109951000D01*
X101815000Y-109949773D01*
X101802542Y-109951000D01*
X101313202Y-109951000D01*
X101273996Y-109892325D01*
X101205675Y-109824004D01*
X101125339Y-109770325D01*
X101036073Y-109733350D01*
X100941310Y-109714500D01*
X100844690Y-109714500D01*
X100749927Y-109733350D01*
X100660661Y-109770325D01*
X100580325Y-109824004D01*
X100512004Y-109892325D01*
X100458325Y-109972661D01*
X100421350Y-110061927D01*
X100402500Y-110156690D01*
X100402500Y-110253310D01*
X100421350Y-110348073D01*
X100458325Y-110437339D01*
X100512004Y-110517675D01*
X100580325Y-110585996D01*
X100660661Y-110639675D01*
X100749927Y-110676650D01*
X100844690Y-110695500D01*
X100941310Y-110695500D01*
X101036073Y-110676650D01*
X101125339Y-110639675D01*
X101205675Y-110585996D01*
X101273996Y-110517675D01*
X101313202Y-110459000D01*
X101709790Y-110459000D01*
X103826268Y-112575478D01*
X103812500Y-112644690D01*
X103812500Y-112741310D01*
X103831350Y-112836073D01*
X103868325Y-112925339D01*
X103922004Y-113005675D01*
X103990325Y-113073996D01*
X104070661Y-113127675D01*
X104159927Y-113164650D01*
X104254690Y-113183500D01*
X104351310Y-113183500D01*
X104446073Y-113164650D01*
X104535339Y-113127675D01*
X104615675Y-113073996D01*
X104683996Y-113005675D01*
X104737675Y-112925339D01*
X104774650Y-112836073D01*
X104793500Y-112741310D01*
X104793500Y-112644690D01*
X104781060Y-112582150D01*
X107121478Y-110241732D01*
X107190690Y-110255500D01*
X107287310Y-110255500D01*
X107382073Y-110236650D01*
X107471339Y-110199675D01*
X107551675Y-110145996D01*
X107619996Y-110077675D01*
X107673675Y-109997339D01*
X107710650Y-109908073D01*
X107729500Y-109813310D01*
X107729500Y-109768665D01*
X107743700Y-109771490D01*
X107840320Y-109771490D01*
X107842719Y-109771013D01*
X107810860Y-109847927D01*
X107792010Y-109942690D01*
X107792010Y-110039310D01*
X107810860Y-110134073D01*
X107847835Y-110223339D01*
X107901514Y-110303675D01*
X107969835Y-110371996D01*
X108050171Y-110425675D01*
X108139437Y-110462650D01*
X108234200Y-110481500D01*
X108330820Y-110481500D01*
X108425583Y-110462650D01*
X108514849Y-110425675D01*
X108595185Y-110371996D01*
X108663506Y-110303675D01*
X108717185Y-110223339D01*
X108754160Y-110134073D01*
X108773010Y-110039310D01*
X108773010Y-109942690D01*
X108754160Y-109847927D01*
X108717185Y-109758661D01*
X108663506Y-109678325D01*
X108595185Y-109610004D01*
X108536510Y-109570798D01*
X108536510Y-107894967D01*
X108537737Y-107882509D01*
X108536510Y-107870051D01*
X108536510Y-107870041D01*
X108532834Y-107832717D01*
X108518310Y-107784838D01*
X108494724Y-107740713D01*
X108470931Y-107711721D01*
X108470929Y-107711719D01*
X108462983Y-107702037D01*
X108453301Y-107694091D01*
X108447941Y-107688731D01*
X108488563Y-107680650D01*
X108577829Y-107643675D01*
X108658165Y-107589996D01*
X108726486Y-107521675D01*
X108780165Y-107441339D01*
X108817140Y-107352073D01*
X108835990Y-107257310D01*
X108835990Y-107160690D01*
X108817140Y-107065927D01*
X108780165Y-106976661D01*
X108726486Y-106896325D01*
X108658165Y-106828004D01*
X108607103Y-106793885D01*
X108663506Y-106737482D01*
X108717185Y-106657146D01*
X108754160Y-106567880D01*
X108773010Y-106473117D01*
X108773010Y-106376497D01*
X108754160Y-106281734D01*
X108717185Y-106192468D01*
X108663506Y-106112132D01*
X108595185Y-106043811D01*
X108514849Y-105990132D01*
X108425583Y-105953157D01*
X108330820Y-105934307D01*
X108234200Y-105934307D01*
X108164988Y-105948075D01*
X106096351Y-103879438D01*
X106110500Y-103808310D01*
X106110500Y-103711690D01*
X106091650Y-103616927D01*
X106054675Y-103527661D01*
X106000996Y-103447325D01*
X105932675Y-103379004D01*
X105852339Y-103325325D01*
X105763073Y-103288350D01*
X105668310Y-103269500D01*
X105571690Y-103269500D01*
X105476927Y-103288350D01*
X105387661Y-103325325D01*
X105353000Y-103348485D01*
X105353000Y-102244110D01*
X105354227Y-102231652D01*
X105353000Y-102219194D01*
X105353000Y-102219183D01*
X105349324Y-102181859D01*
X105334800Y-102133980D01*
X105311214Y-102089855D01*
X105287422Y-102060864D01*
X105287419Y-102060861D01*
X105279473Y-102051179D01*
X105269791Y-102043233D01*
X103727406Y-100500848D01*
X103741174Y-100431636D01*
X103741174Y-100335016D01*
X103722324Y-100240253D01*
X103685349Y-100150987D01*
X103631670Y-100070651D01*
X103563349Y-100002330D01*
X103483013Y-99948651D01*
X103393747Y-99911676D01*
X103361922Y-99905346D01*
X109798791Y-93468477D01*
X109808473Y-93460531D01*
X109833471Y-93430072D01*
X109840214Y-93421855D01*
X109863800Y-93377730D01*
X109878324Y-93329851D01*
X109882000Y-93292527D01*
X109882000Y-93292517D01*
X109883227Y-93280059D01*
X109882000Y-93267601D01*
X109882000Y-88970202D01*
X109940675Y-88930996D01*
X110008996Y-88862675D01*
X110062675Y-88782339D01*
X110099650Y-88693073D01*
X110118500Y-88598310D01*
X110118500Y-88501690D01*
X110099650Y-88406927D01*
X110062675Y-88317661D01*
X110008996Y-88237325D01*
X109940675Y-88169004D01*
X109860339Y-88115325D01*
X109771073Y-88078350D01*
X109676310Y-88059500D01*
X109579690Y-88059500D01*
X109484927Y-88078350D01*
X109395661Y-88115325D01*
X109315325Y-88169004D01*
X109247004Y-88237325D01*
X109193325Y-88317661D01*
X109156350Y-88406927D01*
X109137500Y-88501690D01*
X109137500Y-88598310D01*
X109156350Y-88693073D01*
X109193325Y-88782339D01*
X109247004Y-88862675D01*
X109315325Y-88930996D01*
X109374000Y-88970202D01*
X109374000Y-90342137D01*
X109373300Y-90339828D01*
X109349714Y-90295702D01*
X109325921Y-90266711D01*
X109325919Y-90266709D01*
X109317973Y-90257027D01*
X109308291Y-90249081D01*
X109176732Y-90117522D01*
X109190500Y-90048310D01*
X109190500Y-89951690D01*
X109171650Y-89856927D01*
X109134675Y-89767661D01*
X109080996Y-89687325D01*
X109012675Y-89619004D01*
X108932339Y-89565325D01*
X108843073Y-89528350D01*
X108748310Y-89509500D01*
X108651690Y-89509500D01*
X108556927Y-89528350D01*
X108467661Y-89565325D01*
X108387325Y-89619004D01*
X108319004Y-89687325D01*
X108265325Y-89767661D01*
X108228350Y-89856927D01*
X108209500Y-89951690D01*
X108209500Y-90048310D01*
X108228350Y-90143073D01*
X108265325Y-90232339D01*
X108319004Y-90312675D01*
X108387325Y-90380996D01*
X108467661Y-90434675D01*
X108556927Y-90471650D01*
X108651690Y-90490500D01*
X108748310Y-90490500D01*
X108817522Y-90476732D01*
X108883501Y-90542711D01*
X108883500Y-90811805D01*
X108882273Y-90824264D01*
X108883500Y-90836722D01*
X108883500Y-90836732D01*
X108887176Y-90874056D01*
X108901700Y-90921935D01*
X108925286Y-90966061D01*
X108938849Y-90982587D01*
X108949078Y-90995052D01*
X108949081Y-90995055D01*
X108957027Y-91004737D01*
X108966709Y-91012683D01*
X109119990Y-91165964D01*
X109119991Y-93069633D01*
X102312209Y-99877415D01*
X102302527Y-99885361D01*
X102294581Y-99895043D01*
X102294578Y-99895046D01*
X102286941Y-99904352D01*
X102270786Y-99924037D01*
X102247200Y-99968163D01*
X102232676Y-100016042D01*
X102229000Y-100053366D01*
X102229000Y-100053376D01*
X102227773Y-100065834D01*
X102229000Y-100078292D01*
X102229001Y-105076565D01*
X97579566Y-109726000D01*
X95976202Y-109726000D01*
X95936996Y-109667325D01*
X95868675Y-109599004D01*
X95788339Y-109545325D01*
X95699073Y-109508350D01*
X95604310Y-109489500D01*
X95507690Y-109489500D01*
X95412927Y-109508350D01*
X95323661Y-109545325D01*
X95243325Y-109599004D01*
X95175004Y-109667325D01*
X95121325Y-109747661D01*
X95084350Y-109836927D01*
X95065500Y-109931690D01*
X94929000Y-109931690D01*
X94929000Y-109654210D01*
X96057211Y-108526000D01*
X98439542Y-108526000D01*
X98452000Y-108527227D01*
X98464458Y-108526000D01*
X98464469Y-108526000D01*
X98501793Y-108522324D01*
X98549672Y-108507800D01*
X98593797Y-108484214D01*
X98610323Y-108470651D01*
X98622788Y-108460422D01*
X98622791Y-108460419D01*
X98632473Y-108452473D01*
X98640421Y-108442789D01*
X101883791Y-105199419D01*
X101893473Y-105191473D01*
X101913650Y-105166888D01*
X101925214Y-105152798D01*
X101948800Y-105108672D01*
X101948800Y-105108671D01*
X101963324Y-105060793D01*
X101967000Y-105023469D01*
X101967000Y-105023459D01*
X101968227Y-105011001D01*
X101967000Y-104998543D01*
X101967000Y-102848457D01*
X101968227Y-102835999D01*
X101967000Y-102823541D01*
X101967000Y-102823531D01*
X101963324Y-102786207D01*
X101948800Y-102738328D01*
X101925214Y-102694203D01*
X101893473Y-102655527D01*
X101883791Y-102647581D01*
X100888500Y-101652290D01*
X100888500Y-100732000D01*
X100887280Y-100719612D01*
X100883666Y-100707700D01*
X100877798Y-100696721D01*
X100869901Y-100687099D01*
X100860279Y-100679202D01*
X100849300Y-100673334D01*
X100837388Y-100669720D01*
X100825000Y-100668500D01*
X100365000Y-100668500D01*
X100365000Y-100487206D01*
X100426675Y-100445996D01*
X100494996Y-100377675D01*
X100548675Y-100297339D01*
X100585650Y-100208073D01*
X100604500Y-100113310D01*
X100604500Y-100016690D01*
X100585650Y-99921927D01*
X100548675Y-99832661D01*
X100494996Y-99752325D01*
X100426675Y-99684004D01*
X100346339Y-99630325D01*
X100257073Y-99593350D01*
X100162310Y-99574500D01*
X100083710Y-99574500D01*
X104340791Y-95317419D01*
X104350473Y-95309473D01*
X104358421Y-95299789D01*
X104382214Y-95270798D01*
X104405800Y-95226672D01*
X104414288Y-95198690D01*
X104420324Y-95178793D01*
X104424000Y-95141469D01*
X104424000Y-95141459D01*
X104425227Y-95129001D01*
X104424000Y-95116543D01*
X104424000Y-95067202D01*
X104482675Y-95027996D01*
X104550996Y-94959675D01*
X104604675Y-94879339D01*
X104641650Y-94790073D01*
X104660500Y-94695310D01*
X104660500Y-94598690D01*
X104641650Y-94503927D01*
X104604675Y-94414661D01*
X104550996Y-94334325D01*
X104482675Y-94266004D01*
X104402339Y-94212325D01*
X104313073Y-94175350D01*
X104218310Y-94156500D01*
X104121690Y-94156500D01*
X104026927Y-94175350D01*
X103937661Y-94212325D01*
X103857325Y-94266004D01*
X103830895Y-94292434D01*
X103827675Y-94284661D01*
X103773996Y-94204325D01*
X103705675Y-94136004D01*
X103625339Y-94082325D01*
X103536073Y-94045350D01*
X103441310Y-94026500D01*
X103344690Y-94026500D01*
X103249927Y-94045350D01*
X103160661Y-94082325D01*
X103080325Y-94136004D01*
X103038553Y-94177776D01*
X103025332Y-94157989D01*
X102957011Y-94089668D01*
X102876675Y-94035989D01*
X102787409Y-93999014D01*
X102692646Y-93980164D01*
X102596026Y-93980164D01*
X102501263Y-93999014D01*
X102411997Y-94035989D01*
X102331661Y-94089668D01*
X102263340Y-94157989D01*
X102209661Y-94238325D01*
X102172686Y-94327591D01*
X102153836Y-94422354D01*
X102153836Y-94518974D01*
X102172686Y-94613737D01*
X102209661Y-94703003D01*
X102263340Y-94783339D01*
X102330027Y-94850026D01*
X90192209Y-106987845D01*
X90182527Y-106995791D01*
X90174581Y-107005473D01*
X90174578Y-107005476D01*
X90164349Y-107017941D01*
X90150786Y-107034467D01*
X90127200Y-107078593D01*
X90112676Y-107126472D01*
X90109000Y-107163796D01*
X90109000Y-107163806D01*
X90107773Y-107176264D01*
X90109000Y-107188722D01*
X90109001Y-113375789D01*
X89125210Y-114359580D01*
X89062862Y-114317920D01*
X88873503Y-114239485D01*
X88672480Y-114199500D01*
X88467520Y-114199500D01*
X88266497Y-114239485D01*
X88077138Y-114317920D01*
X87906720Y-114431791D01*
X87761791Y-114576720D01*
X87647920Y-114747138D01*
X87575500Y-114921975D01*
X87575500Y-113018025D01*
X87647920Y-113192862D01*
X87761791Y-113363280D01*
X87906720Y-113508209D01*
X88077138Y-113622080D01*
X88266497Y-113700515D01*
X88467520Y-113740500D01*
X88672480Y-113740500D01*
X88873503Y-113700515D01*
X89062862Y-113622080D01*
X89233280Y-113508209D01*
X89378209Y-113363280D01*
X89492080Y-113192862D01*
X89570515Y-113003503D01*
X89610500Y-112802480D01*
X89610500Y-112597520D01*
X89570515Y-112396497D01*
X89492080Y-112207138D01*
X89378209Y-112036720D01*
X89233280Y-111891791D01*
X89062862Y-111777920D01*
X88873503Y-111699485D01*
X88672480Y-111659500D01*
X88467520Y-111659500D01*
X88266497Y-111699485D01*
X88077138Y-111777920D01*
X87906720Y-111891791D01*
X87761791Y-112036720D01*
X87647920Y-112207138D01*
X87575500Y-112381975D01*
X87575500Y-107938025D01*
X87647920Y-108112862D01*
X87761791Y-108283280D01*
X87906720Y-108428209D01*
X88077138Y-108542080D01*
X88266497Y-108620515D01*
X88467520Y-108660500D01*
X88672480Y-108660500D01*
X88873503Y-108620515D01*
X89062862Y-108542080D01*
X89233280Y-108428209D01*
X89378209Y-108283280D01*
X89492080Y-108112862D01*
X89570515Y-107923503D01*
X89610500Y-107722480D01*
X89610500Y-107517520D01*
X89570515Y-107316497D01*
X89492080Y-107127138D01*
X89378209Y-106956720D01*
X89233280Y-106811791D01*
X89062862Y-106697920D01*
X88873503Y-106619485D01*
X88672480Y-106579500D01*
X88467520Y-106579500D01*
X88266497Y-106619485D01*
X88077138Y-106697920D01*
X87906720Y-106811791D01*
X87761791Y-106956720D01*
X87647920Y-107127138D01*
X87575500Y-107301975D01*
X87575500Y-105398025D01*
X87647920Y-105572862D01*
X87761791Y-105743280D01*
X87906720Y-105888209D01*
X88077138Y-106002080D01*
X88266497Y-106080515D01*
X88467520Y-106120500D01*
X88672480Y-106120500D01*
X88873503Y-106080515D01*
X89062862Y-106002080D01*
X89233280Y-105888209D01*
X89378209Y-105743280D01*
X89492080Y-105572862D01*
X89570515Y-105383503D01*
X89610500Y-105182480D01*
X89610500Y-104977520D01*
X89570515Y-104776497D01*
X89492080Y-104587138D01*
X89378209Y-104416720D01*
X89233280Y-104271791D01*
X89062862Y-104157920D01*
X88873503Y-104079485D01*
X88672480Y-104039500D01*
X88467520Y-104039500D01*
X88266497Y-104079485D01*
X88077138Y-104157920D01*
X87906720Y-104271791D01*
X87761791Y-104416720D01*
X87647920Y-104587138D01*
X87575500Y-104761975D01*
X87575500Y-102858025D01*
X87647920Y-103032862D01*
X87761791Y-103203280D01*
X87906720Y-103348209D01*
X88077138Y-103462080D01*
X88266497Y-103540515D01*
X88467520Y-103580500D01*
X88672480Y-103580500D01*
X88873503Y-103540515D01*
X89062862Y-103462080D01*
X89233280Y-103348209D01*
X89378209Y-103203280D01*
X89492080Y-103032862D01*
X89570515Y-102843503D01*
X89610500Y-102642480D01*
X89610500Y-102437520D01*
X89570515Y-102236497D01*
X89492080Y-102047138D01*
X89378209Y-101876720D01*
X89233280Y-101731791D01*
X89062862Y-101617920D01*
X88873503Y-101539485D01*
X88672480Y-101499500D01*
X88467520Y-101499500D01*
X88266497Y-101539485D01*
X88077138Y-101617920D01*
X87906720Y-101731791D01*
X87761791Y-101876720D01*
X87647920Y-102047138D01*
X87575500Y-102221975D01*
X87575500Y-100318025D01*
X87647920Y-100492862D01*
X87761791Y-100663280D01*
X87906720Y-100808209D01*
X88077138Y-100922080D01*
X88266497Y-101000515D01*
X88467520Y-101040500D01*
X88672480Y-101040500D01*
X88873503Y-101000515D01*
X89062862Y-100922080D01*
X89233280Y-100808209D01*
X89378209Y-100663280D01*
X89492080Y-100492862D01*
X89570515Y-100303503D01*
X89610500Y-100102480D01*
X89610500Y-99897520D01*
X89570515Y-99696497D01*
X89492080Y-99507138D01*
X89378209Y-99336720D01*
X89233280Y-99191791D01*
X89062862Y-99077920D01*
X88873503Y-98999485D01*
X88672480Y-98959500D01*
X88467520Y-98959500D01*
X88266497Y-98999485D01*
X88077138Y-99077920D01*
X87906720Y-99191791D01*
X87761791Y-99336720D01*
X87647920Y-99507138D01*
X87575500Y-99681975D01*
X87575500Y-97778025D01*
X87647920Y-97952862D01*
X87761791Y-98123280D01*
X87906720Y-98268209D01*
X88077138Y-98382080D01*
X88266497Y-98460515D01*
X88467520Y-98500500D01*
X88672480Y-98500500D01*
X88873503Y-98460515D01*
X89062862Y-98382080D01*
X89233280Y-98268209D01*
X89378209Y-98123280D01*
X89492080Y-97952862D01*
X89570515Y-97763503D01*
X89610500Y-97562480D01*
X89610500Y-97357520D01*
X89570515Y-97156497D01*
X89492080Y-96967138D01*
X89378209Y-96796720D01*
X89233280Y-96651791D01*
X89062862Y-96537920D01*
X88873503Y-96459485D01*
X88672480Y-96419500D01*
X88467520Y-96419500D01*
X88266497Y-96459485D01*
X88077138Y-96537920D01*
X87906720Y-96651791D01*
X87761791Y-96796720D01*
X87647920Y-96967138D01*
X87575500Y-97141975D01*
X87575500Y-95238025D01*
X87647920Y-95412862D01*
X87761791Y-95583280D01*
X87906720Y-95728209D01*
X88077138Y-95842080D01*
X88266497Y-95920515D01*
X88467520Y-95960500D01*
X88672480Y-95960500D01*
X88873503Y-95920515D01*
X89062862Y-95842080D01*
X89233280Y-95728209D01*
X89378209Y-95583280D01*
X89492080Y-95412862D01*
X89570515Y-95223503D01*
X89610500Y-95022480D01*
X89610500Y-94817520D01*
X89570515Y-94616497D01*
X89492080Y-94427138D01*
X89378209Y-94256720D01*
X89233280Y-94111791D01*
X89062862Y-93997920D01*
X88873503Y-93919485D01*
X88672480Y-93879500D01*
X88467520Y-93879500D01*
X88266497Y-93919485D01*
X88077138Y-93997920D01*
X87906720Y-94111791D01*
X87761791Y-94256720D01*
X87647920Y-94427138D01*
X87575500Y-94601975D01*
X87575500Y-92698025D01*
X87647920Y-92872862D01*
X87761791Y-93043280D01*
X87906720Y-93188209D01*
X88077138Y-93302080D01*
X88266497Y-93380515D01*
X88467520Y-93420500D01*
X88672480Y-93420500D01*
X88873503Y-93380515D01*
X89062862Y-93302080D01*
X89233280Y-93188209D01*
X89378209Y-93043280D01*
X89492080Y-92872862D01*
X89570515Y-92683503D01*
X89610500Y-92482480D01*
X89610500Y-92277520D01*
X89570515Y-92076497D01*
X89492080Y-91887138D01*
X89378209Y-91716720D01*
X89233280Y-91571791D01*
X89062862Y-91457920D01*
X88873503Y-91379485D01*
X88672480Y-91339500D01*
X88467520Y-91339500D01*
X88266497Y-91379485D01*
X88077138Y-91457920D01*
X87906720Y-91571791D01*
X87761791Y-91716720D01*
X87647920Y-91887138D01*
X87575500Y-92061975D01*
X87575500Y-90158025D01*
X87647920Y-90332862D01*
X87761791Y-90503280D01*
X87906720Y-90648209D01*
X88077138Y-90762080D01*
X88266497Y-90840515D01*
X88467520Y-90880500D01*
X88672480Y-90880500D01*
X88873503Y-90840515D01*
X89062862Y-90762080D01*
X89233280Y-90648209D01*
X89378209Y-90503280D01*
X89492080Y-90332862D01*
X89570515Y-90143503D01*
X89610500Y-89942480D01*
X89610500Y-89737520D01*
X89570515Y-89536497D01*
X89492080Y-89347138D01*
X89378209Y-89176720D01*
X89233280Y-89031791D01*
X89062862Y-88917920D01*
X88873503Y-88839485D01*
X88672480Y-88799500D01*
X88467520Y-88799500D01*
X88266497Y-88839485D01*
X88077138Y-88917920D01*
X87906720Y-89031791D01*
X87761791Y-89176720D01*
X87647920Y-89347138D01*
X87575500Y-89521975D01*
X87575500Y-87618025D01*
X87647920Y-87792862D01*
X87761791Y-87963280D01*
X87906720Y-88108209D01*
X88077138Y-88222080D01*
X88266497Y-88300515D01*
X88467520Y-88340500D01*
X88672480Y-88340500D01*
X88873503Y-88300515D01*
X89062862Y-88222080D01*
X89233280Y-88108209D01*
X89378209Y-87963280D01*
X89492080Y-87792862D01*
X89570515Y-87603503D01*
X89610500Y-87402480D01*
X89610500Y-87197520D01*
X89570515Y-86996497D01*
X89492080Y-86807138D01*
X89378209Y-86636720D01*
X89233280Y-86491791D01*
X89062862Y-86377920D01*
X88873503Y-86299485D01*
X88672480Y-86259500D01*
X88467520Y-86259500D01*
X88266497Y-86299485D01*
X88077138Y-86377920D01*
X87906720Y-86491791D01*
X87761791Y-86636720D01*
X87647920Y-86807138D01*
X87575500Y-86981975D01*
X87575500Y-85078025D01*
X87647920Y-85252862D01*
X87761791Y-85423280D01*
X87906720Y-85568209D01*
X88077138Y-85682080D01*
X88266497Y-85760515D01*
X88467520Y-85800500D01*
X88672480Y-85800500D01*
X88873503Y-85760515D01*
X89062862Y-85682080D01*
X89233280Y-85568209D01*
X89378209Y-85423280D01*
X89492080Y-85252862D01*
X89570515Y-85063503D01*
X89610500Y-84862480D01*
X89610500Y-84657520D01*
X89570515Y-84456497D01*
X89492080Y-84267138D01*
X89378209Y-84096720D01*
X89233280Y-83951791D01*
X89062862Y-83837920D01*
X88873503Y-83759485D01*
X88672480Y-83719500D01*
X88467520Y-83719500D01*
X88266497Y-83759485D01*
X88077138Y-83837920D01*
X87906720Y-83951791D01*
X87761791Y-84096720D01*
X87647920Y-84267138D01*
X87575500Y-84441975D01*
X87575500Y-82538025D01*
X87647920Y-82712862D01*
X87761791Y-82883280D01*
X87906720Y-83028209D01*
X88077138Y-83142080D01*
X88266497Y-83220515D01*
X88467520Y-83260500D01*
X88672480Y-83260500D01*
X88873503Y-83220515D01*
X89062862Y-83142080D01*
X89233280Y-83028209D01*
X89378209Y-82883280D01*
X89492080Y-82712862D01*
X89570515Y-82523503D01*
X89610500Y-82322480D01*
X89610500Y-82117520D01*
X89570515Y-81916497D01*
X89492080Y-81727138D01*
X89378209Y-81556720D01*
X89233280Y-81411791D01*
X89062862Y-81297920D01*
X88873503Y-81219485D01*
X88672480Y-81179500D01*
X88467520Y-81179500D01*
X88266497Y-81219485D01*
X88077138Y-81297920D01*
X87906720Y-81411791D01*
X87761791Y-81556720D01*
X87647920Y-81727138D01*
X87575500Y-81901975D01*
X87575500Y-79998025D01*
X87647920Y-80172862D01*
X87761791Y-80343280D01*
X87906720Y-80488209D01*
X88077138Y-80602080D01*
X88266497Y-80680515D01*
X88467520Y-80720500D01*
X88672480Y-80720500D01*
X88873503Y-80680515D01*
X89062862Y-80602080D01*
X89104828Y-80574039D01*
X89762000Y-81231211D01*
X89762001Y-85617798D01*
X89703325Y-85657004D01*
X89635004Y-85725325D01*
X89581325Y-85805661D01*
X89544350Y-85894927D01*
X89525500Y-85989690D01*
X89525500Y-86086310D01*
X89544350Y-86181073D01*
X89581325Y-86270339D01*
X89635004Y-86350675D01*
X89703325Y-86418996D01*
X89783661Y-86472675D01*
X89872927Y-86509650D01*
X89967690Y-86528500D01*
X90064310Y-86528500D01*
X90159073Y-86509650D01*
X90248339Y-86472675D01*
X90304865Y-86434905D01*
X90304510Y-87296265D01*
X90304500Y-87296365D01*
X90304500Y-87320039D01*
X90304492Y-87339454D01*
X90304500Y-87339536D01*
X90304501Y-89165361D01*
X90302370Y-89187000D01*
X90310874Y-89273352D01*
X90336062Y-89356387D01*
X90376966Y-89432912D01*
X90406050Y-89468350D01*
X90432014Y-89499987D01*
X90448817Y-89513777D01*
X95535339Y-94600300D01*
X95566489Y-94675503D01*
X95620168Y-94755839D01*
X95688489Y-94824160D01*
X95768825Y-94877839D01*
X95844029Y-94908989D01*
X96335761Y-95400722D01*
X96368325Y-95479339D01*
X96422004Y-95559675D01*
X96490325Y-95627996D01*
X96570661Y-95681675D01*
X96645865Y-95712825D01*
X96868589Y-95935550D01*
X96898325Y-96007339D01*
X96952004Y-96087675D01*
X97020325Y-96155996D01*
X97100661Y-96209675D01*
X97189927Y-96246650D01*
X97284690Y-96265500D01*
X97381310Y-96265500D01*
X97476073Y-96246650D01*
X97565339Y-96209675D01*
X97645675Y-96155996D01*
X97695000Y-96106671D01*
X97695001Y-97412798D01*
X97636325Y-97452004D01*
X97568004Y-97520325D01*
X97514325Y-97600661D01*
X97477350Y-97689927D01*
X97458500Y-97784690D01*
X97458500Y-97881310D01*
X97477350Y-97976073D01*
X97514325Y-98065339D01*
X97568004Y-98145675D01*
X97636325Y-98213996D01*
X97716661Y-98267675D01*
X97805927Y-98304650D01*
X97900690Y-98323500D01*
X97997310Y-98323500D01*
X98092073Y-98304650D01*
X98181339Y-98267675D01*
X98261675Y-98213996D01*
X98329996Y-98145675D01*
X98383675Y-98065339D01*
X98420650Y-97976073D01*
X98439500Y-97881310D01*
X98439500Y-97784690D01*
X98420650Y-97689927D01*
X98383675Y-97600661D01*
X98329996Y-97520325D01*
X98261675Y-97452004D01*
X98203000Y-97412798D01*
X98203000Y-95174458D01*
X98204227Y-95162000D01*
X98203000Y-95149542D01*
X98203000Y-95149531D01*
X98199324Y-95112207D01*
X98184800Y-95064328D01*
X98176585Y-95048958D01*
X98161215Y-95020203D01*
X98137422Y-94991212D01*
X98137419Y-94991209D01*
X98129473Y-94981527D01*
X98119791Y-94973581D01*
X92235000Y-89088790D01*
X92235000Y-87209202D01*
X92293675Y-87169996D01*
X92361996Y-87101675D01*
X92415675Y-87021339D01*
X92452650Y-86932073D01*
X92471500Y-86837310D01*
X92471500Y-86740690D01*
X92452650Y-86645927D01*
X92415675Y-86556661D01*
X92361996Y-86476325D01*
X92293675Y-86408004D01*
X92213339Y-86354325D01*
X92124073Y-86317350D01*
X92029310Y-86298500D01*
X91932690Y-86298500D01*
X91837927Y-86317350D01*
X91748661Y-86354325D01*
X91668325Y-86408004D01*
X91600004Y-86476325D01*
X91546325Y-86556661D01*
X91509350Y-86645927D01*
X91490500Y-86740690D01*
X91490500Y-86837310D01*
X91509350Y-86932073D01*
X91546325Y-87021339D01*
X91600004Y-87101675D01*
X91668325Y-87169996D01*
X91727000Y-87209202D01*
X91727001Y-89181532D01*
X91725773Y-89194000D01*
X91730677Y-89243792D01*
X91745200Y-89291671D01*
X91768786Y-89335796D01*
X91792578Y-89364788D01*
X91792587Y-89364797D01*
X91800528Y-89374473D01*
X91810204Y-89382414D01*
X97695000Y-95267210D01*
X97695000Y-95443329D01*
X97645675Y-95394004D01*
X97565339Y-95340325D01*
X97486721Y-95307761D01*
X97268825Y-95089865D01*
X97237675Y-95014661D01*
X97183996Y-94934325D01*
X97115675Y-94866004D01*
X97035339Y-94812325D01*
X96963550Y-94782589D01*
X96466989Y-94286029D01*
X96435839Y-94210825D01*
X96382160Y-94130489D01*
X96313839Y-94062168D01*
X96233503Y-94008489D01*
X96158300Y-93977339D01*
X91185500Y-89004540D01*
X91185500Y-87318009D01*
X91186317Y-85337500D01*
X92402804Y-85337500D01*
X92626500Y-85561197D01*
X92626500Y-85584724D01*
X92595350Y-85659927D01*
X92576500Y-85754690D01*
X92576500Y-85851310D01*
X92595350Y-85946073D01*
X92632325Y-86035339D01*
X92686004Y-86115675D01*
X92754325Y-86183996D01*
X92834661Y-86237675D01*
X92909865Y-86268825D01*
X93300818Y-86659779D01*
X93300824Y-86659784D01*
X93337218Y-86696178D01*
X93351013Y-86712987D01*
X93418087Y-86768034D01*
X93494612Y-86808938D01*
X93577647Y-86834126D01*
X93642364Y-86840500D01*
X93642373Y-86840500D01*
X93663999Y-86842630D01*
X93685625Y-86840500D01*
X96531724Y-86840500D01*
X96606927Y-86871650D01*
X96701690Y-86890500D01*
X96798310Y-86890500D01*
X96893073Y-86871650D01*
X96982339Y-86834675D01*
X97062675Y-86780996D01*
X97130996Y-86712675D01*
X97184675Y-86632339D01*
X97221650Y-86543073D01*
X97240500Y-86448310D01*
X97240500Y-86351690D01*
X97221650Y-86256927D01*
X97184675Y-86167661D01*
X97130996Y-86087325D01*
X97062675Y-86019004D01*
X96982339Y-85965325D01*
X96893073Y-85928350D01*
X96798310Y-85909500D01*
X96701690Y-85909500D01*
X96606927Y-85928350D01*
X96531724Y-85959500D01*
X93846461Y-85959500D01*
X93532825Y-85645865D01*
X93507500Y-85584724D01*
X93507500Y-85400365D01*
X93509630Y-85378736D01*
X93507500Y-85357107D01*
X93507500Y-85357100D01*
X93501126Y-85292383D01*
X93475938Y-85209348D01*
X93435034Y-85132823D01*
X93393779Y-85082554D01*
X93393777Y-85082552D01*
X93379987Y-85065749D01*
X93363183Y-85051958D01*
X92912046Y-84600822D01*
X92898251Y-84584013D01*
X92831177Y-84528966D01*
X92754652Y-84488062D01*
X92671617Y-84462874D01*
X92606900Y-84456500D01*
X92606893Y-84456500D01*
X92585264Y-84454370D01*
X92563635Y-84456500D01*
X91186436Y-84456500D01*
X91185502Y-77986602D01*
X91187630Y-77964999D01*
X91185496Y-77943332D01*
X91185496Y-77943301D01*
X91183303Y-77921069D01*
X91179125Y-77878647D01*
X91179116Y-77878618D01*
X91179113Y-77878585D01*
X91167045Y-77838823D01*
X91153938Y-77795612D01*
X91153921Y-77795580D01*
X91153913Y-77795554D01*
X91135952Y-77761963D01*
X91113034Y-77719087D01*
X91113012Y-77719060D01*
X91112998Y-77719034D01*
X91088661Y-77689389D01*
X91071779Y-77668818D01*
X91071750Y-77668789D01*
X91057941Y-77651968D01*
X91041166Y-77638205D01*
X90246782Y-76843822D01*
X90232987Y-76827013D01*
X90229933Y-76824506D01*
X90933500Y-76824506D01*
X90933500Y-76975494D01*
X90962956Y-77123580D01*
X91020736Y-77263074D01*
X91104620Y-77388615D01*
X91211385Y-77495380D01*
X91336926Y-77579264D01*
X91476420Y-77637044D01*
X91624506Y-77666500D01*
X91775494Y-77666500D01*
X91923580Y-77637044D01*
X92063074Y-77579264D01*
X92188615Y-77495380D01*
X92295380Y-77388615D01*
X92379264Y-77263074D01*
X92437044Y-77123580D01*
X92466500Y-76975494D01*
X92466500Y-76824506D01*
X92437044Y-76676420D01*
X92379264Y-76536926D01*
X92295380Y-76411385D01*
X92188615Y-76304620D01*
X92063074Y-76220736D01*
X91923580Y-76162956D01*
X91775494Y-76133500D01*
X91624506Y-76133500D01*
X91476420Y-76162956D01*
X91336926Y-76220736D01*
X91211385Y-76304620D01*
X91104620Y-76411385D01*
X91020736Y-76536926D01*
X90962956Y-76676420D01*
X90933500Y-76824506D01*
X90229933Y-76824506D01*
X90165913Y-76771966D01*
X90089388Y-76731062D01*
X90006353Y-76705874D01*
X89941636Y-76699500D01*
X89941629Y-76699500D01*
X89920000Y-76697370D01*
X89898371Y-76699500D01*
X89611421Y-76699500D01*
X89611421Y-76290000D01*
X89607743Y-76252656D01*
X89596850Y-76216746D01*
X89579161Y-76183652D01*
X89555355Y-76154645D01*
X89526348Y-76130839D01*
X89514766Y-76124648D01*
X112454500Y-76115584D01*
X112454500Y-79497081D01*
G36*
X109398786Y-118642797D02*
G01*
X109412349Y-118659323D01*
X109422578Y-118671788D01*
X109422581Y-118671791D01*
X109430527Y-118681473D01*
X109440209Y-118689419D01*
X110535961Y-119785171D01*
X110507920Y-119827138D01*
X110429485Y-120016497D01*
X110389500Y-120217520D01*
X110389500Y-120422480D01*
X110429485Y-120623503D01*
X110507920Y-120812862D01*
X110621791Y-120983280D01*
X110766720Y-121128209D01*
X110937138Y-121242080D01*
X111126497Y-121320515D01*
X111327520Y-121360500D01*
X111532480Y-121360500D01*
X111733503Y-121320515D01*
X111922862Y-121242080D01*
X112093280Y-121128209D01*
X112238209Y-120983280D01*
X112352080Y-120812862D01*
X112430515Y-120623503D01*
X112454501Y-120502915D01*
X112454501Y-122677086D01*
X112430515Y-122556497D01*
X112352080Y-122367138D01*
X112238209Y-122196720D01*
X112093280Y-122051791D01*
X111922862Y-121937920D01*
X111733503Y-121859485D01*
X111532480Y-121819500D01*
X111327520Y-121819500D01*
X111126497Y-121859485D01*
X110937138Y-121937920D01*
X110895171Y-121965961D01*
X109391000Y-120461790D01*
X109391000Y-118628231D01*
X109398786Y-118642797D01*
G37*
X109398786Y-118642797D02*
X109412349Y-118659323D01*
X109422578Y-118671788D01*
X109422581Y-118671791D01*
X109430527Y-118681473D01*
X109440209Y-118689419D01*
X110535961Y-119785171D01*
X110507920Y-119827138D01*
X110429485Y-120016497D01*
X110389500Y-120217520D01*
X110389500Y-120422480D01*
X110429485Y-120623503D01*
X110507920Y-120812862D01*
X110621791Y-120983280D01*
X110766720Y-121128209D01*
X110937138Y-121242080D01*
X111126497Y-121320515D01*
X111327520Y-121360500D01*
X111532480Y-121360500D01*
X111733503Y-121320515D01*
X111922862Y-121242080D01*
X112093280Y-121128209D01*
X112238209Y-120983280D01*
X112352080Y-120812862D01*
X112430515Y-120623503D01*
X112454501Y-120502915D01*
X112454501Y-122677086D01*
X112430515Y-122556497D01*
X112352080Y-122367138D01*
X112238209Y-122196720D01*
X112093280Y-122051791D01*
X111922862Y-121937920D01*
X111733503Y-121859485D01*
X111532480Y-121819500D01*
X111327520Y-121819500D01*
X111126497Y-121859485D01*
X110937138Y-121937920D01*
X110895171Y-121965961D01*
X109391000Y-120461790D01*
X109391000Y-118628231D01*
X109398786Y-118642797D01*
G36*
X109874578Y-116583788D02*
G01*
X109874581Y-116583791D01*
X109882527Y-116593473D01*
X109892208Y-116601418D01*
X110535961Y-117245172D01*
X110507920Y-117287138D01*
X110429485Y-117476497D01*
X110389500Y-117677520D01*
X110389500Y-117882480D01*
X110429485Y-118083503D01*
X110507920Y-118272862D01*
X110621791Y-118443280D01*
X110766720Y-118588209D01*
X110937138Y-118702080D01*
X111126497Y-118780515D01*
X111327520Y-118820500D01*
X111532480Y-118820500D01*
X111733503Y-118780515D01*
X111922862Y-118702080D01*
X112093280Y-118588209D01*
X112238209Y-118443280D01*
X112352080Y-118272862D01*
X112430515Y-118083503D01*
X112454501Y-117962915D01*
X112454501Y-120137085D01*
X112430515Y-120016497D01*
X112352080Y-119827138D01*
X112238209Y-119656720D01*
X112093280Y-119511791D01*
X111922862Y-119397920D01*
X111733503Y-119319485D01*
X111532480Y-119279500D01*
X111327520Y-119279500D01*
X111126497Y-119319485D01*
X110937138Y-119397920D01*
X110895171Y-119425961D01*
X109865000Y-118395790D01*
X109865000Y-116572117D01*
X109874578Y-116583788D01*
G37*
X109874578Y-116583788D02*
X109874581Y-116583791D01*
X109882527Y-116593473D01*
X109892208Y-116601418D01*
X110535961Y-117245172D01*
X110507920Y-117287138D01*
X110429485Y-117476497D01*
X110389500Y-117677520D01*
X110389500Y-117882480D01*
X110429485Y-118083503D01*
X110507920Y-118272862D01*
X110621791Y-118443280D01*
X110766720Y-118588209D01*
X110937138Y-118702080D01*
X111126497Y-118780515D01*
X111327520Y-118820500D01*
X111532480Y-118820500D01*
X111733503Y-118780515D01*
X111922862Y-118702080D01*
X112093280Y-118588209D01*
X112238209Y-118443280D01*
X112352080Y-118272862D01*
X112430515Y-118083503D01*
X112454501Y-117962915D01*
X112454501Y-120137085D01*
X112430515Y-120016497D01*
X112352080Y-119827138D01*
X112238209Y-119656720D01*
X112093280Y-119511791D01*
X111922862Y-119397920D01*
X111733503Y-119319485D01*
X111532480Y-119279500D01*
X111327520Y-119279500D01*
X111126497Y-119319485D01*
X110937138Y-119397920D01*
X110895171Y-119425961D01*
X109865000Y-118395790D01*
X109865000Y-116572117D01*
X109874578Y-116583788D01*
G36*
X103735325Y-94879339D02*
G01*
X103789004Y-94959675D01*
X103857325Y-95027996D01*
X103889977Y-95049813D01*
X91341209Y-107598581D01*
X91331527Y-107606527D01*
X91323581Y-107616209D01*
X91323578Y-107616212D01*
X91318265Y-107622686D01*
X91299786Y-107645203D01*
X91276200Y-107689329D01*
X91261676Y-107737208D01*
X91258000Y-107774532D01*
X91258000Y-107774542D01*
X91256773Y-107787000D01*
X91258000Y-107799458D01*
X91258001Y-117246789D01*
X89089243Y-119415547D01*
X89062862Y-119397920D01*
X88873503Y-119319485D01*
X88672480Y-119279500D01*
X88467520Y-119279500D01*
X88266497Y-119319485D01*
X88077138Y-119397920D01*
X87906720Y-119511791D01*
X87761791Y-119656720D01*
X87647920Y-119827138D01*
X87575500Y-120001975D01*
X87575500Y-118098025D01*
X87647920Y-118272862D01*
X87761791Y-118443280D01*
X87906720Y-118588209D01*
X88077138Y-118702080D01*
X88266497Y-118780515D01*
X88467520Y-118820500D01*
X88672480Y-118820500D01*
X88873503Y-118780515D01*
X89062862Y-118702080D01*
X89233280Y-118588209D01*
X89378209Y-118443280D01*
X89492080Y-118272862D01*
X89570515Y-118083503D01*
X89610500Y-117882480D01*
X89610500Y-117677520D01*
X89570515Y-117476497D01*
X89492080Y-117287138D01*
X89483265Y-117273945D01*
X91070791Y-115686419D01*
X91080473Y-115678473D01*
X91094125Y-115661839D01*
X91112214Y-115639797D01*
X91135800Y-115595672D01*
X91144694Y-115566352D01*
X91150324Y-115547793D01*
X91154000Y-115510469D01*
X91154000Y-115510459D01*
X91155227Y-115498001D01*
X91154000Y-115485543D01*
X91154000Y-107539474D01*
X103563797Y-95129678D01*
X103573473Y-95121737D01*
X103581414Y-95112061D01*
X103581422Y-95112053D01*
X103605214Y-95083061D01*
X103628800Y-95038936D01*
X103629471Y-95036725D01*
X103643324Y-94991057D01*
X103647000Y-94953733D01*
X103647000Y-94953723D01*
X103648227Y-94941265D01*
X103647776Y-94936683D01*
X103705675Y-94897996D01*
X103732105Y-94871566D01*
X103735325Y-94879339D01*
G37*
X103735325Y-94879339D02*
X103789004Y-94959675D01*
X103857325Y-95027996D01*
X103889977Y-95049813D01*
X91341209Y-107598581D01*
X91331527Y-107606527D01*
X91323581Y-107616209D01*
X91323578Y-107616212D01*
X91318265Y-107622686D01*
X91299786Y-107645203D01*
X91276200Y-107689329D01*
X91261676Y-107737208D01*
X91258000Y-107774532D01*
X91258000Y-107774542D01*
X91256773Y-107787000D01*
X91258000Y-107799458D01*
X91258001Y-117246789D01*
X89089243Y-119415547D01*
X89062862Y-119397920D01*
X88873503Y-119319485D01*
X88672480Y-119279500D01*
X88467520Y-119279500D01*
X88266497Y-119319485D01*
X88077138Y-119397920D01*
X87906720Y-119511791D01*
X87761791Y-119656720D01*
X87647920Y-119827138D01*
X87575500Y-120001975D01*
X87575500Y-118098025D01*
X87647920Y-118272862D01*
X87761791Y-118443280D01*
X87906720Y-118588209D01*
X88077138Y-118702080D01*
X88266497Y-118780515D01*
X88467520Y-118820500D01*
X88672480Y-118820500D01*
X88873503Y-118780515D01*
X89062862Y-118702080D01*
X89233280Y-118588209D01*
X89378209Y-118443280D01*
X89492080Y-118272862D01*
X89570515Y-118083503D01*
X89610500Y-117882480D01*
X89610500Y-117677520D01*
X89570515Y-117476497D01*
X89492080Y-117287138D01*
X89483265Y-117273945D01*
X91070791Y-115686419D01*
X91080473Y-115678473D01*
X91094125Y-115661839D01*
X91112214Y-115639797D01*
X91135800Y-115595672D01*
X91144694Y-115566352D01*
X91150324Y-115547793D01*
X91154000Y-115510469D01*
X91154000Y-115510459D01*
X91155227Y-115498001D01*
X91154000Y-115485543D01*
X91154000Y-107539474D01*
X103563797Y-95129678D01*
X103573473Y-95121737D01*
X103581414Y-95112061D01*
X103581422Y-95112053D01*
X103605214Y-95083061D01*
X103628800Y-95038936D01*
X103629471Y-95036725D01*
X103643324Y-94991057D01*
X103647000Y-94953733D01*
X103647000Y-94953723D01*
X103648227Y-94941265D01*
X103647776Y-94936683D01*
X103705675Y-94897996D01*
X103732105Y-94871566D01*
X103735325Y-94879339D01*
G36*
X103012004Y-94829675D02*
G01*
X103078691Y-94896362D01*
X90729209Y-107245845D01*
X90719527Y-107253791D01*
X90711581Y-107263473D01*
X90711578Y-107263476D01*
X90702995Y-107273935D01*
X90687786Y-107292467D01*
X90664200Y-107336593D01*
X90649676Y-107384472D01*
X90646000Y-107421796D01*
X90646000Y-107421806D01*
X90644773Y-107434264D01*
X90646000Y-107446722D01*
X90646001Y-115392789D01*
X89133602Y-116905188D01*
X89062862Y-116857920D01*
X88873503Y-116779485D01*
X88672480Y-116739500D01*
X88467520Y-116739500D01*
X88266497Y-116779485D01*
X88077138Y-116857920D01*
X87906720Y-116971791D01*
X87761791Y-117116720D01*
X87647920Y-117287138D01*
X87575500Y-117461975D01*
X87575500Y-115558025D01*
X87647920Y-115732862D01*
X87761791Y-115903280D01*
X87906720Y-116048209D01*
X88077138Y-116162080D01*
X88266497Y-116240515D01*
X88467520Y-116280500D01*
X88672480Y-116280500D01*
X88873503Y-116240515D01*
X89062862Y-116162080D01*
X89233280Y-116048209D01*
X89378209Y-115903280D01*
X89492080Y-115732862D01*
X89570515Y-115543503D01*
X89610500Y-115342480D01*
X89610500Y-115137520D01*
X89570515Y-114936497D01*
X89492080Y-114747138D01*
X89477657Y-114725553D01*
X90533791Y-113669419D01*
X90543473Y-113661473D01*
X90551419Y-113651791D01*
X90551422Y-113651788D01*
X90575214Y-113622797D01*
X90598800Y-113578672D01*
X90613324Y-113530793D01*
X90617000Y-113493469D01*
X90617000Y-113493458D01*
X90618227Y-113481000D01*
X90617000Y-113468542D01*
X90617000Y-107281474D01*
X102815133Y-95083342D01*
X102824809Y-95075401D01*
X102832750Y-95065725D01*
X102832758Y-95065717D01*
X102856550Y-95036725D01*
X102880136Y-94992600D01*
X102883495Y-94981527D01*
X102894660Y-94944721D01*
X102898336Y-94907397D01*
X102898336Y-94907386D01*
X102899563Y-94894928D01*
X102899112Y-94890347D01*
X102957011Y-94851660D01*
X102998783Y-94809888D01*
X103012004Y-94829675D01*
G37*
X103012004Y-94829675D02*
X103078691Y-94896362D01*
X90729209Y-107245845D01*
X90719527Y-107253791D01*
X90711581Y-107263473D01*
X90711578Y-107263476D01*
X90702995Y-107273935D01*
X90687786Y-107292467D01*
X90664200Y-107336593D01*
X90649676Y-107384472D01*
X90646000Y-107421796D01*
X90646000Y-107421806D01*
X90644773Y-107434264D01*
X90646000Y-107446722D01*
X90646001Y-115392789D01*
X89133602Y-116905188D01*
X89062862Y-116857920D01*
X88873503Y-116779485D01*
X88672480Y-116739500D01*
X88467520Y-116739500D01*
X88266497Y-116779485D01*
X88077138Y-116857920D01*
X87906720Y-116971791D01*
X87761791Y-117116720D01*
X87647920Y-117287138D01*
X87575500Y-117461975D01*
X87575500Y-115558025D01*
X87647920Y-115732862D01*
X87761791Y-115903280D01*
X87906720Y-116048209D01*
X88077138Y-116162080D01*
X88266497Y-116240515D01*
X88467520Y-116280500D01*
X88672480Y-116280500D01*
X88873503Y-116240515D01*
X89062862Y-116162080D01*
X89233280Y-116048209D01*
X89378209Y-115903280D01*
X89492080Y-115732862D01*
X89570515Y-115543503D01*
X89610500Y-115342480D01*
X89610500Y-115137520D01*
X89570515Y-114936497D01*
X89492080Y-114747138D01*
X89477657Y-114725553D01*
X90533791Y-113669419D01*
X90543473Y-113661473D01*
X90551419Y-113651791D01*
X90551422Y-113651788D01*
X90575214Y-113622797D01*
X90598800Y-113578672D01*
X90613324Y-113530793D01*
X90617000Y-113493469D01*
X90617000Y-113493458D01*
X90618227Y-113481000D01*
X90617000Y-113468542D01*
X90617000Y-107281474D01*
X102815133Y-95083342D01*
X102824809Y-95075401D01*
X102832750Y-95065725D01*
X102832758Y-95065717D01*
X102856550Y-95036725D01*
X102880136Y-94992600D01*
X102883495Y-94981527D01*
X102894660Y-94944721D01*
X102898336Y-94907397D01*
X102898336Y-94907386D01*
X102899563Y-94894928D01*
X102899112Y-94890347D01*
X102957011Y-94851660D01*
X102998783Y-94809888D01*
X103012004Y-94829675D01*
G36*
X112454500Y-87117082D02*
G01*
X112430515Y-86996497D01*
X112352080Y-86807138D01*
X112238209Y-86636720D01*
X112093280Y-86491791D01*
X111922862Y-86377920D01*
X111733503Y-86299485D01*
X111532480Y-86259500D01*
X111327520Y-86259500D01*
X111126497Y-86299485D01*
X110937138Y-86377920D01*
X110766720Y-86491791D01*
X110621791Y-86636720D01*
X110507920Y-86807138D01*
X110429485Y-86996497D01*
X110419638Y-87046000D01*
X109424712Y-87046000D01*
X108426732Y-86048021D01*
X108440500Y-85978809D01*
X108440500Y-85882189D01*
X108421650Y-85787426D01*
X108384675Y-85698160D01*
X108381895Y-85693999D01*
X109206771Y-85693999D01*
X109258004Y-85770675D01*
X109326325Y-85838996D01*
X109406661Y-85892675D01*
X109495927Y-85929650D01*
X109590690Y-85948500D01*
X109687310Y-85948500D01*
X109782073Y-85929650D01*
X109871339Y-85892675D01*
X109951675Y-85838996D01*
X110019996Y-85770675D01*
X110071229Y-85693999D01*
X110837543Y-85693999D01*
X110850001Y-85695226D01*
X110862459Y-85693999D01*
X110862470Y-85693999D01*
X110899794Y-85690323D01*
X110933962Y-85679958D01*
X110937138Y-85682080D01*
X111126497Y-85760515D01*
X111327520Y-85800500D01*
X111532480Y-85800500D01*
X111733503Y-85760515D01*
X111922862Y-85682080D01*
X112093280Y-85568209D01*
X112238209Y-85423280D01*
X112352080Y-85252862D01*
X112430515Y-85063503D01*
X112454500Y-84942918D01*
X112454500Y-87117082D01*
G37*
X112454500Y-87117082D02*
X112430515Y-86996497D01*
X112352080Y-86807138D01*
X112238209Y-86636720D01*
X112093280Y-86491791D01*
X111922862Y-86377920D01*
X111733503Y-86299485D01*
X111532480Y-86259500D01*
X111327520Y-86259500D01*
X111126497Y-86299485D01*
X110937138Y-86377920D01*
X110766720Y-86491791D01*
X110621791Y-86636720D01*
X110507920Y-86807138D01*
X110429485Y-86996497D01*
X110419638Y-87046000D01*
X109424712Y-87046000D01*
X108426732Y-86048021D01*
X108440500Y-85978809D01*
X108440500Y-85882189D01*
X108421650Y-85787426D01*
X108384675Y-85698160D01*
X108381895Y-85693999D01*
X109206771Y-85693999D01*
X109258004Y-85770675D01*
X109326325Y-85838996D01*
X109406661Y-85892675D01*
X109495927Y-85929650D01*
X109590690Y-85948500D01*
X109687310Y-85948500D01*
X109782073Y-85929650D01*
X109871339Y-85892675D01*
X109951675Y-85838996D01*
X110019996Y-85770675D01*
X110071229Y-85693999D01*
X110837543Y-85693999D01*
X110850001Y-85695226D01*
X110862459Y-85693999D01*
X110862470Y-85693999D01*
X110899794Y-85690323D01*
X110933962Y-85679958D01*
X110937138Y-85682080D01*
X111126497Y-85760515D01*
X111327520Y-85800500D01*
X111532480Y-85800500D01*
X111733503Y-85760515D01*
X111922862Y-85682080D01*
X112093280Y-85568209D01*
X112238209Y-85423280D01*
X112352080Y-85252862D01*
X112430515Y-85063503D01*
X112454500Y-84942918D01*
X112454500Y-87117082D01*
G36*
X112454500Y-82037081D02*
G01*
X112430515Y-81916497D01*
X112352080Y-81727138D01*
X112238209Y-81556720D01*
X112093280Y-81411791D01*
X111922862Y-81297920D01*
X111733503Y-81219485D01*
X111532480Y-81179500D01*
X111327520Y-81179500D01*
X111126497Y-81219485D01*
X110937138Y-81297920D01*
X110766720Y-81411791D01*
X110621791Y-81556720D01*
X110507920Y-81727138D01*
X110429485Y-81916497D01*
X110389500Y-82117520D01*
X110389500Y-82322480D01*
X110429485Y-82523503D01*
X110507920Y-82712862D01*
X110621791Y-82883280D01*
X110766720Y-83028209D01*
X110937138Y-83142080D01*
X111126497Y-83220515D01*
X111327520Y-83260500D01*
X111532480Y-83260500D01*
X111733503Y-83220515D01*
X111922862Y-83142080D01*
X112093280Y-83028209D01*
X112238209Y-82883280D01*
X112352080Y-82712862D01*
X112430515Y-82523503D01*
X112454500Y-82402919D01*
X112454500Y-84577082D01*
X112430515Y-84456497D01*
X112352080Y-84267138D01*
X112238209Y-84096720D01*
X112093280Y-83951791D01*
X111922862Y-83837920D01*
X111733503Y-83759485D01*
X111532480Y-83719500D01*
X111327520Y-83719500D01*
X111126497Y-83759485D01*
X110937138Y-83837920D01*
X110766720Y-83951791D01*
X110621791Y-84096720D01*
X110507920Y-84267138D01*
X110429485Y-84456497D01*
X110389500Y-84657520D01*
X110389500Y-84862480D01*
X110429485Y-85063503D01*
X110480224Y-85185999D01*
X110047174Y-85185999D01*
X110019996Y-85145325D01*
X109951675Y-85077004D01*
X109871339Y-85023325D01*
X109782073Y-84986350D01*
X109687310Y-84967500D01*
X109590690Y-84967500D01*
X109495927Y-84986350D01*
X109406661Y-85023325D01*
X109326325Y-85077004D01*
X109258004Y-85145325D01*
X109230826Y-85185999D01*
X108701269Y-85185999D01*
X108724175Y-85176511D01*
X108804511Y-85122832D01*
X108872832Y-85054511D01*
X108926511Y-84974175D01*
X108963486Y-84884909D01*
X108982336Y-84790146D01*
X108982336Y-84693526D01*
X108963486Y-84598763D01*
X108926511Y-84509497D01*
X108872832Y-84429161D01*
X108804511Y-84360840D01*
X108797268Y-84356000D01*
X110220791Y-82932477D01*
X110230473Y-82924531D01*
X110238419Y-82914849D01*
X110238422Y-82914846D01*
X110262215Y-82885855D01*
X110285800Y-82841730D01*
X110285800Y-82841729D01*
X110300324Y-82793851D01*
X110304000Y-82756527D01*
X110304000Y-82756516D01*
X110305227Y-82744058D01*
X110304000Y-82731600D01*
X110304000Y-81165210D01*
X110895172Y-80574039D01*
X110937138Y-80602080D01*
X111126497Y-80680515D01*
X111327520Y-80720500D01*
X111532480Y-80720500D01*
X111733503Y-80680515D01*
X111922862Y-80602080D01*
X112093280Y-80488209D01*
X112238209Y-80343280D01*
X112352080Y-80172862D01*
X112430515Y-79983503D01*
X112454500Y-79862919D01*
X112454500Y-82037081D01*
G37*
X112454500Y-82037081D02*
X112430515Y-81916497D01*
X112352080Y-81727138D01*
X112238209Y-81556720D01*
X112093280Y-81411791D01*
X111922862Y-81297920D01*
X111733503Y-81219485D01*
X111532480Y-81179500D01*
X111327520Y-81179500D01*
X111126497Y-81219485D01*
X110937138Y-81297920D01*
X110766720Y-81411791D01*
X110621791Y-81556720D01*
X110507920Y-81727138D01*
X110429485Y-81916497D01*
X110389500Y-82117520D01*
X110389500Y-82322480D01*
X110429485Y-82523503D01*
X110507920Y-82712862D01*
X110621791Y-82883280D01*
X110766720Y-83028209D01*
X110937138Y-83142080D01*
X111126497Y-83220515D01*
X111327520Y-83260500D01*
X111532480Y-83260500D01*
X111733503Y-83220515D01*
X111922862Y-83142080D01*
X112093280Y-83028209D01*
X112238209Y-82883280D01*
X112352080Y-82712862D01*
X112430515Y-82523503D01*
X112454500Y-82402919D01*
X112454500Y-84577082D01*
X112430515Y-84456497D01*
X112352080Y-84267138D01*
X112238209Y-84096720D01*
X112093280Y-83951791D01*
X111922862Y-83837920D01*
X111733503Y-83759485D01*
X111532480Y-83719500D01*
X111327520Y-83719500D01*
X111126497Y-83759485D01*
X110937138Y-83837920D01*
X110766720Y-83951791D01*
X110621791Y-84096720D01*
X110507920Y-84267138D01*
X110429485Y-84456497D01*
X110389500Y-84657520D01*
X110389500Y-84862480D01*
X110429485Y-85063503D01*
X110480224Y-85185999D01*
X110047174Y-85185999D01*
X110019996Y-85145325D01*
X109951675Y-85077004D01*
X109871339Y-85023325D01*
X109782073Y-84986350D01*
X109687310Y-84967500D01*
X109590690Y-84967500D01*
X109495927Y-84986350D01*
X109406661Y-85023325D01*
X109326325Y-85077004D01*
X109258004Y-85145325D01*
X109230826Y-85185999D01*
X108701269Y-85185999D01*
X108724175Y-85176511D01*
X108804511Y-85122832D01*
X108872832Y-85054511D01*
X108926511Y-84974175D01*
X108963486Y-84884909D01*
X108982336Y-84790146D01*
X108982336Y-84693526D01*
X108963486Y-84598763D01*
X108926511Y-84509497D01*
X108872832Y-84429161D01*
X108804511Y-84360840D01*
X108797268Y-84356000D01*
X110220791Y-82932477D01*
X110230473Y-82924531D01*
X110238419Y-82914849D01*
X110238422Y-82914846D01*
X110262215Y-82885855D01*
X110285800Y-82841730D01*
X110285800Y-82841729D01*
X110300324Y-82793851D01*
X110304000Y-82756527D01*
X110304000Y-82756516D01*
X110305227Y-82744058D01*
X110304000Y-82731600D01*
X110304000Y-81165210D01*
X110895172Y-80574039D01*
X110937138Y-80602080D01*
X111126497Y-80680515D01*
X111327520Y-80720500D01*
X111532480Y-80720500D01*
X111733503Y-80680515D01*
X111922862Y-80602080D01*
X112093280Y-80488209D01*
X112238209Y-80343280D01*
X112352080Y-80172862D01*
X112430515Y-79983503D01*
X112454500Y-79862919D01*
X112454500Y-82037081D01*
M02*
